G04 ================== begin FILE IDENTIFICATION RECORD ==================*
G04 Layout Name:  stm32g431-devboard.brd*
G04 Film Name:    ASM_TOP*
G04 File Format:  Gerber RS274X*
G04 File Origin:  Cadence Allegro 17.4-S039*
G04 Origin Date:  Mon Mar  2 09:43:22 2026*
G04 *
G04 Layer:  BOARD GEOMETRY/DESIGN_OUTLINE*
G04 Layer:  BOARD GEOMETRY/SILKSCREEN_TOP*
G04 Layer:  PACKAGE GEOMETRY/SILKSCREEN_TOP*
G04 Layer:  REF DES/SILKSCREEN_TOP*
G04 *
G04 Offset:    (0.000 0.000)*
G04 Mirror:    Yes*
G04 Mode:      Positive*
G04 Rotation:  0*
G04 FullContactRelief:  No*
G04 UndefLineWidth:     10.000*
G04 ================== end FILE IDENTIFICATION RECORD ====================*
%FSLAX25Y25*MOIN*%
%IR0*IPPOS*OFA0.00000B0.00000*MIA1B0*SFA1.00000B1.00000*%
%ADD10C,.003*%
%ADD11C,.006*%
%ADD12C,.00315*%
%ADD13C,.003941*%
%ADD14C,.00945*%
%ADD15C,.00984*%
%ADD16C,.00787*%
%ADD17C,.00598*%
%ADD18C,.005909*%
%ADD19C,.01*%
%ADD20C,.01181*%
%ADD21C,.011811*%
%ADD22C,.023618*%
G75*
%LPD*%
G75*
G36*
G01X18370Y104900D02*
X20370D01*
X19370Y102400D01*
X18370Y104900D01*
G37*
G36*
G01X18070Y144200D02*
X20070D01*
X19070Y141700D01*
X18070Y144200D01*
G37*
G36*
G01X91700Y364930D02*
Y362930D01*
X89200Y363930D01*
X91700Y364930D01*
G37*
G36*
G01X160300Y364230D02*
Y362230D01*
X157800Y363230D01*
X160300Y364230D01*
G37*
G36*
G01X273100Y23370D02*
Y25370D01*
X275600Y24370D01*
X273100Y23370D01*
G37*
G36*
G01X30750Y232404D02*
Y230741D01*
X29550D01*
Y232404D01*
X30750D01*
G37*
G36*
G01Y237059D02*
Y235396D01*
X29550D01*
Y237059D01*
X30750D01*
G37*
G36*
G01X64763Y36398D02*
Y38061D01*
X65963D01*
Y36398D01*
X64763D01*
G37*
G36*
G01Y31743D02*
Y33406D01*
X65963D01*
Y31743D01*
X64763D01*
G37*
G36*
G01X102417Y7261D02*
Y8883D01*
X104217D01*
Y7261D01*
X102417D01*
G37*
G36*
G01Y19438D02*
Y21060D01*
X104217D01*
Y19438D01*
X102417D01*
G37*
G36*
G01X184323Y137312D02*
X185499Y136136D01*
X184650Y135287D01*
X183474Y136463D01*
X184323Y137312D01*
G37*
G36*
G01X181031Y140603D02*
X182207Y139427D01*
X181359Y138579D01*
X180183Y139755D01*
X181031Y140603D01*
G37*
G36*
G01X180405Y359866D02*
Y359086D01*
X177287D01*
Y359866D01*
X180405D01*
G37*
G36*
G01X201712D02*
Y359086D01*
X198594D01*
Y359866D01*
X201712D01*
G37*
G36*
G01X200543Y362075D02*
Y356878D01*
X199764D01*
Y362075D01*
X200543D01*
G37*
G36*
G01X206655Y319910D02*
Y314674D01*
X204855D01*
Y319910D01*
X206655D01*
G37*
G36*
G01Y339102D02*
Y333866D01*
X204855D01*
Y339102D01*
X206655D01*
G37*
G36*
G01X213442Y347134D02*
Y347914D01*
X216560D01*
Y347134D01*
X213442D01*
G37*
G36*
G01X214611Y344925D02*
Y350122D01*
X215390D01*
Y344925D01*
X214611D01*
G37*
G36*
G01X234749Y347134D02*
Y347914D01*
X237867D01*
Y347134D01*
X234749D01*
G37*
G36*
G01X297821Y336320D02*
X298602D01*
Y333202D01*
X297821D01*
Y336320D01*
G37*
G36*
G01Y357627D02*
X298602D01*
Y354509D01*
X297821D01*
Y357627D01*
G37*
G36*
G01X295612Y356458D02*
X300809D01*
Y355679D01*
X295612D01*
Y356458D01*
G37*
G36*
G01X334920Y153679D02*
Y152898D01*
X331802D01*
Y153679D01*
X334920D01*
G37*
G36*
G01X334820Y231879D02*
Y231098D01*
X331702D01*
Y231879D01*
X334820D01*
G37*
G36*
G01X334720Y308979D02*
Y308198D01*
X331602D01*
Y308979D01*
X334720D01*
G37*
G36*
G01X358250Y56435D02*
Y58098D01*
X359450D01*
Y56435D01*
X358250D01*
G37*
G36*
G01Y61090D02*
Y62753D01*
X359450D01*
Y61090D01*
X358250D01*
G37*
G36*
G01X356227Y153679D02*
Y152898D01*
X353109D01*
Y153679D01*
X356227D01*
G37*
G36*
G01X355058Y155888D02*
Y150691D01*
X354279D01*
Y155888D01*
X355058D01*
G37*
G36*
G01X356127Y231879D02*
Y231098D01*
X353009D01*
Y231879D01*
X356127D01*
G37*
G36*
G01X354958Y234088D02*
Y228891D01*
X354179D01*
Y234088D01*
X354958D01*
G37*
G36*
G01X356027Y308979D02*
Y308198D01*
X352909D01*
Y308979D01*
X356027D01*
G37*
G36*
G01X354858Y311188D02*
Y305991D01*
X354079D01*
Y311188D01*
X354858D01*
G37*
G54D10*
G01X69936Y39319D02*
G03Y42645I-2881J1663D01*
G01Y45972D02*
G03Y42645I2881J-1664D01*
G54D20*
G01X22922Y356139D02*
G03I-591J0D01*
G01X30809Y353200D02*
G03I-591J0D01*
G01X68587Y186913D02*
G03I-591J0D01*
G01X75878Y184416D02*
G03I-591J0D01*
G01X211537Y94614D02*
G03I-591J0D01*
G01X219829Y91593D02*
G03I-591J0D01*
G01X231028Y282287D02*
G03I-591J0D01*
G01X238915Y279348D02*
G03I-591J0D01*
G01X258106Y328825D02*
G03I-591J0D01*
G01X260572Y335536D02*
G03I-591J0D01*
G01X328016Y193985D02*
G03I-591J0D01*
G01X327916Y272185D02*
G03I-591J0D01*
G01X327816Y349285D02*
G03I-591J0D01*
G01X337597Y106800D02*
G03I-591J0D01*
G01X334726Y191519D02*
G03I-591J0D01*
G01X334626Y269719D02*
G03I-591J0D01*
G01X334526Y346819D02*
G03I-591J0D01*
G01X345889Y103779D02*
G03I-591J0D01*
G54D11*
G01X43Y193269D02*
Y198820D01*
G01X6558Y192669D02*
X643D01*
G01X43Y193269D02*
G03X643Y192669I600J0D01*
G01X43Y201980D02*
Y207531D01*
G01X6558Y208131D02*
X643D01*
G01D02*
G03X43Y207531I0J-600D01*
G01X6666Y32211D02*
Y24989D01*
G01X11725D02*
X6666D01*
G01X12020Y32843D02*
X6469D01*
G01X12020Y39957D02*
X6469D01*
G01X5869Y39358D02*
Y33443D01*
G01X6469Y39958D02*
G03X5869Y39358I0J-600D01*
G01Y33443D02*
G03X6469Y32843I600J0D01*
G01X11725Y32211D02*
X6666D01*
G01X7157Y193269D02*
Y198820D01*
G01X6558Y192669D02*
G03X7158Y193269I0J600D01*
G01X15211Y193466D02*
X7989D01*
G01D02*
Y198525D01*
G01X7157Y201980D02*
Y207531D01*
G01X7989Y202275D02*
Y207334D01*
G01X7158Y207531D02*
G03X6558Y208131I-600J0D01*
G01X15211Y207334D02*
X7989D01*
G01X7147Y353565D02*
X10922D01*
G01X7147D02*
Y358767D01*
G01D02*
X10922D01*
G01X20534Y32211D02*
Y24989D01*
G01D02*
X15475D01*
G01X20731Y32843D02*
X15180D01*
G01X20731Y39957D02*
X15180D01*
G01X21331Y39358D02*
Y33443D01*
G01Y39358D02*
G03X20731Y39958I-600J0D01*
G01Y32843D02*
G03X21331Y33443I0J600D01*
G01X20534Y32211D02*
X15475D01*
G01X15211Y193466D02*
Y198525D01*
G01Y202275D02*
Y207334D01*
G01X20747Y224899D02*
X24522D01*
G01X20747D02*
Y230101D01*
G01D02*
X24522D01*
G01X14278Y353565D02*
X18053D01*
G01D02*
Y358767D01*
G01X14278D02*
X18053D01*
G01X29850Y231041D02*
X22950D01*
G01Y232204D02*
Y231041D01*
G01X28257Y236759D02*
Y231041D01*
G01X27878Y224899D02*
X31653D01*
G01X27878Y230101D02*
X31653D01*
G01X29850Y236759D02*
X22950D01*
G01D02*
Y235596D01*
G01X27256Y335754D02*
X39236D01*
G01X27256Y355646D02*
Y335754D01*
G01Y355646D02*
X39236D01*
G01X33311Y366366D02*
X26089D01*
G01D02*
Y371425D01*
G01Y375175D02*
Y380234D01*
G01X33311D02*
X26089D01*
G01X31653Y224899D02*
Y230101D01*
G01X39236Y355646D02*
Y335754D01*
G01X33943Y366169D02*
Y371720D01*
G01X40458Y365569D02*
X34543D01*
G01X33943Y366169D02*
G03X34543Y365569I600J0D01*
G01X33311Y366366D02*
Y371425D01*
G01X33943Y374880D02*
Y380431D01*
G01X33311Y375175D02*
Y380234D01*
G01X40458Y381031D02*
X34543D01*
G01D02*
G03X33943Y380431I0J-600D01*
G01X49000Y144941D02*
X48393Y145536D01*
G01Y149537D02*
Y145536D01*
G01X49000Y150059D02*
X48393Y149537D01*
G01X48547Y168399D02*
X52322D01*
G01X48547D02*
Y173601D01*
G01Y162499D02*
X52322D01*
G01X48547D02*
Y167701D01*
G01D02*
X52322D01*
G01X48547Y173601D02*
X52322D01*
G01X47999Y344022D02*
Y340247D01*
G01D02*
X53201D01*
G01X47999Y351153D02*
Y347378D01*
G01X51822Y357001D02*
X48047D01*
G01D02*
Y351799D01*
G01X51822D02*
X48047D01*
G01X47999Y351153D02*
X53201D01*
G01X41057Y366169D02*
Y371720D01*
G01X40458Y365569D02*
G03X41058Y366169I0J600D01*
G01X41057Y374880D02*
Y380431D01*
G01X41058D02*
G03X40458Y381031I-600J0D01*
G01X55678Y168399D02*
X59453D01*
G01X55678Y162499D02*
X59453D01*
G01X55678Y167701D02*
X59453D01*
G01X55678Y173601D02*
X59453D01*
G01X53201Y344022D02*
Y340247D01*
G01Y351153D02*
Y347378D01*
G01X58953Y357001D02*
X55178D01*
G01X58953Y351799D02*
X55178D01*
G01X65663Y37761D02*
X72563D01*
G01X65663Y32043D02*
X72563D01*
G01X67256D02*
Y37761D01*
G01X61004Y38943D02*
Y46347D01*
G01X61604Y38343D02*
X66290D01*
G01X61604Y46947D02*
X66290D01*
G01X59607Y149465D02*
X59000Y150064D01*
G01X59607Y149465D02*
Y145463D01*
G01D02*
X59000Y144941D01*
G01X59453Y168399D02*
Y173601D01*
G01Y162499D02*
Y167701D01*
G01X58953Y357001D02*
Y351799D01*
G01X75693Y27872D02*
Y22321D01*
G01X76292Y21721D02*
X82207D01*
G01X75692Y22321D02*
G03X76292Y21721I600J0D01*
G01X75693Y36583D02*
Y31032D01*
G01X76292Y37183D02*
X82207D01*
G01X76292D02*
G03X75692Y36583I0J-600D01*
G01X72563Y36598D02*
Y37761D01*
G01Y32043D02*
Y33206D01*
G01X73583Y38343D02*
X78268D01*
G01X73583Y46947D02*
X78268D01*
G01X72326Y159805D02*
X86274D01*
G01X72326Y185995D02*
Y159805D01*
G01Y185995D02*
X86274D01*
G01X77707Y7561D02*
X102717D01*
G01X77707D02*
Y8683D01*
G01Y20759D02*
X102717D01*
G01X77707Y19637D02*
Y20759D01*
G01X82807Y27872D02*
Y22321D01*
G01X82207Y21721D02*
G03X82807Y22321I0J600D01*
G01Y36583D02*
Y31032D01*
G01Y36583D02*
G03X82207Y37183I-600J0D01*
G01X78868Y38943D02*
Y46347D01*
G01X92513Y22321D02*
Y27872D01*
G01X99028Y21721D02*
X93113D01*
G01X92513Y22321D02*
G03X93113Y21721I600J0D01*
G01X92513Y31032D02*
Y36583D01*
G01X99028Y37183D02*
X93113D01*
G01D02*
G03X92513Y36583I0J-600D01*
G01X86274Y185995D02*
Y159805D01*
G01X96136Y7579D02*
Y20777D01*
G01X99627Y22321D02*
Y27872D01*
G01X99028Y21721D02*
G03X99628Y22321I0J600D01*
G01X99627Y31032D02*
Y36583D01*
G01X99628D02*
G03X99028Y37183I-600J0D01*
G01X109989Y377725D02*
Y372666D01*
G01D02*
X117211D01*
G01X109989Y386534D02*
Y381475D01*
G01Y386534D02*
X117211D01*
G01X120207Y26940D02*
Y21738D01*
G01X123982D02*
X120207D01*
G01X123982Y26940D02*
X120207D01*
G01Y32940D02*
Y27738D01*
G01X123982D02*
X120207D01*
G01X123982Y32940D02*
X120207D01*
G01X118823Y41832D02*
X122824D01*
G01X118301Y42439D02*
X118823Y41832D01*
G01X118895Y53046D02*
X118296Y52439D01*
G01X118895Y53046D02*
X122897D01*
G01X117243Y378020D02*
Y372469D01*
G01X117842Y371869D02*
X123757D01*
G01X117242Y372469D02*
G03X117842Y371869I600J0D01*
G01X117211Y377725D02*
Y372666D01*
G01X117243Y386731D02*
Y381180D01*
G01X117842Y387331D02*
G03X117242Y386731I0J-600D01*
G01X117211Y386534D02*
Y381475D01*
G01X117842Y387331D02*
X123757D01*
G01X131113Y26940D02*
Y21738D01*
G01D02*
X127338D01*
G01X131113Y26940D02*
X127338D01*
G01X131113Y32940D02*
Y27738D01*
G01D02*
X127338D01*
G01X131113Y32940D02*
X127338D01*
G01X123419Y42439D02*
X122824Y41832D01*
G01X122897Y53046D02*
X123419Y52439D01*
G01X124357Y378020D02*
Y372469D01*
G01X123757Y371869D02*
G03X124357Y372469I0J600D01*
G01Y386731D02*
Y381180D01*
G01Y386731D02*
G03X123757Y387331I-600J0D01*
G01X139059Y33761D02*
Y29986D01*
G01D02*
X144261D01*
G01X139059Y40892D02*
Y37117D01*
G01Y40892D02*
X144261D01*
G01X137527Y182133D02*
X143533Y188138D01*
G01X137527Y182133D02*
X148822Y170838D01*
G01X141122Y191047D02*
X138452Y193717D01*
G01X140712Y206062D02*
X137033Y202383D01*
G01X139703Y199713D02*
X137033Y202383D01*
G01X139758Y199768D02*
X137088Y202438D01*
G01D02*
X133410Y198759D01*
G01X136079Y196090D02*
X133410Y198759D01*
G01X139001Y344247D02*
Y348022D01*
G01Y344247D02*
X133799D01*
G01D02*
Y348022D01*
G01X139001Y351378D02*
Y355153D01*
G01D02*
X133799D01*
G01Y351378D02*
Y355153D01*
G01X144261Y33761D02*
Y29986D01*
G01Y40892D02*
Y37117D01*
G01X149138Y163127D02*
X158484Y172473D01*
G01X149138Y163127D02*
X160434Y151832D01*
G01X147866Y163127D02*
X152479Y167740D01*
G01X147866Y163127D02*
X153036Y157957D01*
G01X148822Y170838D02*
X154828Y176843D01*
G01X143533Y188138D02*
X154828Y176843D01*
G01X148424Y198350D02*
X144745Y194671D01*
G01D02*
X142076Y197340D01*
G01X144800Y194726D02*
X142131Y197395D01*
G01X144800Y194726D02*
X141122Y191047D01*
G01X152014Y201999D02*
X149344Y204668D01*
G01X143361Y203371D02*
X140691Y206041D01*
G01X152082Y202008D02*
X149412Y204677D01*
G01X152082Y202008D02*
X148403Y198329D01*
G01D02*
X145734Y200998D01*
G01X143382Y203392D02*
X140712Y206062D01*
G01X148424Y198350D02*
X145754Y201019D01*
G01X150650Y210720D02*
X147980Y213390D01*
G01D02*
X144302Y209711D01*
G01X146971Y207041D02*
X144302Y209711D01*
G01X147040Y207050D02*
X144370Y209720D01*
G01D02*
X140691Y206041D01*
G01X158484Y172473D02*
X169779Y161178D01*
G01X155692Y205678D02*
X152014Y201999D01*
G01X155692Y205678D02*
X153023Y208347D01*
G01X157150Y221444D02*
X154480Y224113D01*
G01X161875Y231498D02*
X158196Y227819D01*
G01X160866Y225149D02*
X158196Y227819D01*
G01X160829Y225123D02*
X158159Y227792D01*
G01D02*
X154480Y224113D01*
G01X156701Y344247D02*
Y348022D01*
G01Y344247D02*
X151499D01*
G01D02*
Y348022D01*
G01X156701Y351378D02*
Y355153D01*
G01D02*
X151499D01*
G01Y351378D02*
Y355153D01*
G01X168701Y7647D02*
X163499D01*
G01D02*
Y11422D01*
G01X168701Y18553D02*
X163499D01*
G01Y14778D02*
Y18553D01*
G01Y23057D02*
Y19282D01*
G01D02*
X168701D01*
G01X163499Y30188D02*
Y26413D01*
G01Y30188D02*
X168701D01*
G01X165327Y140255D02*
X167996Y137585D01*
G01X165327Y140255D02*
X169005Y143933D01*
G01X163682Y150149D02*
X174963Y138868D01*
G01X160434Y151832D02*
X169779Y161178D01*
G01X165938Y173868D02*
X168607Y171198D01*
G01X165938Y173868D02*
X169616Y177546D01*
G01X169587Y223786D02*
X165908Y220107D01*
G01D02*
X163239Y222776D01*
G01X165871Y220080D02*
X163202Y222750D01*
G01X165871Y220080D02*
X162192Y216402D01*
G01D02*
X159523Y219071D01*
G01X165554Y235195D02*
X161875Y231516D01*
G01X164544Y228846D02*
X161875Y231516D01*
G01X169587Y223804D02*
X166917Y226473D01*
G01X164544Y228828D02*
X161875Y231498D01*
G01X169587Y223786D02*
X166917Y226455D01*
G01X168223Y232525D02*
X165554Y235195D01*
G01X168701Y7647D02*
Y11422D01*
G01Y14778D02*
Y18553D01*
G01Y23057D02*
Y19282D01*
G01Y30188D02*
Y26413D01*
G01X180607Y139755D02*
X175728Y134876D01*
G01D02*
X176550Y134053D01*
G01X170369Y135212D02*
X173039Y132543D01*
G01D02*
X176717Y136221D01*
G01X174048Y138891D02*
X176717Y136221D01*
G01X169005Y143933D02*
X171675Y141264D01*
G01X172263Y158731D02*
X183545Y147449D01*
G01X170980Y168825D02*
X173650Y166156D01*
G01D02*
X177329Y169834D01*
G01X174659Y172504D02*
X177329Y169834D01*
G01X169616Y177546D02*
X172286Y174877D01*
G01X180110Y234008D02*
X176432Y230330D01*
G01D02*
X173762Y232999D01*
G01X173266Y227482D02*
X170596Y230152D01*
G01X173266Y227482D02*
X169587Y223804D01*
G01X175053Y239080D02*
X172383Y241749D01*
G01X175068Y239051D02*
X172399Y241720D01*
G01D02*
X168720Y238042D01*
G01X171389Y235372D02*
X168720Y238042D01*
G01X178732Y242758D02*
X176062Y245428D01*
G01D02*
X172383Y241749D01*
G01X179718Y249134D02*
X176039Y245456D01*
G01X178709Y242786D02*
X176039Y245456D01*
G01X205155Y314974D02*
X173846D01*
G01Y319710D02*
Y314974D01*
G01X176234Y350714D02*
X176208Y340208D01*
G01X197296D02*
X176208D01*
G01X205155Y338802D02*
X173846D01*
G01D02*
Y334066D01*
G01X176289Y356411D02*
X176210Y366790D01*
G01X197300D02*
X176210D01*
G01X184650Y135711D02*
X179771Y130832D01*
G01X178949Y131655D02*
X179771Y130832D01*
G01X179481Y138628D02*
X183524Y134585D01*
G01X186474Y145978D02*
X183804Y148647D01*
G01X185110Y154699D02*
X182441Y157368D01*
G01D02*
X178762Y153690D01*
G01X181431Y151020D02*
X178762Y153690D01*
G01X183774Y237716D02*
X181105Y240386D01*
G01X183774Y237716D02*
X180095Y234037D01*
G01D02*
X177426Y236707D01*
G01X180110Y234008D02*
X177441Y236678D01*
G01X187430Y241422D02*
X183751Y237744D01*
G01D02*
X181082Y240413D01*
G01X186103Y250180D02*
X183433Y252849D01*
G01D02*
X179755Y249170D01*
G01X182424Y246501D02*
X179755Y249170D01*
G01X187466Y241459D02*
X184797Y244128D01*
G01X182388Y246465D02*
X179718Y249134D01*
G01X187430Y241422D02*
X184761Y244092D01*
G01X186022Y250162D02*
X183352Y252831D01*
G01X187031Y256510D02*
X183352Y252831D01*
G01X190152Y149656D02*
X187483Y152326D01*
G01X190152Y149656D02*
X186474Y145978D01*
G01X191145Y245137D02*
X187466Y241459D01*
G01X191145Y245137D02*
X188476Y247807D01*
G01X198499Y252509D02*
X194820Y248831D01*
G01D02*
X192151Y251500D01*
G01X194743Y248798D02*
X192074Y251468D01*
G01X194743Y248798D02*
X191064Y245119D01*
G01D02*
X188395Y247789D01*
G01X193456Y257552D02*
X190787Y260221D01*
G01D02*
X187108Y256543D01*
G01X189778Y253873D02*
X187108Y256543D01*
G01X189700Y253841D02*
X187031Y256510D01*
G01X213908Y91725D02*
X196772D01*
G01D02*
Y112503D01*
G01X213908D02*
X196772D01*
G01X197774Y129619D02*
Y125844D01*
G01D02*
X202976D01*
G01Y129619D02*
Y125844D01*
G01X203074Y129613D02*
Y125838D01*
G01D02*
X208276D01*
G01X197774Y136750D02*
Y132975D01*
G01Y136750D02*
X202976D01*
G01D02*
Y132975D01*
G01X203074Y136744D02*
Y132969D01*
G01Y136744D02*
X208276D01*
G01X198499Y252509D02*
X195829Y255179D01*
G01X197645Y338802D02*
Y314974D01*
G01X202792Y345705D02*
X197296Y340208D01*
G01X202792Y350800D02*
Y345705D01*
G01X202790Y361300D02*
X202738Y356200D01*
G01X202790Y361300D02*
X197300Y366790D01*
G01X208276Y129613D02*
Y125838D01*
G01X208374Y129607D02*
Y125832D01*
G01D02*
X213576D01*
G01X208276Y136744D02*
Y132969D01*
G01X208374Y136738D02*
Y132963D01*
G01Y136738D02*
X213576D01*
G01X210603Y148281D02*
X207934Y150951D01*
G01X215645Y143239D02*
X212976Y145908D01*
G01X214282Y151960D02*
X211612Y154629D01*
G01D02*
X207934Y150951D01*
G01X215417Y235235D02*
X211738Y238914D01*
G01D02*
X214408Y241583D01*
G01X212364Y345700D02*
X217854Y340210D01*
G01X212364Y345700D02*
X212416Y350800D01*
G01X212362Y356200D02*
Y361295D01*
G01D02*
X217858Y366792D01*
G01X213908Y91725D02*
Y112503D01*
G01X213576Y129607D02*
Y125832D01*
G01Y136738D02*
Y132963D01*
G01X219324Y146918D02*
X216655Y149587D01*
G01X219324Y146918D02*
X215645Y143239D01*
G01X219367Y162289D02*
X215689Y158610D01*
G01X218358Y155941D02*
X215689Y158610D01*
G01X223401Y150899D02*
X220731Y153568D01*
G01X222037Y159620D02*
X219367Y162289D01*
G01X219158Y231548D02*
X221828Y234218D01*
G01X219158Y231548D02*
X215480Y235227D01*
G01X220522Y240269D02*
X223191Y242939D01*
G01X215480Y235227D02*
X218149Y237896D01*
G01X220459Y240278D02*
X223129Y242947D01*
G01X215417Y235235D02*
X218086Y237904D01*
G01X223129Y242947D02*
X219450Y246626D01*
G01X216780Y243956D02*
X219450Y246626D01*
G01X217854Y340210D02*
X238944D01*
G01X217858Y366792D02*
X238946D01*
G01X228815Y161726D02*
X231484Y159056D01*
G01D02*
X235163Y162735D01*
G01X227079Y154577D02*
X224410Y157247D01*
G01X227079Y154577D02*
X223401Y150899D01*
G01X223772Y166768D02*
X226442Y164099D01*
G01X223772Y166768D02*
X227451Y170447D01*
G01D02*
X230121Y167777D01*
G01X227520Y170516D02*
X230190Y167846D01*
G01X231197Y174193D02*
X233867Y171523D01*
G01X231197Y174193D02*
X234876Y177871D01*
G01X227520Y170516D02*
X231199Y174194D01*
G01D02*
X233868Y171525D01*
G01X224201Y236591D02*
X226870Y239260D01*
G01D02*
X223191Y242939D01*
G01X229366Y263358D02*
X225688Y259679D01*
G01X228357Y257010D02*
X225688Y259679D01*
G01X233400Y251968D02*
X230730Y254637D01*
G01X232036Y260689D02*
X229366Y263358D01*
G01X239023Y42132D02*
X254977D01*
G01X239023Y54268D02*
X254977D01*
G01X239023Y61132D02*
X254977D01*
G01X239023Y73268D02*
X254977D01*
G01X232494Y165404D02*
X235163Y162735D01*
G01X236240Y169150D02*
X238909Y166481D01*
G01D02*
X242588Y170159D01*
G01X232563Y165473D02*
X235232Y162804D01*
G01D02*
X238911Y166482D01*
G01X236241Y169152D02*
X238911Y166482D01*
G01X239918Y172829D02*
X242588Y170159D01*
G01X234876Y177871D02*
X237545Y175202D01*
G01X238991Y246440D02*
X241660Y243771D01*
G01X233949Y251483D02*
X236618Y248813D01*
G01X233949Y251483D02*
X237627Y255161D01*
G01D02*
X240297Y252492D01*
G01X237078Y255646D02*
X234409Y258316D01*
G01X237078Y255646D02*
X233400Y251968D01*
G01X235362Y261902D02*
X247342D01*
G01X235362Y281794D02*
Y261902D01*
G01Y281794D02*
X247342D01*
G01X238865Y350589D02*
X238944Y340210D01*
G01X238920Y356286D02*
X238946Y366792D01*
G01X241660Y243771D02*
X245339Y247449D01*
G01X242670Y250119D02*
X245339Y247449D01*
G01X247342Y281794D02*
Y261902D01*
G01X247021Y341425D02*
Y345200D01*
G01X241818Y341425D02*
Y345200D01*
G01X247021Y334294D02*
Y338069D01*
G01Y334294D02*
X241818D01*
G01D02*
Y338069D01*
G01X247018Y341425D02*
Y345200D01*
G01X252221Y334294D02*
X247018D01*
G01D02*
Y338069D01*
G01X247021Y345200D02*
X241818D01*
G01X252221D02*
X247018D01*
G01X257222Y188481D02*
X259892Y185812D01*
G01X252180Y193524D02*
X254849Y190854D01*
G01X252180Y193524D02*
X255859Y197202D01*
G01D02*
X258528Y194533D01*
G01X256299Y197640D02*
X258968Y194971D01*
G01X256299Y197640D02*
X259977Y201319D01*
G01X252221Y341425D02*
Y345200D01*
G01Y334294D02*
Y338069D01*
G01X257421Y341425D02*
Y345200D01*
G01X252218Y341425D02*
Y345200D01*
G01X257421Y334294D02*
Y338069D01*
G01Y334294D02*
X252218D01*
G01D02*
Y338069D01*
G01X258035Y333546D02*
Y345526D01*
G01Y333546D02*
X277927D01*
G01X257421Y345200D02*
X252218D01*
G01X258035Y345526D02*
X277927D01*
G01X263823Y41732D02*
X279777D01*
G01X263823Y53868D02*
X279777D01*
G01X263623Y60932D02*
X279577D01*
G01X263623Y73068D02*
X279577D01*
G01X259892Y185812D02*
X263571Y189490D01*
G01X260901Y192160D02*
X263571Y189490D01*
G01X261341Y192598D02*
X264010Y189928D01*
G01D02*
X267689Y193607D01*
G01X265020Y196277D02*
X267689Y193607D01*
G01X265445Y196696D02*
X268115Y194027D01*
G01X259977Y201319D02*
X262647Y198650D01*
G01X260403Y201739D02*
X263072Y199070D01*
G01X260403Y201739D02*
X264082Y205418D01*
G01D02*
X266751Y202748D01*
G01X262171Y359872D02*
Y354813D01*
G01D02*
X269393D01*
G01X262171Y368680D02*
Y363621D01*
G01Y368680D02*
X269393D01*
G01X268115Y194027D02*
X271794Y197706D01*
G01X269124Y200375D02*
X271794Y197706D01*
G01X269393Y359872D02*
Y354813D01*
G01Y368680D02*
Y363621D01*
G01X284200Y115341D02*
X283593Y115936D01*
G01Y119937D02*
Y115936D01*
G01X284200Y120459D02*
X283593Y119937D01*
G01Y121735D02*
X284200Y121136D01*
G01X283593Y121735D02*
Y125737D01*
G01X284300Y129641D02*
X283693Y130236D01*
G01Y134237D02*
Y130236D01*
G01X283593Y125737D02*
X284200Y126259D01*
G01X284300Y134759D02*
X283693Y134237D01*
G01X277927Y333546D02*
Y345526D01*
G01X289823Y343220D02*
X282601D01*
G01D02*
Y348279D01*
G01X289823Y357088D02*
X282601D01*
G01Y352029D02*
Y357088D01*
G01X287892Y64513D02*
X301109D01*
G01X287892Y80487D02*
Y64513D01*
G01X286992Y81387D02*
Y74075D01*
G01X287892Y80487D02*
X301109D01*
G01X286992Y81387D02*
X293516D01*
G01X294807Y119865D02*
X294200Y120464D01*
G01X294807Y119865D02*
Y115863D01*
G01D02*
X294200Y115341D01*
G01X294807Y121663D02*
Y125664D01*
G01X294200Y121141D02*
X294807Y121663D01*
G01X294907Y134165D02*
Y130163D01*
G01D02*
X294300Y129641D01*
G01X294200Y126259D02*
X294807Y125664D01*
G01X294907Y134165D02*
X294300Y134764D01*
G01X301276Y332204D02*
X290897Y332125D01*
G01Y353215D02*
Y332125D01*
G01X289823Y343220D02*
Y348279D01*
G01X296387Y358705D02*
X290897Y353215D01*
G01X289823Y352029D02*
Y357088D01*
G01X301109Y80487D02*
Y64513D01*
G01X303147Y91701D02*
Y86499D01*
G01X306922D02*
X303147D01*
G01Y97601D02*
Y92399D01*
G01X306922D02*
X303147D01*
G01X306922Y91701D02*
X303147D01*
G01X306922Y97601D02*
X303147D01*
G01X302911Y126266D02*
Y131325D01*
G01Y126266D02*
X295689D01*
G01D02*
Y131325D01*
G01X302911Y135075D02*
Y140134D01*
G01D02*
X295689D01*
G01Y135075D02*
Y140134D01*
G01X296387Y358705D02*
X301487Y358653D01*
G01X307299Y68522D02*
Y64747D01*
G01D02*
X312501D01*
G01Y68522D02*
Y64747D01*
G01X307299Y75653D02*
Y71878D01*
G01Y75653D02*
X312501D01*
G01D02*
Y71878D01*
G01X314053Y86499D02*
X310278D01*
G01X314053Y92399D02*
X310278D01*
G01X314053Y91701D02*
X310278D01*
G01X314053Y97601D02*
X310278D01*
G01X306973Y332149D02*
X317479Y332123D01*
G01X311982Y358707D02*
X317479Y353211D01*
G01X306887Y358707D02*
X311982D01*
G01X318048Y31556D02*
X319499D01*
G01X315289D02*
X316740D01*
G01X319499D02*
G03X320099Y32156I0J600D01*
G01X314689D02*
G03X315289Y31556I600J0D01*
G01X318048Y34632D02*
X319499D01*
G01X320099Y32156D02*
Y34032D01*
G01X315289Y34632D02*
X316740D01*
G01X314689Y32156D02*
Y34032D01*
G01X320099D02*
G03X319499Y34632I-600J0D01*
G01X315289D02*
G03X314689Y34032I0J-600D01*
G01X318158Y40056D02*
X319609D01*
G01X320209Y40656D02*
Y42532D01*
G01X315399Y40056D02*
X316850D01*
G01X314799Y40656D02*
Y42532D01*
G01X319609Y40056D02*
G03X320209Y40656I0J600D01*
G01X314799D02*
G03X315399Y40056I600J0D01*
G01X320038Y37954D02*
Y39405D01*
G01D02*
X319438Y40005D01*
G01D02*
X317562D01*
G01X316962Y39405D02*
X317562Y40005D01*
G01X316962Y37954D02*
Y39405D01*
G01X320038Y35195D02*
Y36646D01*
G01X319438Y34595D02*
X320038Y35195D01*
G01X319438Y34595D02*
X317562D01*
G01D02*
X316962Y35195D01*
G01D02*
Y36646D01*
G01X318158Y43132D02*
X319609D01*
G01X315399D02*
X316850D01*
G01X320209Y42532D02*
G03X319609Y43132I-600J0D01*
G01X315399D02*
G03X314799Y42532I0J-600D01*
G01X317062Y46454D02*
Y47905D01*
G01X320138Y46454D02*
Y47905D01*
G01X319538Y48505D02*
X317662D01*
G01X317062Y43695D02*
Y45146D01*
G01X320138Y43695D02*
Y45146D01*
G01X319538Y43095D02*
X317662D01*
G01X320138Y47905D02*
G03X319538Y48505I-600J0D01*
G01X317662D02*
G03X317062Y47905I0J-600D01*
G01X319538Y43095D02*
G03X320138Y43695I0J600D01*
G01X317062D02*
G03X317662Y43095I600J0D01*
G01X314704Y50961D02*
Y49085D01*
G01X315304Y48485D02*
X314704Y49085D01*
G01X316755Y48485D02*
X315304D01*
G01X320114Y50961D02*
Y49085D01*
G01D02*
X319514Y48485D01*
G01D02*
X318063D01*
G01X318068Y54632D02*
X319519D01*
G01X318068Y51556D02*
X319519D01*
G01X320119Y52156D02*
Y54032D01*
G01X315309Y54632D02*
X316760D01*
G01X315309Y51556D02*
X316760D01*
G01X314709Y52156D02*
Y54032D01*
G01X319519Y51556D02*
G03X320119Y52156I0J600D01*
G01Y54032D02*
G03X319519Y54632I-600J0D01*
G01X314709Y52156D02*
G03X315309Y51556I600J0D01*
G01Y54632D02*
G03X314709Y54032I0J-600D01*
G01X316755Y51561D02*
X315304D01*
G01D02*
X314704Y50961D01*
G01X319514Y51561D02*
X318063D01*
G01X320114Y50961D02*
X319514Y51561D01*
G01X320187Y58065D02*
Y59516D01*
G01X317111Y58065D02*
Y59516D01*
G01X320187Y55306D02*
Y56757D01*
G01X319587Y54706D02*
X320187Y55306D01*
G01X319587Y54706D02*
X317711D01*
G01D02*
X317111Y55306D01*
G01D02*
Y56757D01*
G01X317572Y64957D02*
X315557D01*
G01D02*
Y66972D01*
G01X318278Y63132D02*
X319729D01*
G01X318278Y60056D02*
X319729D01*
G01X320329Y60656D02*
Y62532D01*
G01X315519Y63132D02*
X316970D01*
G01X315519Y60056D02*
X316970D01*
G01X314919Y60656D02*
Y62532D01*
G01X319729Y60056D02*
G03X320329Y60656I0J600D01*
G01Y62532D02*
G03X319729Y63132I-600J0D01*
G01X314919Y60656D02*
G03X315519Y60056I600J0D01*
G01Y63132D02*
G03X314919Y62532I0J-600D01*
G01X320187Y59516D02*
X319587Y60116D01*
G01D02*
X317711D01*
G01X317111Y59516D02*
X317711Y60116D01*
G01X314053Y91701D02*
Y86499D01*
G01X317572Y85242D02*
X315557D01*
G01Y83227D02*
Y85242D01*
G01X314053Y97601D02*
Y92399D01*
G01X325401Y90447D02*
X320199D01*
G01D02*
Y94222D01*
G01X320101Y90447D02*
Y94222D01*
G01Y90447D02*
X314899D01*
G01D02*
Y94222D01*
G01X325401Y101353D02*
X320199D01*
G01Y97578D02*
Y101353D01*
G01X320101Y97578D02*
Y101353D01*
G01D02*
X314899D01*
G01Y97578D02*
Y101353D01*
G01X317479Y353211D02*
Y332123D01*
G01X336101Y90447D02*
X330899D01*
G01D02*
Y94222D01*
G01X325401Y90447D02*
Y94222D01*
G01X330601Y90447D02*
Y94222D01*
G01Y90447D02*
X325399D01*
G01D02*
Y94222D01*
G01X336101Y101353D02*
X330899D01*
G01Y97578D02*
Y101353D01*
G01X325401Y97578D02*
Y101353D01*
G01X330601Y97578D02*
Y101353D01*
G01D02*
X325399D01*
G01Y97578D02*
Y101353D01*
G01X339968Y103911D02*
X322832D01*
G01D02*
Y124689D01*
G01X339968D02*
X322832D01*
G01X330749Y144527D02*
X330723Y134021D01*
G01X351811D02*
X330723D01*
G01X330804Y150224D02*
X330725Y160603D01*
G01X351815D02*
X330725D01*
G01X330649Y222727D02*
X330623Y212221D01*
G01X351711D02*
X330623D01*
G01X330704Y228424D02*
X330625Y238803D01*
G01X351715D02*
X330625D01*
G01X330549Y299827D02*
X330523Y289321D01*
G01X351611D02*
X330523D01*
G01X330604Y305524D02*
X330525Y315903D01*
G01X351615D02*
X330525D01*
G01X335843Y64957D02*
X333828D01*
G01X335843D02*
Y66972D01*
G01X339047Y70199D02*
X342822D01*
G01X339047D02*
Y75401D01*
G01D02*
X342822D01*
G01X335843Y85242D02*
X333828D01*
G01X335843Y83227D02*
Y85242D01*
G01X336101Y90447D02*
Y94222D01*
G01X341288Y90447D02*
X336086D01*
G01D02*
Y94222D01*
G01X336101Y97578D02*
Y101353D01*
G01X341288D02*
X336086D01*
G01Y97578D02*
Y101353D01*
G01X339968Y103911D02*
Y124689D01*
G01X332146Y173573D02*
X344126D01*
G01X332146Y193465D02*
Y173573D01*
G01X340025Y194079D02*
X343800D01*
G01X332894D02*
X336669D01*
G01X332894D02*
Y199282D01*
G01X332146Y193465D02*
X344126D01*
G01X340025Y204479D02*
X343800D01*
G01X332894D02*
X336669D01*
G01X332894D02*
Y209682D01*
G01X340025Y199279D02*
X343800D01*
G01X340025Y204482D02*
X343800D01*
G01X332894Y199279D02*
X336669D01*
G01X332894D02*
Y204482D01*
G01D02*
X336669D01*
G01X340025Y199282D02*
X343800D01*
G01X332894D02*
X336669D01*
G01X340025Y209682D02*
X343800D01*
G01X332894D02*
X336669D01*
G01X332046Y251773D02*
X344026D01*
G01X332046Y271665D02*
Y251773D01*
G01X339714Y277279D02*
X343489D01*
G01X332583D02*
X336358D01*
G01X332583D02*
Y282482D01*
G01X339714Y272079D02*
X343489D01*
G01X339714Y277282D02*
X343489D01*
G01X332583Y272079D02*
X336358D01*
G01X332583D02*
Y277282D01*
G01D02*
X336358D01*
G01X332046Y271665D02*
X344026D01*
G01X339714Y282479D02*
X343489D01*
G01X332583D02*
X336358D01*
G01X332583D02*
Y287682D01*
G01X339714Y282482D02*
X343489D01*
G01X332583D02*
X336358D01*
G01X339714Y287682D02*
X343489D01*
G01X332583D02*
X336358D01*
G01X331946Y328873D02*
X343926D01*
G01X331946Y348765D02*
Y328873D01*
G01X339825Y349299D02*
X343600D01*
G01X332694D02*
X336469D01*
G01X332694D02*
Y354501D01*
G01X331946Y348765D02*
X343926D01*
G01X339825Y359779D02*
X343600D01*
G01X332694D02*
X336469D01*
G01X332694D02*
Y364982D01*
G01X339825Y354579D02*
X343600D01*
G01X339825Y359782D02*
X343600D01*
G01X332694Y354579D02*
X336469D01*
G01X332694D02*
Y359782D01*
G01D02*
X336469D01*
G01X339825Y354501D02*
X343600D01*
G01X332694D02*
X336469D01*
G01X339825Y364982D02*
X343600D01*
G01X332694D02*
X336469D01*
G01X346178Y70199D02*
X349953D01*
G01X346178Y75401D02*
X349953D01*
G01X351801Y90447D02*
X346599D01*
G01D02*
Y94222D01*
G01X346501Y90447D02*
Y94222D01*
G01Y90447D02*
X341299D01*
G01D02*
Y94222D01*
G01X341288Y90447D02*
Y94222D01*
G01X351801Y101353D02*
X346599D01*
G01Y97578D02*
Y101353D01*
G01X346501Y97578D02*
Y101353D01*
G01D02*
X341299D01*
G01Y97578D02*
Y101353D01*
G01X341288Y97578D02*
Y101353D01*
G01X341820Y161677D02*
X346879D01*
G01X341820D02*
Y168899D01*
G01D02*
X346879D01*
G01X344126Y193465D02*
Y173573D01*
G01X343800Y194079D02*
Y199282D01*
G01Y204479D02*
Y209682D01*
G01Y199279D02*
Y204482D01*
G01X341720Y239877D02*
X346779D01*
G01X341720D02*
Y247099D01*
G01D02*
X346779D01*
G01X344026Y271665D02*
Y251773D01*
G01X343489Y277279D02*
Y282482D01*
G01Y272079D02*
Y277282D01*
G01Y282479D02*
Y287682D01*
G01X341620Y316977D02*
X346679D01*
G01X341620D02*
Y324199D01*
G01D02*
X346679D01*
G01X343926Y348765D02*
Y328873D01*
G01X343600Y349299D02*
Y354501D01*
G01Y359779D02*
Y364982D01*
G01Y354579D02*
Y359782D01*
G01X346543Y371220D02*
Y365669D01*
G01X347142Y365069D02*
X353057D01*
G01X346542Y365669D02*
G03X347142Y365069I600J0D01*
G01X346543Y379931D02*
Y374380D01*
G01X347142Y380531D02*
X353057D01*
G01X347142D02*
G03X346542Y379931I0J-600D01*
G01X357347Y68596D02*
Y63393D01*
G01X361122D02*
X357347D01*
G01X349953Y70199D02*
Y75401D01*
G01X361122Y68596D02*
X357347D01*
G01X351801Y90447D02*
Y94222D01*
G01Y97578D02*
Y101353D01*
G01X357307Y139518D02*
X351811Y134021D01*
G01X357307Y144613D02*
Y139518D01*
G01X357305Y155113D02*
X357253Y150013D01*
G01X357305Y155113D02*
X351815Y160603D01*
G01X350629Y161677D02*
X355688D01*
G01D02*
Y168899D01*
G01X350629D02*
X355688D01*
G01X353413Y189329D02*
Y182107D01*
G01X358472D02*
X353413D01*
G01X358472Y189329D02*
X353413D01*
G01X357207Y217718D02*
X351711Y212221D01*
G01X357207Y222813D02*
Y217718D01*
G01X357205Y233313D02*
X357153Y228213D01*
G01X357205Y233313D02*
X351715Y238803D01*
G01X350529Y239877D02*
X355588D01*
G01D02*
Y247099D01*
G01X350529D02*
X355588D01*
G01X358372Y267529D02*
X353313D01*
G01D02*
Y260307D01*
G01X358372D02*
X353313D01*
G01X357107Y294818D02*
X351611Y289321D01*
G01X357107Y299913D02*
Y294818D01*
G01X357105Y310413D02*
X351615Y315903D01*
G01X357105Y310413D02*
X357053Y305313D01*
G01X350429Y316977D02*
X355488D01*
G01D02*
Y324199D01*
G01X350429D02*
X355488D01*
G01X353213Y344629D02*
Y337407D01*
G01X358272D02*
X353213D01*
G01X358272Y344629D02*
X353213D01*
G01X353657Y371220D02*
Y365669D01*
G01X353057Y365069D02*
G03X353657Y365669I0J600D01*
G01X354289Y370925D02*
Y365866D01*
G01D02*
X361511D01*
G01X353657Y379931D02*
Y374380D01*
G01X354289Y379734D02*
Y374675D01*
G01X353657Y379931D02*
G03X353057Y380531I-600J0D01*
G01X354289Y379734D02*
X361511D01*
G01X373620Y33243D02*
X368069D01*
G01X373620Y40357D02*
X368069D01*
G01X367469Y39758D02*
Y33843D01*
G01X368069Y40358D02*
G03X367469Y39758I0J-600D01*
G01Y33843D02*
G03X368069Y33243I600J0D01*
G01X359150Y56735D02*
X366050D01*
G01D02*
Y57898D01*
G01X360743Y56735D02*
Y62453D01*
G01X359150D02*
X366050D01*
G01Y61290D02*
Y62453D01*
G01X368253Y63393D02*
X364478D01*
G01X368253Y68596D02*
X364478D01*
G01X367280Y189329D02*
Y182107D01*
G01D02*
X362221D01*
G01X367280Y189329D02*
X362221D01*
G01X367180Y267529D02*
X362121D01*
G01X367180D02*
Y260307D01*
G01D02*
X362121D01*
G01X367080Y344629D02*
Y337407D01*
G01D02*
X362021D01*
G01X367080Y344629D02*
X362021D01*
G01X361511Y370925D02*
Y365866D01*
G01Y379734D02*
Y374675D01*
G01X368266Y32611D02*
Y25389D01*
G01X373325D02*
X368266D01*
G01X382134D02*
X377075D01*
G01X382331Y33243D02*
X376780D01*
G01X382331Y40357D02*
X376780D01*
G01X373325Y32611D02*
X368266D01*
G01X382134D02*
X377075D01*
G01X368253Y68596D02*
Y63393D01*
G01X373789Y91220D02*
Y86160D01*
G01D02*
X381011D01*
G01X373789Y100028D02*
Y94969D01*
G01Y100028D02*
X381011D01*
G01X382134Y32611D02*
Y25389D01*
G01X382931Y39758D02*
Y33843D01*
G01Y39758D02*
G03X382331Y40358I-600J0D01*
G01Y33243D02*
G03X382931Y33843I0J600D01*
G01X381843Y91514D02*
Y85963D01*
G01X382442Y85363D02*
X388357D01*
G01X381842Y85963D02*
G03X382442Y85363I600J0D01*
G01X381011Y91220D02*
Y86160D01*
G01X381843Y100226D02*
Y94674D01*
G01X381011Y100028D02*
Y94969D01*
G01X382442Y100826D02*
X388357D01*
G01X382442D02*
G03X381842Y100226I0J-600D01*
G01X388957Y91514D02*
Y85963D01*
G01X388357Y85363D02*
G03X388957Y85963I0J600D01*
G01Y100226D02*
Y94674D01*
G01Y100226D02*
G03X388357Y100826I-600J0D01*
G54D21*
G01X45050Y55139D02*
G03I-590J0D01*
G01X159471Y196600D02*
G03X159478Y196593I-417J-418D01*
G54D12*
G01X322600Y134850D02*
X310000D01*
G01X322500Y141150D02*
X310100D01*
G01X317574D02*
X317559Y134850D01*
G54D22*
G01X171661Y199697D02*
G03X171675Y199682I-828J-842D01*
G54D13*
G01X39194Y327300D02*
G03I-394J0D01*
G01X55519Y50239D02*
G03I-394J0D01*
G01X115013Y24996D02*
X111108D01*
G01X107532D02*
X106958D01*
G01D02*
Y32082D01*
G01X111272D02*
X111108D01*
G01X107532D02*
X106958D01*
G01X119163Y24996D02*
X118589D01*
G01X119163D02*
Y32082D01*
G01D02*
X118589D01*
G01X115013D02*
X114848D01*
G54D14*
G01X259658Y3826D02*
G03I-472J0D01*
G54D15*
G01X319106Y63102D02*
G03I-493J0D01*
G54D16*
G01X165261Y198862D02*
X200059Y233660D01*
G01X165261Y198862D02*
X200059Y164064D01*
G01D02*
X234857Y198862D01*
G01X200059Y233660D02*
X234857Y198862D01*
G54D17*
G01X51992Y150059D02*
X48992D01*
G01X51992Y144941D02*
X48992D01*
G01X59008D02*
X56008D01*
G01X59008Y150059D02*
X56008D01*
G01X118301Y45431D02*
Y42431D01*
G01Y52447D02*
Y49447D01*
G01X123419Y52447D02*
Y49447D01*
G01Y45431D02*
Y42431D01*
G01X163682Y150149D02*
X164882Y151349D01*
G01X174963Y138868D02*
X176163Y140068D01*
G01X171063Y157531D02*
X172263Y158731D01*
G01X182344Y146249D02*
X183545Y147449D01*
G01X239023Y42132D02*
Y43829D01*
G01Y52571D02*
Y54268D01*
G01Y61132D02*
Y62829D01*
G01Y71571D02*
Y73268D01*
G01X257612Y2054D02*
X246588D01*
G01D02*
Y16424D01*
G01X257612D02*
X246588D01*
G01X257612Y2251D02*
Y16424D01*
G01X254977Y42132D02*
Y43829D01*
G01Y52571D02*
Y54268D01*
G01Y61132D02*
Y62829D01*
G01Y71571D02*
Y73268D01*
G01X263823Y41732D02*
Y43429D01*
G01Y52171D02*
Y53868D01*
G01X263623Y60932D02*
Y62629D01*
G01Y71371D02*
Y73068D01*
G01X279777Y41732D02*
Y43429D01*
G01Y52171D02*
Y53868D01*
G01X279577Y60932D02*
Y62629D01*
G01Y71371D02*
Y73068D01*
G01X287192Y120459D02*
X284192D01*
G01X287192Y115341D02*
X284192D01*
G01X284192Y121141D02*
X287192D01*
G01X287292Y129641D02*
X284292D01*
G01X284192Y126259D02*
X287192D01*
G01X287292Y134759D02*
X284292D01*
G01X294208Y115341D02*
X291208D01*
G01X294208Y120459D02*
X291208D01*
G01Y121141D02*
X294208D01*
G01X294308Y129641D02*
X291308D01*
G01X291208Y126259D02*
X294208D01*
G01X294308Y134759D02*
X291308D01*
G54D18*
G01X137931Y27513D02*
X137892D01*
G01X139231Y26213D02*
X137931Y27513D01*
G01X137892Y24875D02*
Y24835D01*
G01X139231Y26213D02*
X137892Y24875D01*
G01Y27513D02*
Y24835D01*
G01X137813Y23260D02*
X133286D01*
G01X137813Y29166D02*
X133286D01*
G01Y29087D02*
Y23261D01*
G01X143444Y29175D02*
X139309D01*
G01X143444Y23269D02*
X139309D01*
G01X139231Y26213D02*
X137892D01*
G01X144625Y27994D02*
Y27600D01*
G01Y27994D02*
X143444Y29175D01*
G01X144625Y27600D02*
Y24845D01*
G01D02*
Y24450D01*
G01D02*
X143444Y23269D01*
G01X233006Y241227D02*
X229805Y238026D01*
G01X229861Y237970D02*
X233980Y233850D01*
G01X242313Y231867D02*
X239112Y228665D01*
G01X239168Y228609D02*
X243287Y224490D01*
G01X241800Y232335D02*
X238599Y229134D01*
G01X234479Y233254D02*
X238598Y229135D01*
G01X238876Y235426D02*
X238849Y235398D01*
G01X240715Y235426D02*
X238876D01*
G01X238849Y235398D02*
X240742Y233505D01*
G01X237624Y236512D02*
X234423Y233310D01*
G01X241599Y240499D02*
X238675Y237575D01*
G01X240715Y235426D02*
X239768Y234479D01*
G01X234258Y240141D02*
X234230Y240114D01*
G01X236097Y240141D02*
X234258D01*
G01X236096Y238248D02*
X236124Y238220D01*
G01X236097Y240141D02*
X236096Y238248D01*
G01X234230Y240114D02*
X236124Y238220D01*
G01X237182Y237051D02*
X233981Y233850D01*
G01X241157Y241039D02*
X238233Y238115D01*
G01X236097Y240141D02*
X235150Y239195D01*
G01X236981Y245215D02*
X234057Y242291D01*
G01X238651Y245215D02*
X238930Y244936D01*
G01X238651Y245215D02*
X236981Y245215D01*
G01X238930Y244936D02*
X240878Y242988D01*
G01X251021Y223086D02*
X247820Y219885D01*
G01X243699Y224005D02*
X247819Y219885D01*
G01X243565Y230781D02*
X243537Y230753D01*
G01X245403Y230781D02*
X243565D01*
G01X245403Y228888D02*
X245431Y228860D01*
G01X245403Y230781D02*
X245403Y228888D01*
G01X243537Y230753D02*
X245431Y228860D01*
G01X246489Y227690D02*
X243288Y224489D01*
G01X250464Y231678D02*
X247540Y228754D01*
G01X245403Y230781D02*
X244457Y229834D01*
G01X248097Y226176D02*
X248069Y226149D01*
G01X249935Y226176D02*
X248097D01*
G01X248069Y226149D02*
X249963Y224255D01*
G01X246844Y227262D02*
X243643Y224061D01*
G01X250820Y231250D02*
X247896Y228326D01*
G01X249935Y226176D02*
X248988Y225230D01*
G01X246288Y235854D02*
X243364Y232930D01*
G01X247958Y235855D02*
X248237Y235576D01*
G01X247958Y235855D02*
X246288Y235854D01*
G01X248237Y235576D02*
X250185Y233628D01*
G01X240714Y233533D02*
X240742Y233505D01*
G01X240715Y235426D02*
X240714Y233533D01*
G01X243269Y240499D02*
X243548Y240221D01*
G01X243269Y240499D02*
X241599Y240499D01*
G01X243548Y240221D02*
X245496Y238273D01*
G01D02*
X245776Y237993D01*
G01D02*
Y236323D01*
G01D02*
X242852Y233399D01*
G01X241157Y242709D02*
Y241039D01*
G01X240878Y242988D02*
X241157Y242709D01*
G01X250464Y233348D02*
Y231678D01*
G01X249934Y224283D02*
X249963Y224255D01*
G01X249935Y226176D02*
X249934Y224283D01*
G01X252490Y231250D02*
X252768Y230972D01*
G01X252490Y231250D02*
X250820Y231250D01*
G01X252768Y230972D02*
X254717Y229023D01*
G01D02*
X254996Y228744D01*
G01D02*
Y227074D01*
G01D02*
X252072Y224150D01*
G01X250185Y233628D02*
X250464Y233348D01*
G54D19*
G01X-5353Y150916D02*
Y115483D01*
G01D02*
X2389D01*
G01X-5353Y150916D02*
X2389D01*
G01X-9008Y155257D02*
X-1134D01*
G01X-9008D02*
Y174942D01*
G01D02*
X-1134D01*
G01X23650Y13650D02*
G03I-10500J0D01*
G01X-5053Y111616D02*
Y76183D01*
G01D02*
X2689D01*
G01X-5053Y111616D02*
X2689D01*
G01X-1133Y153288D02*
X40672D01*
G01X-1133D02*
Y176911D01*
G01D02*
X7601D01*
G01X3436Y237599D02*
Y212402D01*
G01X-4438Y225001D02*
Y219882D01*
G01D02*
X3436D01*
G01X-4438Y225001D02*
X3436D01*
G01X346Y257274D02*
X1837D01*
G01X346Y296644D02*
Y257274D01*
G01Y296644D02*
X1837D01*
G01X1400Y336166D02*
Y322800D01*
G01X6150Y6150D02*
X20650Y20650D01*
G01X20150Y6150D02*
X5650Y20650D01*
G01X12497Y40706D02*
X9347D01*
G01X8127Y41926D02*
G03X9347Y40706I1220J0D01*
G01X12497Y46295D02*
X9347D01*
G01X8128Y45076D02*
Y41926D01*
G01X9347Y46295D02*
G03X8127Y45076I-1J-1219D01*
G01X12870Y115483D02*
X15316D01*
G01X12870Y150916D02*
X15316D01*
G01X6932Y212008D02*
X10569D01*
G01X6932Y237993D02*
X10569D01*
G01X12228Y317981D02*
X17900D01*
G01X10774Y341381D02*
X7624D01*
G01X10774D02*
G03X11994Y342601I0J1220D01*
G01X6404D02*
G03X7624Y341381I1220J0D01*
G01X12400Y340379D02*
X17900D01*
G01X11994Y342600D02*
Y345750D01*
G01X11995Y347956D02*
Y351106D01*
G01X6404Y342600D02*
Y345750D01*
G01X6406Y347956D02*
Y351106D01*
G01X10776Y352325D02*
X7626D01*
G01Y352326D02*
G03X6406Y351106I0J-1220D01*
G01X11995D02*
G03X10776Y352326I-1219J1D01*
G01X7250Y366750D02*
X21750Y381250D01*
G01X25250Y373750D02*
G03I-10500J0D01*
G01X7250Y380750D02*
X21750Y366250D01*
G01X17853Y40704D02*
X14703D01*
G01X17852D02*
G03X19072Y41924I0J1220D01*
G01X17853Y46294D02*
X14703D01*
G01X19072Y45074D02*
Y41924D01*
G01Y45074D02*
G03X17852Y46294I-1220J0D01*
G01X13170Y76183D02*
X15616D01*
G01Y86494D02*
Y76183D01*
G01Y94368D02*
Y93432D01*
G01Y90431D02*
Y89495D01*
G01Y111616D02*
Y101306D01*
G01Y98305D02*
Y97369D01*
G01X13170Y111616D02*
X15616D01*
G01X15316Y125794D02*
Y115483D01*
G01Y129731D02*
Y128795D01*
G01Y150916D02*
Y140606D01*
G01Y137605D02*
Y136669D01*
G01Y133668D02*
Y132732D01*
G01X15327Y176911D02*
X19412D01*
G01X16105Y206697D02*
Y203547D01*
G01X21694Y206697D02*
Y203547D01*
G01X17324Y202328D02*
X20474D01*
G01Y202327D02*
G03X21694Y203547I0J1220D01*
G01X16105D02*
G03X17324Y202327I1219J-1D01*
G01X16106Y212053D02*
Y208903D01*
G01X21696Y212053D02*
Y208903D01*
G01X17326Y213272D02*
X20476D01*
G01X17326D02*
G03X16106Y212052I0J-1220D01*
G01X21696D02*
G03X20476Y213272I-1220J0D01*
G01X14066Y219457D02*
Y218733D01*
G01Y231268D02*
Y224639D01*
G01X19637Y265617D02*
Y257274D01*
G01X14680D02*
X19637D01*
G01Y269554D02*
Y268618D01*
G01Y273491D02*
Y272555D01*
G01Y277428D02*
Y276492D01*
G01Y281364D02*
Y280429D01*
G01Y285301D02*
Y284365D01*
G01Y296644D02*
Y288302D01*
G01X14680Y296644D02*
X19637D01*
G01X17900Y324508D02*
Y317981D01*
G01Y329670D02*
Y328930D01*
G01X17474Y341381D02*
X14324D01*
G01X17474D02*
G03X18694Y342601I0J1220D01*
G01X13104D02*
G03X14324Y341381I1220J0D01*
G01X17900Y340379D02*
Y333852D01*
G01X21401Y334879D02*
G03I-500J0D01*
G01X18694Y342600D02*
Y345750D01*
G01X18695Y347956D02*
Y351106D01*
G01X13104Y342600D02*
Y345750D01*
G01X13106Y347956D02*
Y351106D01*
G01X17476Y352325D02*
X14326D01*
G01Y352326D02*
G03X13106Y351106I0J-1220D01*
G01X18695D02*
G03X17476Y352326I-1219J1D01*
G01X27118Y57035D02*
Y45304D01*
G01X46803D02*
X27118D01*
G01X46803Y57035D02*
X27118D01*
G01X33243Y87798D02*
X26157D01*
G01X33243Y100003D02*
X26157D01*
G01X24701Y100400D02*
G03I-500J0D01*
G01X32943Y127098D02*
X25857D01*
G01X32943Y139303D02*
X25857D01*
G01X24401Y139700D02*
G03I-500J0D01*
G01X27138Y176911D02*
X35160D01*
G01X37743Y264498D02*
X30657D01*
G01X37743Y277698D02*
X30657D01*
G01X37743Y276703D02*
X30657D01*
G01X29201Y277100D02*
G03I-500J0D01*
G01X37743Y289903D02*
X30657D01*
G01X29201Y290300D02*
G03I-500J0D01*
G01X27026Y323197D02*
X34112D01*
G01X27026Y335402D02*
X34112D01*
G01X37444Y-847D02*
Y5526D01*
G01Y-847D02*
X72877D01*
G01X37444Y13251D02*
Y21077D01*
G01X33305Y235597D02*
Y232447D01*
G01X38894Y235597D02*
Y232447D01*
G01X34524Y231228D02*
X37674D01*
G01Y231227D02*
G03X38894Y232447I0J1220D01*
G01X33305D02*
G03X34524Y231227I1219J-1D01*
G01X33306Y240953D02*
Y237803D01*
G01X38896Y240953D02*
Y237803D01*
G01X34526Y242172D02*
G03X33306Y240952I0J-1220D01*
G01X38896D02*
G03X37676Y242172I-1220J0D01*
G01X34526D02*
X37676D01*
G01X36569Y322800D02*
G03I-500J0D01*
G01X46923Y37296D02*
Y44382D01*
G01X46800Y48639D02*
Y45304D01*
G01X46803Y53639D02*
G03X46800Y48639I-2J-2500D01*
G01X46803Y57035D02*
Y53639D01*
G01X48240Y160353D02*
Y157203D01*
G01X48239Y154997D02*
Y151847D01*
G01X49458Y150628D02*
X52608D01*
G01X48239Y151847D02*
G03X49458Y150627I1219J-1D01*
G01X46504Y158136D02*
Y176911D01*
G01X49460Y161572D02*
X52610D01*
G01X49460D02*
G03X48240Y160352I0J-1220D01*
G01X47205Y178602D02*
Y175452D01*
G01X48424Y174233D02*
X51574D01*
G01X47205Y175452D02*
G03X48424Y174232I1219J-1D01*
G01X42886Y176911D02*
X46504D01*
G01X47206Y183958D02*
Y180808D01*
G01X48426Y185177D02*
X51576D01*
G01X48426D02*
G03X47206Y183957I0J-1220D01*
G01X40682Y332572D02*
Y332646D01*
G01Y325954D02*
Y326028D01*
G01Y325954D02*
X50918D01*
G01X40682Y332646D02*
X50918D01*
G01X47394Y369047D02*
Y372197D01*
G01X41804Y369047D02*
Y372197D01*
G01X46174Y367828D02*
X43024Y367828D01*
G01X46174Y367828D02*
G03X47394Y369048I0J1220D01*
G01X41804D02*
G03X43024Y367828I1220J0D01*
G01X47395Y374403D02*
Y377553D01*
G01X41806Y374403D02*
Y377553D01*
G01X43026Y378773D02*
G03X41806Y377553I0J-1220D01*
G01X47395D02*
G03X46176Y378773I-1219J1D01*
G01X46176Y378772D02*
X43026D01*
G01X49853Y52121D02*
X49779D01*
G01X56471D02*
X56397D01*
G01X56471D02*
Y62357D01*
G01X49779Y52121D02*
Y62357D01*
G01X56471D02*
X56397D01*
G01X49853D02*
X49779D01*
G01X53830Y160353D02*
Y157203D01*
G01X53828Y154997D02*
Y151847D01*
G01X52608Y150627D02*
G03X53828Y151847I0J1220D01*
G01X53830Y160352D02*
G03X52610Y161572I-1220J0D01*
G01X52794Y178602D02*
Y175452D01*
G01X51574Y174232D02*
G03X52794Y175452I0J1220D01*
G01X58605Y178602D02*
Y175452D01*
G01D02*
G03X59824Y174232I1219J-1D01*
G01X53104Y175452D02*
Y178602D01*
G01X57474Y174233D02*
X54324D01*
G01X57474D02*
G03X58694Y175453I0J1220D01*
G01X53104D02*
G03X54324Y174233I1220J0D01*
G01X52796Y183958D02*
Y180808D01*
G01Y183957D02*
G03X51576Y185177I-1220J0D01*
G01X58606Y183958D02*
Y180808D01*
G01X59826Y185177D02*
G03X58606Y183957I0J-1220D01*
G01X53106Y180808D02*
Y183958D01*
G01X57476Y185177D02*
X54326D01*
G01Y185178D02*
G03X53106Y183958I0J-1220D01*
G01X58695D02*
G03X57476Y185178I-1219J1D01*
G01X50918Y325954D02*
Y326028D01*
G01Y332572D02*
Y332646D01*
G01X59128Y37296D02*
Y44382D01*
G01X60026Y46338D02*
G03I-501J0D01*
G01X64194Y178602D02*
Y175452D01*
G01X59824Y174233D02*
X62974D01*
G01Y174232D02*
G03X64194Y175452I0J1220D01*
G01X58694D02*
Y178602D01*
G01X64196Y183958D02*
Y180808D01*
G01X59826Y185177D02*
X62976D01*
G01X64196Y183957D02*
G03X62976Y185177I-1220J0D01*
G01X58695Y180808D02*
Y183958D01*
G01X62983Y370130D02*
Y367684D01*
G01X73294D02*
X62983D01*
G01Y388353D02*
Y380611D01*
G01X98416Y388353D02*
X62983D01*
G01X73160Y-261D02*
Y5538D01*
G01Y13239D02*
Y21089D01*
G01X74598Y350057D02*
Y357143D01*
G01X77231Y367684D02*
X76295D01*
G01X83364Y23111D02*
X84364Y22110D01*
G01D02*
X89864D01*
G01X83364Y36111D02*
Y31111D01*
G01Y28111D02*
Y23611D01*
G01D02*
Y23111D01*
G01X84864Y37111D02*
X90364D01*
G01X84364D02*
X84864D01*
G01X84364D02*
X83364Y36111D01*
G01X85105Y367684D02*
X84169D01*
G01X81168D02*
X80232D01*
G01X89864Y22110D02*
X90364D01*
G01X91364Y23111D02*
X90364Y22110D01*
G01X91364Y35611D02*
Y31111D01*
G01Y28111D02*
Y23111D01*
G01Y36111D02*
Y35611D01*
G01X90364Y37111D02*
X91364Y36111D01*
G01X94604Y177948D02*
G03X95824Y176728I1220J0D01*
G01X94604Y177947D02*
Y181097D01*
G01X94606Y183303D02*
Y186453D01*
G01X95826Y187673D02*
G03X94606Y186453I0J-1220D01*
G01X86803Y350057D02*
Y357143D01*
G01X87700Y359100D02*
G03I-500J0D01*
G01X98416Y367684D02*
X88106D01*
G01X100519Y22812D02*
Y25962D01*
G01X104889Y21593D02*
X101739D01*
G01X100519Y22813D02*
G03X101739Y21593I1220J0D01*
G01X100521Y28168D02*
Y31318D01*
G01X101741Y32538D02*
G03X100521Y31318I0J-1220D01*
G01X104891Y32537D02*
X101741D01*
G01X101820Y39139D02*
X101875D01*
G01X101820Y51139D02*
Y39139D01*
G01Y51139D02*
X101875D01*
G01X104574Y176728D02*
X101424D01*
G01X100204Y177948D02*
G03X101424Y176728I1220J0D01*
G01X98974D02*
X95824D01*
G01X98974D02*
G03X100194Y177948I0J1220D01*
G01X100204Y177947D02*
Y181097D01*
G01X100206Y183303D02*
Y186453D01*
G01X101426Y187673D02*
G03X100206Y186453I0J-1220D01*
G01X100194Y177947D02*
Y181097D01*
G01X100195Y183303D02*
Y186453D01*
G01D02*
G03X98976Y187673I-1219J1D01*
G01X104576Y187672D02*
X101426D01*
G01X98976D02*
X95826D01*
G01X98416Y370130D02*
Y367684D01*
G01Y388353D02*
Y380611D01*
G01X105455Y6612D02*
Y3462D01*
G01X111044Y6612D02*
Y3462D01*
G01X106674Y2243D02*
X109824D01*
G01Y2242D02*
G03X111044Y3462I0J1220D01*
G01X105455D02*
G03X106674Y2242I1219J-1D01*
G01X112000Y6612D02*
Y3462D01*
G01X113219Y2243D02*
X116369D01*
G01X112000Y3462D02*
G03X113219Y2242I1219J-1D01*
G01X105456Y11968D02*
Y8818D01*
G01X111046Y11968D02*
Y8818D01*
G01X106676Y13187D02*
X109826D01*
G01X106676D02*
G03X105456Y11967I0J-1220D01*
G01X111046D02*
G03X109826Y13187I-1220J0D01*
G01X112001Y11968D02*
Y8818D01*
G01X113221Y13187D02*
X116371D01*
G01X113221D02*
G03X112001Y11967I0J-1220D01*
G01X106109Y22812D02*
Y25962D01*
G01X104889Y21593D02*
G03X106109Y22813I0J1220D01*
G01X108808Y14445D02*
X111958D01*
G01X108808Y20035D02*
X111958D01*
G01X107588Y15665D02*
Y18815D01*
G01Y15665D02*
G03X108808Y14445I1220J0D01*
G01Y20035D02*
G03X107588Y18815I0J-1220D01*
G01X106110Y28168D02*
Y31318D01*
G01D02*
G03X104891Y32538I-1219J1D01*
G01X104574Y176728D02*
G03X105794Y177948I0J1220D01*
G01Y177947D02*
Y181097D01*
G01X105795Y183303D02*
Y186453D01*
G01D02*
G03X104576Y187673I-1219J1D01*
G01X117589Y6612D02*
Y3462D01*
G01X116369Y2242D02*
G03X117589Y3462I0J1220D01*
G01X117591Y11968D02*
Y8818D01*
G01Y11967D02*
G03X116371Y13187I-1220J0D01*
G01X114163Y14444D02*
X117313D01*
G01X114163Y20033D02*
X117313D01*
G01X118532Y15663D02*
Y18813D01*
G01X118534D02*
G03X117313Y20033I-1220J0D01*
G01Y14444D02*
G03X118534Y15663I1J1219D01*
G01X124768Y40934D02*
X121618D01*
G01X124768Y35345D02*
X121618D01*
G01X120398Y39715D02*
Y36565D01*
G01X120398D02*
G03X121618Y35345I1220J0D01*
G01Y40934D02*
G03X120398Y39715I-1J-1219D01*
G01X116820Y51139D02*
Y39139D01*
G01X116765D02*
X116820D01*
G01X116765Y51139D02*
X116820D01*
G01X130124Y40933D02*
X126974D01*
G01X130124Y35343D02*
X126974D01*
G01X131342Y39713D02*
Y36563D01*
G01Y39713D02*
G03X130122Y40933I-1220J0D01*
G01Y35343D02*
G03X131342Y36563I0J1220D01*
G01X129854Y43186D02*
Y46336D01*
G01X129855Y48542D02*
Y51692D01*
G01X124264Y43186D02*
Y46336D01*
G01X124266Y48542D02*
Y51692D01*
G01X128634Y41967D02*
X125484D01*
G01X128634D02*
G03X129854Y43187I0J1220D01*
G01X124264D02*
G03X125484Y41967I1220J0D01*
G01X128636Y52911D02*
X125486D01*
G01Y52912D02*
G03X124266Y51692I0J-1220D01*
G01X129855D02*
G03X128636Y52912I-1219J1D01*
G01X128602Y90864D02*
X266398D01*
G01X128602D02*
Y311336D01*
G01D02*
X266398D01*
G01X124305Y378497D02*
Y375347D01*
G01X129894Y378497D02*
Y375347D01*
G01X125524Y374128D02*
X128674D01*
G01Y374127D02*
G03X129894Y375347I0J1220D01*
G01X124305D02*
G03X125524Y374127I1219J-1D01*
G01X124306Y383853D02*
Y380703D01*
G01X129896Y383853D02*
Y380703D01*
G01X125526Y385072D02*
X128676D01*
G01X125526D02*
G03X124306Y383852I0J-1220D01*
G01X129896D02*
G03X128676Y385072I-1220J0D01*
G01X132365Y34336D02*
Y31186D01*
G01X137954Y34336D02*
Y31186D01*
G01X133584Y29967D02*
X136734D01*
G01Y29966D02*
G03X137954Y31186I0J1220D01*
G01X132365D02*
G03X133584Y29966I1219J-1D01*
G01X132366Y39692D02*
Y36542D01*
G01X137956Y39692D02*
Y36542D01*
G01X133586Y40911D02*
X136736D01*
G01X133586D02*
G03X132366Y39691I0J-1220D01*
G01X137956D02*
G03X136736Y40911I-1220J0D01*
G01X139198Y348457D02*
Y355543D01*
G01X131583Y369430D02*
Y366984D01*
G01X141894D02*
X131583D01*
G01Y387653D02*
Y379911D01*
G01X167016Y387653D02*
X131583D01*
G01X148551Y183342D02*
X146324Y185569D01*
G01X144765Y187131D02*
X142538Y189358D01*
G01X148550Y183343D02*
G03X150276I863J863D01*
G01X148717Y191083D02*
X146490Y193310D01*
G01X144766D02*
X142538Y191083D01*
G01X142538Y191083D02*
G03X142538Y189358I863J-863D01*
G01X146490Y193310D02*
G03X144765Y193311I-862J-861D01*
G01X149768Y366984D02*
X148832D01*
G01X145831D02*
X144895D01*
G01X159156Y174749D02*
G03Y173023I863J-863D01*
G01X156259Y175634D02*
X154031Y177862D01*
G01X160211Y177863D02*
X157983Y175635D01*
G01X156258D02*
G03X157983I863J863D01*
G01X160212Y179587D02*
X157984Y181815D01*
G01X156425Y183375D02*
X154197Y185603D01*
G01X152473Y179423D02*
X150245Y181651D01*
G01X152473Y185603D02*
X150246Y183375D01*
G01X150246Y183376D02*
G03X150245Y181651I863J-863D01*
G01X154197Y185603D02*
G03X152473Y185603I-862J-861D01*
G01X152503Y185570D02*
X150276Y183343D01*
G01X152503Y185570D02*
G03Y187296I-863J863D01*
G01X152504Y187295D02*
X150277Y189522D01*
G01X157579Y300706D02*
Y310706D01*
G01Y300706D02*
X237579D01*
G01X157579Y310706D02*
X237579D01*
G01X151403Y348457D02*
Y355543D01*
G01X152300Y357500D02*
G03I-500J0D01*
G01X167016Y366984D02*
X156706D01*
G01X153705D02*
X152769D01*
G01X162942Y169236D02*
X165169Y167008D01*
G01X166893D02*
X169120Y169236D01*
G01X165169Y167008D02*
G03X166893Y167008I862J861D01*
G01X167004Y165175D02*
X169231Y162948D01*
G01X167004Y166900D02*
X169232Y169127D01*
G01X167004Y166900D02*
G03Y165174I863J-863D01*
G01X159155Y173024D02*
X161382Y170797D01*
G01X163108Y176977D02*
X165335Y174750D01*
G01X166894Y173188D02*
X169121Y170961D01*
G01X159156Y174749D02*
X161383Y176976D01*
G01X163108D02*
G03X161383I-863J-863D01*
G01X160211Y177863D02*
G03Y179588I-863J863D01*
G01X163729Y287778D02*
X166879D01*
G01X163729Y293368D02*
X166879D01*
G01X162510Y288998D02*
Y292148D01*
G01Y288998D02*
G03X163730Y287778I1220J0D01*
G01Y293368D02*
G03X162510Y292148I0J-1220D01*
G01X163774Y293978D02*
X166924D01*
G01X162555Y295198D02*
Y298348D01*
G01Y295198D02*
G03X163775Y293978I1220J0D01*
G01X163774Y299568D02*
X166924D01*
G01X163775D02*
G03X162555Y298348I0J-1220D01*
G01X167016Y369430D02*
Y366984D01*
G01Y387653D02*
Y379911D01*
G01X172069Y4401D02*
X188069D01*
G01X170069D02*
X172069D01*
G01X170069Y6401D02*
Y4401D01*
G01Y6401D02*
X172069D01*
G01Y10401D02*
Y6401D01*
G01X170069Y10401D02*
X172069D01*
G01X170069Y16401D02*
Y10401D01*
G01Y16401D02*
X172069D01*
G01Y20401D02*
Y16401D01*
G01X170069Y20401D02*
X172069D01*
G01X170069Y26401D02*
Y20401D01*
G01Y26401D02*
X172069D01*
G01Y30401D02*
Y26401D01*
G01X170069Y30401D02*
X172069D01*
G01X170069Y32401D02*
Y30401D01*
G01Y32401D02*
X172069D01*
G01D02*
X186069D01*
G01X177156Y148800D02*
G03I-3543J0D01*
G01X170790Y161387D02*
X173018Y159160D01*
G01X174742D02*
X176969Y161387D01*
G01X173018Y159160D02*
G03X174742Y159159I862J861D01*
G01X170956Y169128D02*
X173184Y166901D01*
G01X174742Y165339D02*
X176970Y163112D01*
G01X176970Y161386D02*
G03X176970Y163112I-863J863D01*
G01X169121Y169235D02*
G03X169121Y170961I-863J863D01*
G01X170957Y169127D02*
G03X169232Y169127I-863J-863D01*
G01X169085Y287777D02*
X172235D01*
G01X169085Y293366D02*
X172235D01*
G01X173454Y288996D02*
Y292146D01*
G01X173455D02*
G03X172235Y293366I-1220J0D01*
G01Y287777D02*
G03X173455Y288996I1J1219D01*
G01X169130Y293977D02*
X172280D01*
G01X173499Y295196D02*
Y298346D01*
G01X172280Y293977D02*
G03X173500Y295196I1J1219D01*
G01X169130Y299566D02*
X172280D01*
G01X173500Y298346D02*
G03X172280Y299566I-1220J0D01*
G01X186069Y4401D02*
X198069D01*
G01X188539Y18401D02*
G03Y18321I-4472J-40D01*
G01X180069Y18401D02*
X188069D01*
G01X184069Y22401D02*
Y14401D01*
G01X186069Y32401D02*
X198069D01*
G01X185958Y138725D02*
X183731Y140953D01*
G01X183731Y142678D02*
G03X183731Y140953I863J-863D01*
G01X185959Y144905D02*
X183732Y142677D01*
G01X187683Y144905D02*
G03X185958Y144905I-862J-861D01*
G01X183318Y156549D02*
X185545Y154321D01*
G01X183319Y158273D02*
X185546Y160501D01*
G01X183319Y158273D02*
G03Y156548I863J-863D01*
G01X187272Y160501D02*
G03X185546I-863J-863D01*
G01X193501Y326888D02*
X185501D01*
G01X184953Y380468D02*
Y376531D01*
G01X195569Y28401D02*
G03Y28391I-300J-5D01*
G01X193697Y138889D02*
X191470Y141117D01*
G01X189744Y134936D02*
X187517Y137164D01*
G01X193696Y137165D02*
X191469Y134937D01*
G01X193696Y137165D02*
G03Y138890I-863J863D01*
G01X189744Y134937D02*
G03X191469Y134937I863J863D01*
G01X189910Y142677D02*
X187683Y144905D01*
G01X187105Y152761D02*
X189332Y150533D01*
G01X191056D02*
X193283Y152761D01*
G01X189332Y150533D02*
G03X191057Y150533I862J861D01*
G01X187271Y160502D02*
X189498Y158274D01*
G01X191057Y156713D02*
X193284Y154485D01*
G01X193284Y152760D02*
G03X193284Y154485I-863J863D01*
G01X191501Y326888D02*
X187501Y328888D01*
G01D02*
Y324888D01*
G01X191501Y326888D02*
X187501Y324888D01*
G01X191501Y328888D02*
Y326888D01*
G01Y328888D02*
Y324888D01*
G01X196568Y367475D02*
X194994Y368262D01*
G01X224718D02*
X193319D01*
G01X186922Y374168D02*
G03X193318Y368262I9924J4330D01*
G01X186923Y382830D02*
Y374168D01*
G01X193318Y388735D02*
G03X186922Y382829I3527J-10237D01*
G01X196568Y389522D02*
X194994Y388735D01*
G01X224718D02*
X193319D01*
G01X198069Y32401D02*
Y4401D01*
G01X200900D02*
X216900D01*
G01X198900D02*
X200900D01*
G01X198900Y6401D02*
Y4401D01*
G01Y6401D02*
X200900D01*
G01Y10401D02*
Y6401D01*
G01X198900Y10401D02*
X200900D01*
G01X198900Y16401D02*
Y10401D01*
G01Y16401D02*
X200900D01*
G01Y20401D02*
Y16401D01*
G01X198900Y20401D02*
X200900D01*
G01X198900Y26401D02*
Y20401D01*
G01Y26401D02*
X200900D01*
G01Y30401D02*
Y26401D01*
G01X198900Y30401D02*
X200900D01*
G01X198900Y32401D02*
Y30401D01*
G01Y32401D02*
X200900D01*
G01D02*
X214900D01*
G01X220781Y367475D02*
X196568D01*
G01X220781Y389522D02*
X196568D01*
G01X217370Y18401D02*
G03Y18321I-4472J-40D01*
G01X208900Y18401D02*
X216900D01*
G01X212900Y22401D02*
Y14401D01*
G01X212490Y153736D02*
X214718Y151509D01*
G01X212491Y155461D02*
X214718Y157688D01*
G01X212491Y155461D02*
G03Y153735I863J-863D01*
G01X214900Y4401D02*
X226900D01*
G01X214900Y32401D02*
X226900D01*
G01X216277Y149948D02*
X218505Y147720D01*
G01X220228D02*
X222456Y149948D01*
G01X222456Y149947D02*
G03X222457Y151672I-863J863D01*
G01X218505Y147720D02*
G03X220229Y147720I862J861D01*
G01X216443Y157689D02*
X218670Y155461D01*
G01X220229Y153900D02*
X222457Y151672D01*
G01X216444Y157688D02*
G03X214718Y157688I-863J-863D01*
G01X220240Y161465D02*
X222467Y159237D01*
G01X220241Y163189D02*
X222468Y165417D01*
G01X220241Y163189D02*
G03Y161464I863J-863D01*
G01X224193Y165417D02*
G03X222468Y165417I-863J-863D01*
G01X222356Y368262D02*
X220781Y367475D01*
G01X222356Y388735D02*
X220781Y389522D01*
G01X226900Y32401D02*
Y4401D01*
G01X224400Y28401D02*
G03Y28391I-300J-5D01*
G01X224027Y157677D02*
X226254Y155449D01*
G01X227979Y161629D02*
X230206Y159401D01*
G01X227978Y155449D02*
X230205Y157677D01*
G01X230206Y157676D02*
G03X230206Y159401I-863J863D01*
G01X226254Y155449D02*
G03X227978Y155449I862J861D01*
G01X224193Y165418D02*
X226420Y163190D01*
G01X224718Y368262D02*
G03X227081Y370624I0J2363D01*
G01X230228Y380468D02*
Y376531D01*
G01X227081Y386373D02*
Y370625D01*
G01X232197Y378500D02*
X228260D01*
G01X227081Y386372D02*
G03X224718Y388735I-2363J0D01*
G01X239194Y2247D02*
Y5397D01*
G01X233604Y2247D02*
Y5397D01*
G01X237974Y1028D02*
X234824D01*
G01X237974D02*
G03X239194Y2248I0J1220D01*
G01X233604D02*
G03X234824Y1028I1220J0D01*
G01X240204Y2247D02*
Y5397D01*
G01Y2248D02*
G03X241424Y1028I1220J0D01*
G01X239195Y7603D02*
Y10753D01*
G01X233606Y7603D02*
Y10753D01*
G01X237976Y11972D02*
X234826D01*
G01Y11973D02*
G03X233606Y10753I0J-1220D01*
G01X239195D02*
G03X237976Y11973I-1219J1D01*
G01X240206Y7603D02*
Y10753D01*
G01X241426Y11973D02*
G03X240206Y10753I0J-1220D01*
G01X237579Y300706D02*
Y310706D01*
G01X245794Y2247D02*
Y5397D01*
G01X244574Y1028D02*
X241424D01*
G01X244574D02*
G03X245794Y2248I0J1220D01*
G01X245795Y7603D02*
Y10753D01*
G01X244576Y11972D02*
X241426D01*
G01X245795Y10753D02*
G03X244576Y11973I-1219J1D01*
G01X250543Y48200D02*
G03I-3543J0D01*
G01Y67200D02*
G03I-3543J0D01*
G01X246767Y390091D02*
Y369619D01*
G01X277069D02*
X246767D01*
G01X249345Y387355D02*
Y371855D01*
G01X280345D02*
X249345D01*
G01X280345Y387355D02*
X249345D01*
G01X276712Y390093D02*
X246767Y390091D01*
G01X266384Y-53D02*
Y7689D01*
G01Y-53D02*
X301817D01*
G01X266384Y20616D02*
X276694D01*
G01X266384Y18170D02*
Y20616D01*
G01X275143Y67000D02*
G03I-3543J0D01*
G01X266398Y90864D02*
Y311336D01*
G01X275343Y47800D02*
G03I-3543J0D01*
G01X276997Y360358D02*
Y357208D01*
G01D02*
G03X278216Y355989I1219J-1D01*
G01X276998Y365714D02*
Y362564D01*
G01X278218Y366933D02*
G03X276998Y365713I0J-1220D01*
G01X277068Y369618D02*
G03X276711Y390092I-207J10236D01*
G01X279695Y20616D02*
X280631D01*
G01X283632D02*
X284568D01*
G01X285047Y141206D02*
X288197D01*
G01X283828Y142426D02*
G03X285048Y141206I1220J0D01*
G01X285047Y135618D02*
X288197D01*
G01X285047Y141208D02*
X288197D01*
G01X283828Y136838D02*
Y139988D01*
G01Y136838D02*
G03X285048Y135618I1220J0D01*
G01Y141208D02*
G03X283828Y139988I0J-1220D01*
G01X285047Y146796D02*
X288197D01*
G01X283828Y142426D02*
Y145576D01*
G01X285048Y146796D02*
G03X283828Y145576I0J-1220D01*
G01X287353Y320504D02*
X284203D01*
G01X281997Y320506D02*
X278847D01*
G01X277628Y324876D02*
Y321726D01*
G01X277627D02*
G03X278847Y320506I1220J0D01*
G01X287353Y332694D02*
X284203D01*
G01X281997Y332695D02*
X278847D01*
G01X287353Y327104D02*
X284203D01*
G01X281997Y327106D02*
X278847D01*
G01X277628Y331476D02*
Y328326D01*
G01X277627D02*
G03X278847Y327106I1220J0D01*
G01Y332695D02*
G03X277627Y331476I-1J-1219D01*
G01X287353Y326094D02*
X284203D01*
G01X281997Y326095D02*
X278847D01*
G01D02*
G03X277627Y324876I-1J-1219D01*
G01X282586Y360358D02*
Y357208D01*
G01X278216Y355989D02*
X281366D01*
G01Y355989D02*
G03X282586Y357208I0J1220D01*
G01X283604Y360405D02*
Y357255D01*
G01X284823Y356036D02*
X287973D01*
G01X283604Y357255D02*
G03X284823Y356035I1219J-1D01*
G01X282588Y365714D02*
Y362564D01*
G01X278218Y366933D02*
X281368D01*
G01X282588Y365713D02*
G03X281368Y366933I-1220J0D01*
G01X283605Y365761D02*
Y362611D01*
G01X284825Y366980D02*
X287975D01*
G01X284825D02*
G03X283605Y365760I0J-1220D01*
G01X284345Y383355D02*
Y375855D01*
G01D02*
X280345Y371855D01*
G01X284345Y383355D02*
X280345Y387355D01*
G01X287569Y20616D02*
X288505D01*
G01X291506D02*
X301817D01*
G01X294605Y142347D02*
G03X295824Y141127I1219J-1D01*
G01X290403Y141205D02*
X293553D01*
G01D02*
G03X294773Y142424I1J1219D01*
G01X290403Y135616D02*
X293553D01*
G01X290403Y141206D02*
X293553D01*
G01X294772Y136836D02*
Y139986D01*
G01X294773D02*
G03X293553Y141206I-1220J0D01*
G01Y135616D02*
G03X294773Y136836I1J1219D01*
G01X294606Y150853D02*
Y147703D01*
G01X294605Y145497D02*
Y142347D01*
G01X290403Y146794D02*
X293553D01*
G01X294772Y142424D02*
Y145574D01*
G01X294773D02*
G03X293553Y146794I-1220J0D01*
G01X295826Y152072D02*
G03X294606Y150852I0J-1220D01*
G01X288572Y324874D02*
Y321724D01*
G01X287352Y320504D02*
G03X288572Y321724I0J1220D01*
G01Y331474D02*
Y328324D01*
G01Y331474D02*
G03X287352Y332694I-1220J0D01*
G01Y327104D02*
G03X288572Y328324I0J1220D01*
G01Y324874D02*
G03X287352Y326094I-1220J0D01*
G01X289193Y360405D02*
Y357255D01*
G01X287973Y356035D02*
G03X289193Y357255I0J1220D01*
G01X289195Y365761D02*
Y362611D01*
G01Y365760D02*
G03X287975Y366980I-1220J0D01*
G01X301817Y-53D02*
Y7689D01*
G01Y18170D02*
Y20616D01*
G01X302324Y59328D02*
X305474D01*
G01X301105Y60547D02*
G03X302324Y59327I1219J-1D01*
G01X301106Y69053D02*
Y65903D01*
G01X301105Y63697D02*
Y60547D01*
G01X301106Y79953D02*
Y76803D01*
G01X301105Y74597D02*
Y71447D01*
G01X302324Y70228D02*
X305474D01*
G01X301105Y71447D02*
G03X302324Y70227I1219J-1D01*
G01X302326Y70272D02*
X305476D01*
G01X302326D02*
G03X301106Y69052I0J-1220D01*
G01X302326Y81172D02*
X305476D01*
G01X302326D02*
G03X301106Y79952I0J-1220D01*
G01X301324Y141028D02*
X304474D01*
G01Y141027D02*
G03X305694Y142247I0J1220D01*
G01X300105D02*
G03X301324Y141027I1219J-1D01*
G01X295824Y141128D02*
X298974D01*
G01Y141127D02*
G03X300194Y142347I0J1220D01*
G01X300106Y150753D02*
Y147603D01*
G01X300105Y145397D02*
Y142247D01*
G01X300196Y150853D02*
Y147703D01*
G01X300194Y145497D02*
Y142347D01*
G01X301326Y151972D02*
X304476D01*
G01X301326D02*
G03X300106Y150752I0J-1220D01*
G01X305696D02*
G03X304476Y151972I-1220J0D01*
G01X295826Y152072D02*
X298976D01*
G01X300196Y150852D02*
G03X298976Y152072I-1220J0D01*
G01X306500Y1701D02*
Y-29187D01*
G01X306689D02*
X308185D01*
G01D02*
X329051D01*
G01X308000Y-24400D02*
X328866Y-27600D01*
G01D02*
X308000Y-27626D01*
G01X328866Y-24100D02*
X308000Y-24126D01*
G01X328866Y-20600D02*
X308000Y-20626D01*
G01Y-20900D02*
X328866Y-24100D01*
G01X308000Y-17400D02*
X328866Y-20600D01*
G01X329000Y-17099D02*
X308134Y-17125D01*
G01Y-13899D02*
X329000Y-17099D01*
G01X308134Y-13899D02*
X329000D01*
G01X313320Y4600D02*
X323680D01*
G01X306500Y21780D02*
Y11420D01*
G01X313320Y28600D02*
X323680D01*
G01X305474Y59327D02*
G03X306694Y60547I0J1220D01*
G01X306696Y69053D02*
Y65903D01*
G01X306694Y63697D02*
Y60547D01*
G01X306696Y79953D02*
Y76803D01*
G01X306694Y74597D02*
Y71447D01*
G01X305474Y70227D02*
G03X306694Y71447I0J1220D01*
G01X306696Y69052D02*
G03X305476Y70272I-1220J0D01*
G01X306696Y79952D02*
G03X305476Y81172I-1220J0D01*
G01X306924Y141128D02*
X310074D01*
G01Y141127D02*
G03X311294Y142347I0J1220D01*
G01X305705D02*
G03X306924Y141127I1219J-1D01*
G01X315497Y141194D02*
X312347D01*
G01X311127Y142414D02*
G03X312347Y141194I1220J0D01*
G01X305696Y150753D02*
Y147603D01*
G01X305694Y145397D02*
Y142247D01*
G01X305706Y150853D02*
Y147703D01*
G01X305705Y145497D02*
Y142347D01*
G01X311296Y150853D02*
Y147703D01*
G01X311294Y145497D02*
Y142347D01*
G01X315497Y146783D02*
X312347D01*
G01X311128Y145564D02*
Y142414D01*
G01X312347Y146783D02*
G03X311127Y145564I-1J-1219D01*
G01X306926Y152072D02*
X310076D01*
G01X306926D02*
G03X305706Y150852I0J-1220D01*
G01X311296D02*
G03X310076Y152072I-1220J0D01*
G01X320853Y141192D02*
X317703D01*
G01X320852D02*
G03X322072Y142412I0J1220D01*
G01X320853Y146782D02*
X317703D01*
G01X322072Y145562D02*
Y142412D01*
G01Y145562D02*
G03X320852Y146782I-1220J0D01*
G01X319104Y164147D02*
Y167297D01*
G01X323474Y162928D02*
X320324D01*
G01X319104Y164148D02*
G03X320324Y162928I1220J0D01*
G01X319106Y169503D02*
Y172653D01*
G01X323476Y173872D02*
X320326D01*
G01Y173873D02*
G03X319106Y172653I0J-1220D01*
G01X323374Y241128D02*
X320224D01*
G01X319004Y242348D02*
G03X320224Y241128I1220J0D01*
G01X319004Y242347D02*
Y245497D01*
G01X319006Y247703D02*
Y250853D01*
G01X323376Y252072D02*
X320226D01*
G01Y252073D02*
G03X319006Y250853I0J-1220D01*
G01X318904Y319447D02*
Y322597D01*
G01X323274Y318228D02*
X320124D01*
G01X318904Y319448D02*
G03X320124Y318228I1220J0D01*
G01X318906Y324803D02*
Y327953D01*
G01X323276Y329172D02*
X320126D01*
G01Y329173D02*
G03X318906Y327953I0J-1220D01*
G01X329051Y-29187D02*
X330500D01*
G01Y1701D02*
Y-29069D01*
G01Y21780D02*
Y11420D01*
G01X333153Y49004D02*
X330003D01*
G01X327797Y49006D02*
X324647D01*
G01X323428Y53376D02*
Y50226D01*
G01X323427D02*
G03X324647Y49006I1220J0D01*
G01X333153Y54204D02*
X330003D01*
G01X327797Y54206D02*
X324647D01*
G01X323428Y58576D02*
Y55426D01*
G01X323427D02*
G03X324647Y54206I1220J0D01*
G01Y59795D02*
G03X323427Y58576I-1J-1219D01*
G01X333153Y54594D02*
X330003D01*
G01X327797Y54595D02*
X324647D01*
G01D02*
G03X323427Y53376I-1J-1219D01*
G01X333153Y59794D02*
X330003D01*
G01X327797Y59795D02*
X324647D01*
G01X324694Y164147D02*
Y167297D01*
G01X323474Y162928D02*
G03X324694Y164148I0J1220D01*
G01X331294Y164147D02*
Y167297D01*
G01X325704Y164147D02*
Y167297D01*
G01X330074Y162928D02*
X326924D01*
G01X330074D02*
G03X331294Y164148I0J1220D01*
G01X325704D02*
G03X326924Y162928I1220J0D01*
G01X324695Y169503D02*
Y172653D01*
G01D02*
G03X323476Y173873I-1219J1D01*
G01X331295Y169503D02*
Y172653D01*
G01X325706Y169503D02*
Y172653D01*
G01X330076Y173872D02*
X326926D01*
G01Y173873D02*
G03X325706Y172653I0J-1220D01*
G01X331295D02*
G03X330076Y173873I-1219J1D01*
G01X323374Y241128D02*
G03X324594Y242348I0J1220D01*
G01X329974Y241128D02*
X326824D01*
G01X329974D02*
G03X331194Y242348I0J1220D01*
G01X325604D02*
G03X326824Y241128I1220J0D01*
G01X324594Y242347D02*
Y245497D01*
G01X324595Y247703D02*
Y250853D01*
G01X331194Y242347D02*
Y245497D01*
G01X331195Y247703D02*
Y250853D01*
G01X325604Y242347D02*
Y245497D01*
G01X325606Y247703D02*
Y250853D01*
G01X324595D02*
G03X323376Y252073I-1219J1D01*
G01X329976Y252072D02*
X326826D01*
G01Y252073D02*
G03X325606Y250853I0J-1220D01*
G01X331195D02*
G03X329976Y252073I-1219J1D01*
G01X324494Y319447D02*
Y322597D01*
G01X323274Y318228D02*
G03X324494Y319448I0J1220D01*
G01X331094Y319447D02*
Y322597D01*
G01X325504Y319447D02*
Y322597D01*
G01X329874Y318228D02*
X326724D01*
G01X329874D02*
G03X331094Y319448I0J1220D01*
G01X325504D02*
G03X326724Y318228I1220J0D01*
G01X324495Y324803D02*
Y327953D01*
G01D02*
G03X323276Y329173I-1219J1D01*
G01X331095Y324803D02*
Y327953D01*
G01X325506Y324803D02*
Y327953D01*
G01X329876Y329172D02*
X326726D01*
G01Y329173D02*
G03X325506Y327953I0J-1220D01*
G01X331095D02*
G03X329876Y329173I-1219J1D01*
G01X334372Y53374D02*
Y50224D01*
G01X333152Y49004D02*
G03X334372Y50224I0J1220D01*
G01Y58574D02*
Y55424D01*
G01Y58574D02*
G03X333152Y59794I-1220J0D01*
G01Y54204D02*
G03X334372Y55424I0J1220D01*
G01Y53374D02*
G03X333152Y54594I-1220J0D01*
G01X340205Y371697D02*
Y368547D01*
G01D02*
G03X341424Y367327I1219J-1D01*
G01X340206Y377053D02*
Y373903D01*
G01X341426Y378272D02*
G03X340206Y377052I0J-1220D01*
G01X345794Y371697D02*
Y368547D01*
G01X341424Y367328D02*
X344574D01*
G01Y367327D02*
G03X345794Y368547I0J1220D01*
G01X345796Y377053D02*
Y373903D01*
G01X341426Y378272D02*
X344576D01*
G01X345796Y377052D02*
G03X344576Y378272I-1220J0D01*
G01X355694Y52541D02*
Y55691D01*
G01X355695Y57898D02*
Y61048D01*
G01X350104Y52541D02*
Y55691D01*
G01X350106Y57898D02*
Y61048D01*
G01X354474Y51322D02*
X351324D01*
G01X354474D02*
G03X355694Y52542I0J1220D01*
G01X350104D02*
G03X351324Y51322I1220J0D01*
G01X354476Y62266D02*
X351326D01*
G01Y62267D02*
G03X350106Y61048I0J-1220D01*
G01X355695D02*
G03X354476Y62267I-1219J1D01*
G01X359005Y167896D02*
X355855D01*
G01X359005Y162307D02*
X355855D01*
G01X354636Y166677D02*
Y163527D01*
G01X354635D02*
G03X355855Y162307I1220J0D01*
G01Y167896D02*
G03X354635Y166677I-1J-1219D01*
G01X358958Y174503D02*
X355808D01*
G01X358958Y168914D02*
X355808D01*
G01X354589Y173284D02*
Y170134D01*
G01X354589D02*
G03X355808Y168914I1220J0D01*
G01Y174503D02*
G03X354589Y173284I-1J-1219D01*
G01X358905Y240507D02*
X355755D01*
G01X354535Y241727D02*
G03X355755Y240507I1220J0D01*
G01X358905Y246096D02*
X355755D01*
G01X354536Y244877D02*
Y241727D01*
G01X355755Y246096D02*
G03X354535Y244877I-1J-1219D01*
G01X358858Y247114D02*
X355708D01*
G01X354489Y251484D02*
Y248334D01*
G01X354489D02*
G03X355708Y247114I1220J0D01*
G01X358858Y252703D02*
X355708D01*
G01D02*
G03X354489Y251484I-1J-1219D01*
G01X358805Y323196D02*
X355655D01*
G01X358805Y317607D02*
X355655D01*
G01X354436Y321977D02*
Y318827D01*
G01X354435D02*
G03X355655Y317607I1220J0D01*
G01Y323196D02*
G03X354435Y321977I-1J-1219D01*
G01X358758Y329803D02*
X355608D01*
G01X358758Y324214D02*
X355608D01*
G01X354389Y328584D02*
Y325434D01*
G01X354389D02*
G03X355608Y324214I1220J0D01*
G01Y329803D02*
G03X354389Y328584I-1J-1219D01*
G01X367750Y6550D02*
X382250Y21050D01*
G01X385250Y14050D02*
G03I-10500J0D01*
G01X381750Y6550D02*
X367250Y21050D01*
G01X367304Y81441D02*
Y84591D01*
G01X367306Y86798D02*
Y89948D01*
G01X367304Y81442D02*
G03X368524Y80222I1220J0D01*
G01X368526Y91167D02*
G03X367306Y89948I0J-1220D01*
G01X364361Y167895D02*
X361211D01*
G01X364361Y162305D02*
X361211D01*
G01X365580Y166675D02*
Y163525D01*
G01Y166675D02*
G03X364360Y167895I-1220J0D01*
G01Y162305D02*
G03X365580Y163525I0J1220D01*
G01X364314Y174502D02*
X361164D01*
G01X364314Y168912D02*
X361164D01*
G01X365533Y173282D02*
Y170132D01*
G01Y173282D02*
G03X364313Y174502I-1220J0D01*
G01Y168912D02*
G03X365533Y170132I0J1220D01*
G01X368219Y174431D02*
Y204733D01*
G01X368218Y174432D02*
G03X388692Y174789I10236J207D01*
G01X388691Y204733D02*
X368219D01*
G01X364261Y240505D02*
X361111D01*
G01X364260D02*
G03X365480Y241725I0J1220D01*
G01X364261Y246095D02*
X361111D01*
G01X365480Y244875D02*
Y241725D01*
G01Y244875D02*
G03X364260Y246095I-1220J0D01*
G01X364214Y247112D02*
X361064D01*
G01X365433Y251482D02*
Y248332D01*
G01X364213Y247112D02*
G03X365433Y248332I0J1220D01*
G01X364214Y252702D02*
X361064D01*
G01X365433Y251482D02*
G03X364213Y252702I-1220J0D01*
G01X368119Y252631D02*
Y282933D01*
G01X368118Y252632D02*
G03X388592Y252989I10236J207D01*
G01X388591Y282933D02*
X368119D01*
G01X364161Y323195D02*
X361011D01*
G01X364161Y317605D02*
X361011D01*
G01X365380Y321975D02*
Y318825D01*
G01Y321975D02*
G03X364160Y323195I-1220J0D01*
G01Y317605D02*
G03X365380Y318825I0J1220D01*
G01X364114Y329802D02*
X360964D01*
G01X364114Y324212D02*
X360964D01*
G01X365333Y328582D02*
Y325432D01*
G01Y328582D02*
G03X364113Y329802I-1220J0D01*
G01Y324212D02*
G03X365333Y325432I0J1220D01*
G01X368019Y329731D02*
Y360033D01*
G01X368018Y329732D02*
G03X388492Y330089I10236J207D01*
G01X388491Y360033D02*
X368019D01*
G01X380350Y379350D02*
X365850Y364850D01*
G01X383350Y372350D02*
G03I-10500J0D01*
G01X380350Y365350D02*
X365850Y379850D01*
G01X379453Y41104D02*
X376303D01*
G01X374097Y41106D02*
X370947D01*
G01X369727Y42326D02*
G03X370947Y41106I1220J0D01*
G01X379453Y46694D02*
X376303D01*
G01X374097Y46695D02*
X370947D01*
G01X369728Y45476D02*
Y42326D01*
G01X370947Y46695D02*
G03X369727Y45476I-1J-1219D01*
G01X374934Y62226D02*
Y68855D01*
G01Y74037D02*
Y74761D01*
G01X372894Y81441D02*
Y84591D01*
G01X372895Y86798D02*
Y89948D01*
G01X371674Y80222D02*
X368524D01*
G01X371674D02*
G03X372894Y81442I0J1220D01*
G01X371676Y91166D02*
X368526D01*
G01X372895Y89948D02*
G03X371676Y91167I-1219J1D01*
G01X381955Y167155D02*
X374455D01*
G01D02*
X370455Y171155D01*
G01D02*
Y202155D01*
G01X385955D02*
X370455D01*
G01X381855Y245355D02*
X374355D01*
G01D02*
X370355Y249355D01*
G01D02*
Y280355D01*
G01X385855D02*
X370355D01*
G01X381755Y322455D02*
X374255D01*
G01D02*
X370255Y326455D01*
G01D02*
Y357455D01*
G01X385755D02*
X370255D01*
G01X379452Y41104D02*
G03X380672Y42324I0J1220D01*
G01Y45474D02*
Y42324D01*
G01Y45474D02*
G03X379452Y46694I-1220J0D01*
G01X385564Y55896D02*
Y81092D01*
G01X382068Y55502D02*
X378431D01*
G01X393438Y68493D02*
X385564D01*
G01X393438Y73612D02*
X385564D01*
G01X382068Y81486D02*
X378431D01*
G01X381955Y167155D02*
X385955Y171155D01*
G01D02*
Y202155D01*
G01X385855Y249355D02*
Y280355D01*
G01X381855Y245355D02*
X385855Y249355D01*
G01X381755Y322455D02*
X385755Y326455D01*
G01D02*
Y357455D01*
G01X393438Y68493D02*
Y73612D01*
G01X388693Y174788D02*
X388691Y204733D01*
G01X388593Y252988D02*
X388591Y282933D01*
G01X388493Y330088D02*
X388491Y360033D01*
G01X-135Y369649D02*
Y19885D01*
G03X19865Y-115I20000J0D01*
G01X369629D01*
G03X389629Y19885I0J20000D01*
G01Y369649D01*
G03X369629Y389649I-20000J0D01*
G01X19865D01*
G03X-135Y369649I0J-20000D01*
M02*
