G04 ================== begin FILE IDENTIFICATION RECORD ==================*
G04 Layout Name:  stm32g431-devboard.brd*
G04 Film Name:    ASM_BOTTOM*
G04 File Format:  Gerber RS274X*
G04 File Origin:  Cadence Allegro 17.4-S039*
G04 Origin Date:  Mon Mar  2 09:43:22 2026*
G04 *
G04 Layer:  BOARD GEOMETRY/DESIGN_OUTLINE*
G04 Layer:  BOARD GEOMETRY/SOLDERMASK_BOTTOM*
G04 Layer:  PACKAGE GEOMETRY/SILKSCREEN_BOTTOM*
G04 Layer:  REF DES/SILKSCREEN_BOTTOM*
G04 *
G04 Offset:    (0.000 0.000)*
G04 Mirror:    No*
G04 Mode:      Positive*
G04 Rotation:  0*
G04 FullContactRelief:  No*
G04 UndefLineWidth:     10.000*
G04 ================== end FILE IDENTIFICATION RECORD ====================*
%FSLAX25Y25*MOIN*%
%IR0*IPPOS*OFA0.00000B0.00000*MIA0B0*SFA1.00000B1.00000*%
%ADD10C,.006*%
%ADD11C,.00315*%
%ADD12C,.003941*%
%ADD13C,.00598*%
%ADD14C,.01*%
%ADD15C,.01181*%
G75*
%LPD*%
G75*
G36*
G01X12609Y291396D02*
X11409D01*
Y293059D01*
X12609D01*
Y291396D01*
G37*
G36*
G01Y286741D02*
X11409D01*
Y288404D01*
X12609D01*
Y286741D01*
G37*
G36*
G01X158250Y363604D02*
X159450D01*
Y361941D01*
X158250D01*
Y363604D01*
G37*
G36*
G01Y368259D02*
X159450D01*
Y366596D01*
X158250D01*
Y368259D01*
G37*
G36*
G01X251250Y49696D02*
X250050D01*
Y51359D01*
X251250D01*
Y49696D01*
G37*
G36*
G01Y45041D02*
X250050D01*
Y46704D01*
X251250D01*
Y45041D01*
G37*
G36*
G01Y64041D02*
X250050D01*
Y65704D01*
X251250D01*
Y64041D01*
G37*
G36*
G01Y68696D02*
X250050D01*
Y70359D01*
X251250D01*
Y68696D01*
G37*
G36*
G01X276050Y49296D02*
X274850D01*
Y50959D01*
X276050D01*
Y49296D01*
G37*
G36*
G01Y44641D02*
X274850D01*
Y46304D01*
X276050D01*
Y44641D01*
G37*
G36*
G01X275850Y63841D02*
X274650D01*
Y65504D01*
X275850D01*
Y63841D01*
G37*
G36*
G01Y68496D02*
X274650D01*
Y70159D01*
X275850D01*
Y68496D01*
G37*
G54D10*
G01X3469Y80542D02*
Y86457D01*
G01X4069Y79942D02*
G02X3469Y80542I0J600D01*
G01Y86457D02*
G02X4069Y87057I600J0D01*
G01X3169Y119842D02*
Y125757D01*
G01X3769Y119242D02*
G02X3169Y119842I0J600D01*
G01Y125757D02*
G02X3769Y126357I600J0D01*
G01X143Y299520D02*
Y293969D01*
G01X6658Y293369D02*
X743D01*
G01D02*
G02X143Y293969I0J600D01*
G01Y308231D02*
Y302680D01*
G01X943Y311469D02*
Y317020D01*
G01X1542Y310869D02*
X7457D01*
G01X1542D02*
G02X942Y311469I0J600D01*
G01X6658Y308831D02*
X743D01*
G01X143Y308231D02*
G02X743Y308831I600J0D01*
G01X943Y320180D02*
Y325731D01*
G01X1542Y326331D02*
X7457D01*
G01X942Y325731D02*
G02X1542Y326331I600J0D01*
G01X9620Y79943D02*
X4069D01*
G01X18331D02*
X12780D01*
G01X9620Y87057D02*
X4069D01*
G01X18331D02*
X12780D01*
G01X9325Y87389D02*
X4266D01*
G01D02*
Y94611D01*
G01X9325D02*
X4266D01*
G01X9320Y119243D02*
X3769D01*
G01X18031D02*
X12480D01*
G01X9320Y126357D02*
X3769D01*
G01X18031D02*
X12480D01*
G01X9025Y126689D02*
X3966D01*
G01D02*
Y133911D01*
G01X17834Y126689D02*
X12775D01*
G01X9025Y133911D02*
X3966D01*
G01X17834D02*
X12775D01*
G01X7589Y245766D02*
Y250825D01*
G01Y245766D02*
X14811D01*
G01X7589Y254575D02*
Y259634D01*
G01D02*
X14811D01*
G01X7257Y299520D02*
Y293969D01*
G01X7258D02*
G02X6658Y293369I-600J0D01*
G01X11709Y292759D02*
X4809D01*
G01Y291596D02*
Y292759D01*
G01X11709Y287041D02*
X4809D01*
G01D02*
Y288204D01*
G01X10116Y287041D02*
Y292759D01*
G01X7257Y308231D02*
Y302680D01*
G01X8057Y311469D02*
Y317020D01*
G01Y311469D02*
G02X7457Y310869I-600J0D01*
G01X6658Y308831D02*
G02X7258Y308231I0J-600D01*
G01X8789Y311666D02*
Y316725D01*
G01Y311666D02*
X16011D01*
G01X8057Y320180D02*
Y325731D01*
G01X8789Y320475D02*
Y325534D01*
G01X7457Y326331D02*
G02X8057Y325731I0J-600D01*
G01X8789Y325534D02*
X16011D01*
G01X7643Y340903D02*
Y346454D01*
G01X8242Y340303D02*
X14157D01*
G01X8242D02*
G02X7642Y340903I0J600D01*
G01X7643Y349614D02*
Y355165D01*
G01X8242Y355765D02*
X14157D01*
G01X7642Y355165D02*
G02X8242Y355765I600J0D01*
G01X18931Y80542D02*
Y86457D01*
G01Y80542D02*
G02X18331Y79942I-600J0D01*
G01Y87057D02*
G02X18931Y86457I0J-600D01*
G01X18134Y87389D02*
X13075D01*
G01X18134D02*
Y94611D01*
G01D02*
X13075D01*
G01X18631Y119842D02*
Y125757D01*
G01Y119842D02*
G02X18031Y119242I-600J0D01*
G01Y126357D02*
G02X18631Y125757I0J-600D01*
G01X17834Y126689D02*
Y133911D01*
G01X14811Y245766D02*
Y250825D01*
G01Y254575D02*
Y259634D01*
G01X19530Y268043D02*
X13979D01*
G01X13379Y268642D02*
Y274557D01*
G01X13979Y268042D02*
G02X13379Y268642I0J600D01*
G01X19530Y275157D02*
X13979D01*
G01X13379Y274557D02*
G02X13979Y275157I600J0D01*
G01X21157Y285576D02*
Y291127D01*
G01X14043Y285576D02*
Y291127D01*
G01X14642Y284976D02*
X20557D01*
G01X14642D02*
G02X14042Y285576I0J600D01*
G01X21157D02*
G02X20557Y284976I-600J0D01*
G01X21157Y294287D02*
Y299838D01*
G01X14043Y294287D02*
Y299838D01*
G01X14642Y300438D02*
X20557D01*
G01X14042Y299838D02*
G02X14642Y300438I600J0D01*
G01X20557D02*
G02X21157Y299838I0J-600D01*
G01X16011Y311666D02*
Y316725D01*
G01Y320475D02*
Y325534D01*
G01X14757Y340903D02*
Y346454D01*
G01Y340903D02*
G02X14157Y340303I-600J0D01*
G01X15943Y340903D02*
Y346454D01*
G01X16542Y340303D02*
X22457D01*
G01X16542D02*
G02X15942Y340903I0J600D01*
G01X14757Y349614D02*
Y355165D01*
G01X15943Y349614D02*
Y355165D01*
G01X14157Y355765D02*
G02X14757Y355165I0J-600D01*
G01X16542Y355765D02*
X22457D01*
G01X15942Y355165D02*
G02X16542Y355765I600J0D01*
G01X28242Y268043D02*
X22690D01*
G01X28842Y268642D02*
Y274557D01*
G01Y268642D02*
G02X28242Y268042I-600J0D01*
G01Y275157D02*
X22690D01*
G01X28242D02*
G02X28842Y274557I0J-600D01*
G01X24034Y340903D02*
Y346454D01*
G01X24633Y340303D02*
X30548D01*
G01X24633D02*
G02X24033Y340903I0J600D01*
G01X31148D02*
G02X30548Y340303I-600J0D01*
G01X23057Y340903D02*
Y346454D01*
G01Y340903D02*
G02X22457Y340303I-600J0D01*
G01X24034Y349614D02*
Y355165D01*
G01X23057Y349614D02*
Y355165D01*
G01X24633Y355765D02*
X30548D01*
G01X24033Y355165D02*
G02X24633Y355765I600J0D01*
G01X30548D02*
G02X31148Y355165I0J-600D01*
G01X22457Y355765D02*
G02X23057Y355165I0J-600D01*
G01X39157Y340903D02*
Y346454D01*
G01X32043Y340903D02*
Y346454D01*
G01X32642Y340303D02*
X38557D01*
G01X32642D02*
G02X32042Y340903I0J600D01*
G01X39157D02*
G02X38557Y340303I-600J0D01*
G01X31148Y340903D02*
Y346454D01*
G01X39157Y349614D02*
Y355165D01*
G01X32043Y349614D02*
Y355165D01*
G01X31148Y349614D02*
Y355165D01*
G01X32642Y355765D02*
X38557D01*
G01X32042Y355165D02*
G02X32642Y355765I600J0D01*
G01X38557D02*
G02X39157Y355165I0J-600D01*
G01X52841Y14586D02*
X47639D01*
G01Y18361D02*
Y14586D01*
G01Y25492D02*
Y21717D01*
G01X43818Y30704D02*
X44425Y31303D01*
G01X43818Y30704D02*
Y26702D01*
G01D02*
X44425Y26180D01*
G01X52841Y25492D02*
X47639D01*
G01X52868Y8759D02*
Y3208D01*
G01X59384Y2608D02*
X53468D01*
G01D02*
G02X52868Y3208I0J600D01*
G01Y17470D02*
Y11919D01*
G01X59384Y18070D02*
X53468D01*
G01X52868Y17470D02*
G02X53468Y18070I600J0D01*
G01X52841Y18361D02*
Y14586D01*
G01Y25492D02*
Y21717D01*
G01X57547Y17738D02*
X53772D01*
G01D02*
Y22940D01*
G01X54425Y26180D02*
X55032Y26775D01*
G01Y30776D02*
Y26775D01*
G01X54425Y31298D02*
X55032Y30776D01*
G01X57547Y22940D02*
X53772D01*
G01X56432Y29640D02*
Y35289D01*
G01Y29640D02*
X69289D01*
G01X56432Y42189D02*
Y47838D01*
G01D02*
X69289D01*
G01X59982Y8759D02*
Y3208D01*
G01X59984D02*
G02X59384Y2608I-600J0D01*
G01X67836Y3805D02*
X60614D01*
G01Y8864D02*
Y3805D01*
G01X59982Y17470D02*
Y11919D01*
G01X60614Y17673D02*
Y12614D01*
G01X59384Y18070D02*
G02X59984Y17470I0J-600D01*
G01X64678Y17738D02*
X60903D01*
G01X64678D02*
Y22940D01*
G01X67836Y17673D02*
X60614D01*
G01X64678Y22940D02*
X60903D01*
G01X66743Y364969D02*
Y370520D01*
G01X67342Y364369D02*
X73257D01*
G01X67342D02*
G02X66742Y364969I0J600D01*
G01X66743Y373680D02*
Y379231D01*
G01X67342Y379831D02*
X73257D01*
G01X66742Y379231D02*
G02X67342Y379831I600J0D01*
G01X67836Y8864D02*
Y3805D01*
G01Y17673D02*
Y12614D01*
G01X69289Y29640D02*
Y35289D01*
G01Y42189D02*
Y47838D01*
G01X73857Y364969D02*
Y370520D01*
G01Y364969D02*
G02X73257Y364369I-600J0D01*
G01X74189Y365166D02*
Y370225D01*
G01Y365166D02*
X81411D01*
G01X73857Y373680D02*
Y379231D01*
G01X74189Y373975D02*
Y379034D01*
G01X73257Y379831D02*
G02X73857Y379231I0J-600D01*
G01X74189Y379034D02*
X81411D01*
G01X86401Y174252D02*
X81199D01*
G01Y178027D02*
Y174252D01*
G01X86401Y185158D02*
X81199D01*
G01D02*
Y181383D01*
G01X81411Y365166D02*
Y370225D01*
G01Y373975D02*
Y379034D01*
G01X86401Y178027D02*
Y174252D01*
G01Y185158D02*
Y181383D01*
G01X136143Y374520D02*
Y368969D01*
G01X142658Y368369D02*
X136743D01*
G01D02*
G02X136143Y368969I0J600D01*
G01Y383231D02*
Y377680D01*
G01X142658Y383831D02*
X136743D01*
G01X136143Y383231D02*
G02X136743Y383831I600J0D01*
G01X143257Y374520D02*
Y368969D01*
G01X143258D02*
G02X142658Y368369I-600J0D01*
G01X143257Y383231D02*
Y377680D01*
G01X142658Y383831D02*
G02X143258Y383231I0J-600D01*
G01X151648Y368969D02*
Y374520D01*
G01X152247Y368369D02*
X158162D01*
G01X152247D02*
G02X151647Y368969I0J600D01*
G01X158762D02*
G02X158162Y368369I-600J0D01*
G01X151648Y377680D02*
Y383231D01*
G01X152247Y383831D02*
X158162D01*
G01X151647Y383231D02*
G02X152247Y383831I600J0D01*
G01X158162D02*
G02X158762Y383231I0J-600D01*
G01Y368969D02*
Y374520D01*
G01X159150Y362241D02*
X166050D01*
G01Y363404D02*
Y362241D01*
G01X159150Y367959D02*
X166050D01*
G01D02*
Y366796D01*
G01X160743Y367959D02*
Y362241D01*
G01X158762Y377680D02*
Y383231D01*
G01X174706Y187795D02*
X178385Y184116D01*
G01X174706Y187795D02*
X177375Y190464D01*
G01X176708Y200857D02*
X179377Y198188D01*
G01X171665Y205900D02*
X174335Y203230D01*
G01X179162Y213397D02*
X175484Y209718D01*
G01D02*
X178153Y207048D01*
G01X175344Y209578D02*
X178014Y206909D01*
G01X175344Y209578D02*
X171665Y205900D01*
G01X184110Y178390D02*
X187789Y174712D01*
G01X184110Y178390D02*
X186780Y181060D01*
G01X178385Y184116D02*
X181054Y186786D01*
G01X178454Y184047D02*
X181123Y186717D01*
G01X178454Y184047D02*
X182132Y180368D01*
G01D02*
X184802Y183038D01*
G01X179748Y192837D02*
X182418Y195507D01*
G01D02*
X186097Y191828D01*
G01X183427Y189158D02*
X186097Y191828D01*
G01X183496Y189090D02*
X186166Y191759D01*
G01X186874Y205685D02*
X183196Y202006D01*
G01X180526Y204675D02*
X183196Y202006D01*
G01X180386Y204536D02*
X183056Y201866D01*
G01D02*
X179377Y198188D01*
G01X184205Y208354D02*
X186874Y205685D01*
G01X179162Y213397D02*
X181832Y210727D01*
G01X181896Y216131D02*
X184566Y213461D01*
G01X185575Y219809D02*
X188245Y217140D01*
G01X185575Y219809D02*
X181896Y216131D01*
G01X187789Y174712D02*
X190459Y177381D01*
G01X187717Y174784D02*
X190386Y177454D01*
G01X187717Y174784D02*
X191395Y171105D01*
G01D02*
X194065Y173775D01*
G01X189153Y183433D02*
X191822Y186102D01*
G01D02*
X195501Y182423D01*
G01X192832Y179754D02*
X195501Y182423D01*
G01X192759Y179827D02*
X195429Y182496D01*
G01X187175Y185411D02*
X189844Y188080D01*
G01X186166Y191759D02*
X189844Y188080D01*
G01X190618Y214767D02*
X193287Y212097D01*
G01D02*
X189608Y208419D01*
G01X186939Y211088D02*
X189608Y208419D01*
G01X194456Y218605D02*
X197126Y215936D01*
G01X189414Y223648D02*
X192083Y220978D01*
G01X193092Y227326D02*
X195762Y224657D01*
G01X193092Y227326D02*
X189414Y223648D01*
G01X202301Y101722D02*
Y97947D01*
G01D02*
X197099D01*
G01Y101722D02*
Y97947D01*
G01X202301Y108853D02*
Y105078D01*
G01Y108853D02*
X197099D01*
G01D02*
Y105078D01*
G01X200826Y145452D02*
Y141676D01*
G01D02*
X195624D01*
G01Y145452D02*
Y141676D01*
G01X200826Y152583D02*
Y148807D01*
G01X195624Y152583D02*
Y148807D01*
G01X206026Y141676D02*
X200824D01*
G01Y145452D02*
Y141676D01*
G01Y152583D02*
Y148807D01*
G01X200826Y152583D02*
X195624D01*
G01X206026D02*
X200824D01*
G01X206825Y171451D02*
X203146Y167772D01*
G01X200477Y170442D02*
X203146Y167772D01*
G01X204155Y174120D02*
X206825Y171451D01*
G01X199113Y179163D02*
X201782Y176493D01*
G01X199113Y179163D02*
X195434Y175484D01*
G01D02*
X198104Y172814D01*
G01X196438Y176148D02*
X199107Y178817D01*
G01X195429Y182496D02*
X199107Y178817D01*
G01X207376Y212966D02*
X203697Y216645D01*
G01X206367Y219314D02*
X203697Y216645D01*
G01X206369Y219313D02*
X203699Y216643D01*
G01D02*
X200020Y220322D01*
G01X202690Y222991D02*
X200020Y220322D01*
G01X202692Y222990D02*
X200022Y220320D01*
G01D02*
X196343Y223999D01*
G01X198135Y222284D02*
X200804Y219615D01*
G01D02*
X197126Y215936D01*
G01X199013Y226668D02*
X196343Y223999D01*
G01X207734Y228032D02*
X204055Y231711D01*
G01D02*
X201386Y229041D01*
G01X210147Y97215D02*
Y92013D01*
G01D02*
X213922D01*
G01X210147Y97215D02*
X213922D01*
G01X213601Y102127D02*
X208399D01*
G01Y105902D02*
Y102127D01*
G01X213601Y113033D02*
X208399D01*
G01D02*
Y109258D01*
G01X206026Y145452D02*
Y141676D01*
G01Y152583D02*
Y148807D01*
G01X215737Y158755D02*
X212059Y155076D01*
G01D02*
X214728Y152407D01*
G01X215437Y204905D02*
X211758Y208584D01*
G01X214428Y211253D02*
X211758Y208584D01*
G01X210046Y215636D02*
X207376Y212966D01*
G01X215088Y220678D02*
X212419Y218009D01*
G01X215088Y220678D02*
X211409Y224357D01*
G01D02*
X208740Y221687D01*
G01X211411Y224355D02*
X208742Y221686D01*
G01X211411Y224355D02*
X207732Y228034D01*
G01D02*
X205063Y225364D01*
G01X207734Y228032D02*
X205065Y225362D01*
G01X221053Y97215D02*
Y92013D01*
G01X217278D02*
X221053D01*
G01X217278Y97215D02*
X221053D01*
G01X213601Y105902D02*
Y102127D01*
G01Y113033D02*
Y109258D01*
G01X223449Y151043D02*
X219771Y147364D01*
G01X217101Y150034D02*
X219771Y147364D01*
G01X220780Y153712D02*
X223449Y151043D01*
G01X215737Y158755D02*
X218407Y156085D01*
G01X218107Y207575D02*
X215437Y204905D01*
G01X223149Y212617D02*
X220480Y209948D01*
G01X223149Y212617D02*
X219470Y216296D01*
G01D02*
X216801Y213626D01*
G01X235139Y162732D02*
X231460Y159053D01*
G01X228790Y161723D02*
X231460Y159053D01*
G01X227427Y170444D02*
X230096Y167775D01*
G01X227427Y170444D02*
X223748Y166765D01*
G01D02*
X226417Y164096D01*
G01X233664Y234069D02*
X229986Y237748D01*
G01X232655Y240417D02*
X229986Y237748D01*
G01X232469Y165402D02*
X235139Y162732D01*
G01X242975Y185470D02*
X239296Y181792D01*
G01D02*
X241965Y179122D01*
G01X242998Y224735D02*
X239320Y228414D01*
G01X241989Y231084D02*
X239320Y228414D01*
G01X241001Y232072D02*
X238331Y229402D01*
G01D02*
X234653Y233081D01*
G01X237322Y235750D02*
X234653Y233081D01*
G01X242365Y240793D02*
X239695Y238124D01*
G01X236334Y236739D02*
X233664Y234069D01*
G01X241376Y241781D02*
X238707Y239112D01*
G01X241376Y241781D02*
X237698Y245460D01*
G01D02*
X235028Y242790D01*
G01X235699Y275801D02*
X239474D01*
G01X235699D02*
Y270599D01*
G01D02*
X239474D01*
G01X243450Y49896D02*
Y51059D01*
G01X250350Y45341D02*
X243450D01*
G01D02*
Y46504D01*
G01X248757Y45341D02*
Y51059D01*
G01X250350D02*
X243450D01*
G01X248678Y56901D02*
X252453D01*
G01X248678Y51699D02*
X252453D01*
G01X241547Y56901D02*
X245322D01*
G01X241547D02*
Y51699D01*
G01D02*
X245322D01*
G01X250350Y64341D02*
X243450D01*
G01D02*
Y65504D01*
G01X248757Y64341D02*
Y70059D01*
G01X250350D02*
X243450D01*
G01Y68896D02*
Y70059D01*
G01X248678Y75901D02*
X252453D01*
G01X248678Y70699D02*
X252453D01*
G01X241547Y75901D02*
X245322D01*
G01X241547D02*
Y70699D01*
G01D02*
X245322D01*
G01X250687Y177759D02*
X247008Y174080D01*
G01X244338Y176749D02*
X247008Y174080D01*
G01X248017Y180428D02*
X250687Y177759D01*
G01X242975Y185470D02*
X245644Y182801D01*
G01X248076Y180443D02*
X250745Y177774D01*
G01X246712Y189164D02*
X249382Y186495D01*
G01X246712Y189164D02*
X243034Y185486D01*
G01D02*
X245703Y182816D01*
G01X250236Y222837D02*
X247566Y220167D01*
G01D02*
X243888Y223846D01*
G01X246557Y226516D02*
X243888Y223846D01*
G01X251599Y231558D02*
X248930Y228889D01*
G01X245668Y227405D02*
X242998Y224735D01*
G01X250710Y232447D02*
X248041Y229778D01*
G01X250710Y232447D02*
X247032Y236126D01*
G01D02*
X244362Y233457D01*
G01X246043Y237114D02*
X243374Y234445D01*
G01X246043Y237114D02*
X242365Y240793D01*
G01X242830Y275801D02*
X246605D01*
G01D02*
Y270599D01*
G01X242830D02*
X246605D01*
G01X252453Y56901D02*
Y51699D01*
G01Y75901D02*
Y70699D01*
G01X254424Y181452D02*
X250745Y177774D01*
G01X251755Y184122D02*
X254424Y181452D01*
G01X255278Y227879D02*
X252609Y225210D01*
G01X255278Y227879D02*
X251599Y231558D01*
G01X266347Y56501D02*
X270122D01*
G01X266347D02*
Y51299D01*
G01D02*
X270122D01*
G01X266147Y75701D02*
X269922D01*
G01X266147D02*
Y70499D01*
G01D02*
X269922D01*
G01X261982Y345938D02*
X270418D01*
G01X261982D02*
Y358349D01*
G01D02*
X270418D01*
G01X268250Y49496D02*
Y50659D01*
G01X275150Y44941D02*
X268250D01*
G01D02*
Y46104D01*
G01X273557Y44941D02*
Y50659D01*
G01X275150D02*
X268250D01*
G01X273478Y56501D02*
X277253D01*
G01X273478Y51299D02*
X277253D01*
G01X274950Y64141D02*
X268050D01*
G01D02*
Y65304D01*
G01X273357Y64141D02*
Y69859D01*
G01X274950D02*
X268050D01*
G01Y68696D02*
Y69859D01*
G01X273278Y75701D02*
X277053D01*
G01X273278Y70499D02*
X277053D01*
G01X270418Y345938D02*
Y358349D01*
G01X290611Y9266D02*
X283389D01*
G01Y14325D02*
Y9266D01*
G01Y23134D02*
Y18075D01*
G01X290611Y23134D02*
X283389D01*
G01X277253Y56501D02*
Y51299D01*
G01X277053Y75701D02*
Y70499D01*
G01X288819Y345479D02*
X285044D01*
G01D02*
Y350682D01*
G01X288819D02*
X285044D01*
G01X288825Y350779D02*
X285050D01*
G01D02*
Y355982D01*
G01X288825D02*
X285050D01*
G01X290943Y14620D02*
Y9069D01*
G01X297458Y8469D02*
X291543D01*
G01D02*
G02X290943Y9069I0J600D01*
G01X290611Y14325D02*
Y9266D01*
G01X290943Y23331D02*
Y17780D01*
G01X290611Y23134D02*
Y18075D01*
G01X297458Y23931D02*
X291543D01*
G01X290943Y23331D02*
G02X291543Y23931I600J0D01*
G01X295950Y345479D02*
X292175D01*
G01X295950Y350682D02*
X292175D01*
G01X295956Y350779D02*
X292181D01*
G01X295956Y355982D02*
X292181D01*
G01X298057Y14620D02*
Y9069D01*
G01X298058D02*
G02X297458Y8469I-600J0D01*
G01X298057Y23331D02*
Y17780D01*
G01X297458Y23931D02*
G02X298058Y23331I0J-600D01*
G01X295950Y345479D02*
Y350682D01*
G01X295956Y350779D02*
Y355982D01*
G01X327422Y55799D02*
X323647D01*
G01D02*
Y61001D01*
G01X334553Y55799D02*
X330778D01*
G01X327422Y61001D02*
X323647D01*
G01X334553D02*
X330778D01*
G01X334553Y55799D02*
Y61001D01*
G01X349379Y155544D02*
Y159319D01*
G01Y155544D02*
X354582D01*
G01X344079Y155550D02*
Y159325D01*
G01Y155550D02*
X349282D01*
G01D02*
Y159325D01*
G01X349379Y162675D02*
Y166450D01*
G01D02*
X354582D01*
G01X344079Y162681D02*
Y166456D01*
G01D02*
X349282D01*
G01Y162681D02*
Y166456D01*
G01X344538Y189518D02*
Y181082D01*
G01D02*
X356949D01*
G01X344538Y189518D02*
X356949D01*
G01X349279Y240875D02*
Y244650D01*
G01Y233744D02*
Y237519D01*
G01Y233744D02*
X354482D01*
G01X343979Y240881D02*
Y244656D01*
G01X349182Y240881D02*
Y244656D01*
G01X343979Y233750D02*
Y237525D01*
G01Y233750D02*
X349182D01*
G01D02*
Y237525D01*
G01X349279Y244650D02*
X354482D01*
G01X343979Y244656D02*
X349182D01*
G01X344438Y267718D02*
Y259282D01*
G01D02*
X356849D01*
G01X344438Y267718D02*
X356849D01*
G01X349179Y310844D02*
Y314619D01*
G01Y310844D02*
X354382D01*
G01X343879Y310850D02*
Y314625D01*
G01Y310850D02*
X349082D01*
G01D02*
Y314625D01*
G01X349179Y317975D02*
Y321750D01*
G01D02*
X354382D01*
G01X343879Y317981D02*
Y321756D01*
G01D02*
X349082D01*
G01Y317981D02*
Y321756D01*
G01X344338Y344818D02*
Y336382D01*
G01D02*
X356749D01*
G01X344338Y344818D02*
X356749D01*
G01X354582Y155544D02*
Y159319D01*
G01Y162675D02*
Y166450D01*
G01X356949Y189518D02*
Y181082D01*
G01X354482Y240875D02*
Y244650D01*
G01Y233744D02*
Y237519D01*
G01X356849Y267718D02*
Y259282D01*
G01X354382Y310844D02*
Y314619D01*
G01Y317975D02*
Y321750D01*
G01X356749Y344818D02*
Y336382D01*
G54D11*
G01X76100Y48063D02*
Y35463D01*
G01X82400Y43037D02*
X76100Y43022D01*
G01X82400Y47963D02*
Y35563D01*
G01X97298Y15439D02*
Y27839D01*
G01X103598Y15339D02*
Y27939D01*
G01X97298Y20365D02*
X103598Y20380D01*
G01X130710Y39771D02*
Y27171D01*
G01X137010Y34745D02*
X130710Y34730D01*
G01X137010Y39671D02*
Y27271D01*
G54D12*
G01X85117Y16112D02*
Y12208D01*
G01Y8632D02*
Y8058D01*
G01D02*
X92203D01*
G01X85117Y20263D02*
Y19688D01*
G01Y20263D02*
X92203D01*
G01Y12372D02*
Y12208D01*
G01Y8632D02*
Y8058D01*
G01Y20263D02*
Y19688D01*
G01Y16112D02*
Y15948D01*
G54D13*
G01X44417Y26180D02*
X47417D01*
G01X44417Y31298D02*
X47417D01*
G01X51434D02*
X54434D01*
G01X51434Y26180D02*
X54434D01*
G54D14*
G01X1206Y249084D02*
Y252234D01*
G01X2426Y247865D02*
X5576D01*
G01X2426D02*
G02X1206Y249085I0J1220D01*
G01X1205Y254440D02*
Y257590D01*
G01X2424Y258809D02*
X5574D01*
G01X1205Y257590D02*
G02X2424Y258810I1219J1D01*
G01X11797Y73405D02*
X8647D01*
G01X7428Y74624D02*
Y77774D01*
G01X8647Y73405D02*
G02X7427Y74624I-1J1219D01*
G01X11797Y78994D02*
X8647D01*
G01X7427Y77774D02*
G02X8647Y78994I1220J0D01*
G01X11497Y112705D02*
X8347D01*
G01X7128Y113924D02*
Y117074D01*
G01X8347Y112705D02*
G02X7127Y113924I-1J1219D01*
G01X11497Y118294D02*
X8347D01*
G01X7127Y117074D02*
G02X8347Y118294I1220J0D01*
G01X6796Y249084D02*
Y252234D01*
G01Y249085D02*
G02X5576Y247865I-1220J0D01*
G01X6794Y254440D02*
Y257590D01*
G01X5574Y258810D02*
G02X6794Y257590I0J-1220D01*
G01X17153Y73406D02*
X14003D01*
G01X18372Y74626D02*
Y77776D01*
G01Y74626D02*
G02X17152Y73406I-1220J0D01*
G01X17153Y78996D02*
X14003D01*
G01X17152D02*
G02X18372Y77776I0J-1220D01*
G01X16853Y112706D02*
X13703D01*
G01X18072Y113926D02*
Y117076D01*
G01Y113926D02*
G02X16852Y112706I-1220J0D01*
G01X16853Y118296D02*
X13703D01*
G01X16852D02*
G02X18072Y117076I0J-1220D01*
G01X20007Y247705D02*
X16857D01*
G01X15638Y248924D02*
Y252074D01*
G01X16857Y247705D02*
G02X15638Y248924I-1J1219D01*
G01X20007Y254479D02*
X16857D01*
G01X15638Y255698D02*
Y258848D01*
G01X15638D02*
G02X16857Y260068I1220J0D01*
G01Y254479D02*
G02X15638Y255698I-1J1219D01*
G01X20007Y253294D02*
X16857D01*
G01X15638Y252074D02*
G02X16857Y253294I1220J0D01*
G01X20007Y261605D02*
X16857D01*
G01X20007Y267194D02*
X16857D01*
G01X15638Y262824D02*
Y265974D01*
G01X15638D02*
G02X16857Y267194I1220J0D01*
G01Y261605D02*
G02X15638Y262824I-1J1219D01*
G01X20007Y260068D02*
X16857D01*
G01X16041Y275900D02*
X20541D01*
G01X15541D02*
X16041D01*
G01X14541Y276900D02*
X15541Y275900D01*
G01X14541Y282400D02*
Y276900D01*
G01Y282900D02*
Y282400D01*
G01Y282900D02*
X15541Y283900D01*
G01D02*
X20541D01*
G01X16806Y314347D02*
Y317497D01*
G01X18026Y313128D02*
X21176D01*
G01X18026D02*
G02X16806Y314348I0J1220D01*
G01X22396D02*
G02X21176Y313128I-1220J0D01*
G01X16805Y319703D02*
Y322853D01*
G01D02*
G02X18024Y324073I1219J1D01*
G01Y324072D02*
X21174D01*
G01Y324073D02*
G02X22394Y322853I0J-1220D01*
G01X29766Y45886D02*
Y49036D01*
G01X30986Y44667D02*
X34136D01*
G01X30986D02*
G02X29766Y45887I0J1220D01*
G01X23166Y45886D02*
Y49036D01*
G01X28756Y45886D02*
Y49036D01*
G01X24386Y44667D02*
X27536D01*
G01X24386D02*
G02X23166Y45887I0J1220D01*
G01X28756D02*
G02X27536Y44667I-1220J0D01*
G01X29765Y51242D02*
Y54392D01*
G01X30984Y55611D02*
X34134D01*
G01X29765Y54392D02*
G02X30984Y55612I1219J1D01*
G01X23165Y51242D02*
Y54392D01*
G01X28754Y51242D02*
Y54392D01*
G01X24384Y55611D02*
X27534D01*
G01Y55612D02*
G02X28754Y54392I0J-1220D01*
G01X23165D02*
G02X24384Y55612I1219J1D01*
G01X25364Y247706D02*
X22214D01*
G01X26582Y248926D02*
Y252076D01*
G01Y248926D02*
G02X25362Y247706I-1220J0D01*
G01X25364Y254480D02*
X22214D01*
G01X26582Y255700D02*
Y258850D01*
G01Y255700D02*
G02X25362Y254480I-1220J0D01*
G01Y260070D02*
G02X26582Y258850I0J-1220D01*
G01X25364Y253296D02*
X22214D01*
G01X25362D02*
G02X26582Y252076I0J-1220D01*
G01X25364Y261606D02*
X22214D01*
G01X25364Y267196D02*
X22214D01*
G01X26582Y262826D02*
Y265976D01*
G01Y262826D02*
G02X25362Y261606I-1220J0D01*
G01Y267196D02*
G02X26582Y265976I0J-1220D01*
G01X25364Y260070D02*
X22214D01*
G01X29542Y282900D02*
Y277400D01*
G01D02*
Y276900D01*
G01X28541Y275900D02*
X29542Y276900D01*
G01X23541Y275900D02*
X28541D01*
G01X23541Y283900D02*
X28041D01*
G01D02*
X28541D01*
G01D02*
X29542Y282900D01*
G01X22396Y314347D02*
Y317497D01*
G01X22394Y319703D02*
Y322853D01*
G01X40757Y37783D02*
X37607D01*
G01X36388Y39002D02*
Y42152D01*
G01X37607Y37783D02*
G02X36387Y39002I-1J1219D01*
G01X35356Y45886D02*
Y49036D01*
G01Y45887D02*
G02X34136Y44667I-1220J0D01*
G01X40757Y43372D02*
X37607D01*
G01X36387Y42152D02*
G02X37607Y43372I1220J0D01*
G01X40758Y44144D02*
X37608D01*
G01X40758Y49733D02*
X37608D01*
G01X36389Y45363D02*
Y48513D01*
G01X36387D02*
G02X37608Y49733I1220J0D01*
G01Y44144D02*
G02X36387Y45363I-1J1219D01*
G01X35354Y51242D02*
Y54392D01*
G01X34134Y55612D02*
G02X35354Y54392I0J-1220D01*
G01X46113Y37784D02*
X42963D01*
G01X47332Y39004D02*
Y42154D01*
G01Y39004D02*
G02X46112Y37784I-1220J0D01*
G01X46113Y43374D02*
X42963D01*
G01X46112D02*
G02X47332Y42154I0J-1220D01*
G01X46113Y44145D02*
X42963D01*
G01X46113Y49735D02*
X42963D01*
G01X47332Y45365D02*
Y48515D01*
G01Y45365D02*
G02X46112Y44145I-1220J0D01*
G01Y49735D02*
G02X47332Y48515I0J-1220D01*
G01X51787Y330906D02*
X48637D01*
G01X46431Y330905D02*
X43281D01*
G01X42062Y332124D02*
Y335274D01*
G01X43281Y330905D02*
G02X42061Y332124I-1J1219D01*
G01X51787Y323806D02*
X48637D01*
G01X46431Y323805D02*
X43281D01*
G01X51787Y329396D02*
X48637D01*
G01X46431Y329394D02*
X43281D01*
G01X42062Y325024D02*
Y328174D01*
G01X42061D02*
G02X43281Y329394I1220J0D01*
G01Y323805D02*
G02X42061Y325024I-1J1219D01*
G01X51787Y336496D02*
X48637D01*
G01X46431Y336494D02*
X43281D01*
G01X42061Y335274D02*
G02X43281Y336494I1220J0D01*
G01X53006Y332126D02*
Y335276D01*
G01Y332126D02*
G02X51786Y330906I-1220J0D01*
G01X53006Y325026D02*
Y328176D01*
G01Y325026D02*
G02X51786Y323806I-1220J0D01*
G01Y329396D02*
G02X53006Y328176I0J-1220D01*
G01X51786Y336496D02*
G02X53006Y335276I0J-1220D01*
G01X68757Y49644D02*
X65607D01*
G01D02*
G02X64387Y50863I-1J1219D01*
G01X68858Y56244D02*
X65708D01*
G01X64489Y57463D02*
Y60613D01*
G01X65708Y56244D02*
G02X64487Y57463I-1J1219D01*
G01X68757Y55233D02*
X65607D01*
G01X64388Y50863D02*
Y54013D01*
G01X64387D02*
G02X65607Y55233I1220J0D01*
G01X68858Y61833D02*
X65708D01*
G01X64487Y60613D02*
G02X65708Y61833I1220J0D01*
G01X65206Y159493D02*
Y162643D01*
G01X66426Y158274D02*
X69576D01*
G01X66426D02*
G02X65206Y159494I0J1220D01*
G01X65205Y164849D02*
Y167999D01*
G01D02*
G02X66424Y169219I1219J1D01*
G01X69573Y176728D02*
X66423D01*
G01Y176727D02*
G02X65203Y177947I0J1220D01*
G01X66424Y169218D02*
X69574D01*
G01X65201Y186453D02*
Y183303D01*
G01X65203Y181097D02*
Y177947D01*
G01X65201Y186452D02*
G02X66421Y187672I1220J0D01*
G01X69571D02*
X66421D01*
G01X60206Y366147D02*
Y369297D01*
G01X65796Y366147D02*
Y369297D01*
G01X61426Y364928D02*
X64576D01*
G01X61426D02*
G02X60206Y366148I0J1220D01*
G01X65796D02*
G02X64576Y364928I-1220J0D01*
G01X60205Y371503D02*
Y374653D01*
G01X65794Y371503D02*
Y374653D01*
G01X61424Y375872D02*
X64574D01*
G01Y375873D02*
G02X65794Y374653I0J-1220D01*
G01X60205D02*
G02X61424Y375873I1219J1D01*
G01X77086Y21967D02*
G02X75866Y23187I0J1220D01*
G01Y23186D02*
Y26336D01*
G01X75865Y28542D02*
Y31692D01*
G01D02*
G02X77084Y32912I1219J1D01*
G01X75555Y42136D02*
Y38986D01*
G01X69966Y42136D02*
Y38986D01*
G01X74336Y37767D02*
X71186D01*
G01Y37766D02*
G02X69966Y38986I0J1220D01*
G01X75555D02*
G02X74336Y37766I-1219J-1D01*
G01X74113Y49645D02*
X70963D01*
G01X75332Y50865D02*
G02X74112Y49645I-1220J0D01*
G01X75554Y47492D02*
Y44342D01*
G01X69964Y47492D02*
Y44342D01*
G01X74334Y48711D02*
X71184D01*
G01X74334D02*
G02X75554Y47491I0J-1220D01*
G01X69964D02*
G02X71184Y48711I1220J0D01*
G01X74213Y56245D02*
X71063D01*
G01X75432Y57465D02*
Y60615D01*
G01Y57465D02*
G02X74213Y56245I-1220J0D01*
G01X74113Y55235D02*
X70963D01*
G01X75332Y50865D02*
Y54015D01*
G01X74112Y55235D02*
G02X75332Y54015I0J-1220D01*
G01X74213Y61835D02*
X71063D01*
G01X74213D02*
G02X75432Y60615I0J-1220D01*
G01X70796Y159493D02*
Y162643D01*
G01Y159494D02*
G02X69576Y158274I-1220J0D01*
G01X71906Y159493D02*
Y162643D01*
G01X73126Y158274D02*
X76276D01*
G01X73126D02*
G02X71906Y159494I0J1220D01*
G01X77496D02*
G02X76276Y158274I-1220J0D01*
G01X70794Y164849D02*
Y167999D01*
G01X69574Y169219D02*
G02X70794Y167999I0J-1220D01*
G01X71905Y164849D02*
Y167999D01*
G01D02*
G02X73124Y169219I1219J1D01*
G01X70792Y177947D02*
G02X69573Y176727I-1219J-1D01*
G01X76276Y176728D02*
X73126D01*
G01Y176727D02*
G02X71906Y177947I0J1220D01*
G01X77495D02*
G02X76276Y176727I-1219J-1D01*
G01X73124Y169218D02*
X76274D01*
G01Y169219D02*
G02X77494Y167999I0J-1220D01*
G01X70791Y186453D02*
Y183303D01*
G01X70792Y181097D02*
Y177947D01*
G01X69571Y187672D02*
G02X70791Y186452I0J-1220D01*
G01X71904Y186453D02*
Y183303D01*
G01X71906Y181097D02*
Y177947D01*
G01X71904Y186452D02*
G02X73124Y187672I1220J0D01*
G01X76274D02*
X73124D01*
G01X76274D02*
G02X77494Y186452I0J-1220D01*
G01X83786Y22067D02*
X86936D01*
G01X83786D02*
G02X82566Y23287I0J1220D01*
G01X77086Y21967D02*
X80236D01*
G01X81456Y23187D02*
G02X80236Y21967I-1220J0D01*
G01X82566Y23286D02*
Y26436D01*
G01X82565Y28642D02*
Y31792D01*
G01D02*
G02X83784Y33012I1219J1D01*
G01X81456Y23186D02*
Y26336D01*
G01X81454Y28542D02*
Y31692D01*
G01X80234Y32912D02*
G02X81454Y31692I0J-1220D01*
G01X83264Y43592D02*
Y40442D01*
G01X83266Y38236D02*
Y35086D01*
G01X87636Y33867D02*
X84486D01*
G01Y33866D02*
G02X83266Y35086I0J1220D01*
G01X83784Y33011D02*
X86934D01*
G01X77084Y32911D02*
X80234D01*
G01X87634Y44811D02*
X84484D01*
G01X83264Y43591D02*
G02X84484Y44811I1220J0D01*
G01X77496Y159493D02*
Y162643D01*
G01X77494Y164849D02*
Y167999D01*
G01Y186453D02*
Y183303D01*
G01X77495Y181097D02*
Y177947D01*
G01X88156Y23287D02*
G02X86936Y22067I-1220J0D01*
G01X88156Y23286D02*
Y26436D01*
G01X88154Y28642D02*
Y31792D01*
G01X86934Y33012D02*
G02X88154Y31792I0J-1220D01*
G01X88854Y43592D02*
Y40442D01*
G01X88855Y38236D02*
Y35086D01*
G01D02*
G02X87636Y33866I-1219J-1D01*
G01X87634Y44811D02*
G02X88854Y43591I0J-1220D01*
G01X90406Y184547D02*
Y187697D01*
G01X91626Y183328D02*
X94776D01*
G01X91626D02*
G02X90406Y184548I0J1220D01*
G01X95996D02*
G02X94776Y183328I-1220J0D01*
G01X90405Y189903D02*
Y193053D01*
G01X91624Y194272D02*
X94774D01*
G01Y194273D02*
G02X95994Y193053I0J-1220D01*
G01X90405D02*
G02X91624Y194273I1219J1D01*
G01X102855Y6636D02*
Y3486D01*
G01X97266Y6636D02*
Y3486D01*
G01X101636Y2267D02*
X98486D01*
G01Y2266D02*
G02X97266Y3486I0J1220D01*
G01X102855D02*
G02X101636Y2266I-1219J-1D01*
G01X103966Y6636D02*
Y3486D01*
G01X105186Y2266D02*
G02X103966Y3486I0J1220D01*
G01X102854Y11992D02*
Y8842D01*
G01X97264Y11992D02*
Y8842D01*
G01X101634Y13211D02*
X98484D01*
G01X101634D02*
G02X102854Y11991I0J-1220D01*
G01X97264D02*
G02X98484Y13211I1220J0D01*
G01X103965Y11992D02*
Y8842D01*
G01Y11991D02*
G02X105184Y13211I1220J0D01*
G01X103966Y21486D02*
Y24636D01*
G01X105186Y20267D02*
G02X103966Y21487I0J1220D01*
G01X103965Y26842D02*
Y29992D01*
G01D02*
G02X105184Y31212I1219J1D01*
G01X95996Y184547D02*
Y187697D01*
G01X96006Y184547D02*
Y187697D01*
G01X101596Y184547D02*
Y187697D01*
G01X97226Y183328D02*
X100376D01*
G01X97226D02*
G02X96006Y184548I0J1220D01*
G01X101596D02*
G02X100376Y183328I-1220J0D01*
G01X95994Y189903D02*
Y193053D01*
G01X96005Y189903D02*
Y193053D01*
G01X101594Y189903D02*
Y193053D01*
G01X97224Y194272D02*
X100374D01*
G01Y194273D02*
G02X101594Y193053I0J-1220D01*
G01X96005D02*
G02X97224Y194273I1219J1D01*
G01X110666Y6636D02*
Y3486D01*
G01X115036Y2267D02*
X111886D01*
G01Y2266D02*
G02X110666Y3486I0J1220D01*
G01X109556Y6636D02*
Y3486D01*
G01X108336Y2267D02*
X105186D01*
G01X109556Y3486D02*
G02X108336Y2266I-1219J-1D01*
G01X110665Y11992D02*
Y8842D01*
G01X115034Y13211D02*
X111884D01*
G01X110665Y11991D02*
G02X111884Y13211I1220J0D01*
G01X109554Y11992D02*
Y8842D01*
G01X108334Y13211D02*
X105184D01*
G01X108334D02*
G02X109554Y11991I0J-1220D01*
G01X109556Y21486D02*
Y24636D01*
G01X105186Y20267D02*
X108336D01*
G01X109556Y21487D02*
G02X108336Y20267I-1220J0D01*
G01X110666Y21886D02*
Y25036D01*
G01X111886Y20667D02*
X115036D01*
G01X111886D02*
G02X110666Y21887I0J1220D01*
G01X112088Y19413D02*
Y16263D01*
G01Y19413D02*
G02X113308Y20633I1220J0D01*
G01Y15043D02*
G02X112088Y16263I0J1220D01*
G01X109554Y26842D02*
Y29992D01*
G01X105184Y31211D02*
X108334D01*
G01Y31212D02*
G02X109554Y29992I0J-1220D01*
G01X110665Y27242D02*
Y30392D01*
G01X111884Y31611D02*
X115034D01*
G01X110665Y30392D02*
G02X111884Y31612I1219J1D01*
G01X116256Y6636D02*
Y3486D01*
G01D02*
G02X115036Y2266I-1219J-1D01*
G01X116254Y11992D02*
Y8842D01*
G01X115034Y13211D02*
G02X116254Y11991I0J-1220D01*
G01X116256Y21886D02*
Y25036D01*
G01Y21887D02*
G02X115036Y20667I-1220J0D01*
G01X113307Y20633D02*
X116457D01*
G01X118663Y20634D02*
X121813D01*
G01X113307Y15043D02*
X116457D01*
G01X118663Y15045D02*
X121813D01*
G01X123033Y16265D02*
G02X121813Y15045I-1220J0D01*
G01Y20634D02*
G02X123033Y19415I1J-1219D01*
G01X116254Y27242D02*
Y30392D01*
G01X115034Y31612D02*
G02X116254Y30392I0J-1220D01*
G01X118006Y363547D02*
Y366697D01*
G01X118005Y368903D02*
Y372053D01*
G01X119226Y362328D02*
X122376D01*
G01X119226D02*
G02X118006Y363548I0J1220D01*
G01X119224Y373272D02*
X122374D01*
G01X118005Y372053D02*
G02X119224Y373273I1219J1D01*
G01X123032Y19415D02*
Y16265D01*
G01X124466Y43186D02*
Y46336D01*
G01X124465Y48542D02*
Y51692D01*
G01X130056Y43186D02*
Y46336D01*
G01X130054Y48542D02*
Y51692D01*
G01X125686Y41967D02*
X128836D01*
G01X125686D02*
G02X124466Y43187I0J1220D01*
G01X130056D02*
G02X128836Y41967I-1220J0D01*
G01X131066Y43186D02*
Y46336D01*
G01X131065Y48542D02*
Y51692D01*
G01X132286Y41967D02*
G02X131066Y43187I0J1220D01*
G01X125684Y52911D02*
X128834D01*
G01Y52912D02*
G02X130054Y51692I0J-1220D01*
G01X124465D02*
G02X125684Y52912I1219J1D01*
G01X131065Y51692D02*
G02X132284Y52912I1219J1D01*
G01X130928Y364574D02*
Y361424D01*
G01Y364574D02*
G02X132148Y365794I1220J0D01*
G01Y360204D02*
G02X130928Y361424I0J1220D01*
G01X124506Y363247D02*
Y366397D01*
G01X124505Y368603D02*
Y371753D01*
G01X130096Y363247D02*
Y366397D01*
G01X130094Y368603D02*
Y371753D01*
G01X125726Y362028D02*
X128876D01*
G01X125726D02*
G02X124506Y363248I0J1220D01*
G01X130096D02*
G02X128876Y362028I-1220J0D01*
G01X123596Y363547D02*
Y366697D01*
G01X123594Y368903D02*
Y372053D01*
G01X123596Y363548D02*
G02X122376Y362328I-1220J0D01*
G01X125724Y372972D02*
X128874D01*
G01Y372973D02*
G02X130094Y371753I0J-1220D01*
G01X124505D02*
G02X125724Y372973I1219J1D01*
G01X122374Y373273D02*
G02X123594Y372053I0J-1220D01*
G01X137832Y43187D02*
Y46337D01*
G01X137830Y48543D02*
Y51693D01*
G01X139051Y41968D02*
X142201D01*
G01X139051D02*
G02X137832Y43188I0J1220D01*
G01X136656Y43186D02*
Y46336D01*
G01X136654Y48542D02*
Y51692D01*
G01X132286Y41967D02*
X135436D01*
G01X136656Y43187D02*
G02X135436Y41967I-1220J0D01*
G01X139049Y52912D02*
X142199D01*
G01X137830Y51693D02*
G02X139049Y52913I1219J1D01*
G01X132284Y52911D02*
X135434D01*
G01Y52912D02*
G02X136654Y51692I0J-1220D01*
G01X132147Y365794D02*
X135297D01*
G01X137503Y365795D02*
X140653D01*
G01X132147Y360204D02*
X135297D01*
G01X137503Y360206D02*
X140653D01*
G01X143421Y43187D02*
Y46337D01*
G01X143419Y48543D02*
Y51693D01*
G01X143421Y43188D02*
G02X142201Y41968I-1220J0D01*
G01X142199Y52913D02*
G02X143419Y51693I0J-1220D01*
G01X141872Y364576D02*
Y361426D01*
G01X141873D02*
G02X140653Y360206I-1220J0D01*
G01Y365795D02*
G02X141873Y364576I1J-1219D01*
G01X145000Y368441D02*
X150500D01*
G01X144500D02*
X145000D01*
G01X144500D02*
X143500Y369441D01*
G01D02*
Y374441D01*
G01Y377441D02*
Y381941D01*
G01D02*
Y382441D01*
G01D02*
X144500Y383442D01*
G01D02*
X150000D01*
G01X150500Y368441D02*
X151500Y369441D01*
G01Y369941D02*
Y374441D01*
G01Y369441D02*
Y369941D01*
G01Y377441D02*
Y382441D01*
G01X150000Y383442D02*
X150500D01*
G01X151500Y382441D02*
X150500Y383442D01*
G01X167986Y195646D02*
X170214Y197873D01*
G01X164035Y197874D02*
X166262Y195646D01*
G01X167987Y195646D02*
G02X166262Y195646I-863J863D01*
G01X164034Y199598D02*
X166261Y201826D01*
G01X167821Y203386D02*
X170048Y205614D01*
G01X164035Y197874D02*
G02Y199599I863J863D01*
G01X170695Y192937D02*
X172922Y195165D01*
G01X174648Y188985D02*
X176875Y191212D01*
G01X170696Y191213D02*
X172923Y188985D01*
G01X170696Y191213D02*
G02Y192938I863J863D01*
G01X174648Y188985D02*
G02X172923Y188985I-863J863D01*
G01X174482Y196725D02*
X176709Y198953D01*
G01D02*
G02X178433Y198953I862J-861D01*
G01X171773Y199434D02*
X174000Y201662D01*
G01X171772Y205614D02*
X173999Y203386D01*
G01X174000Y203387D02*
G02X174000Y201662I-863J-863D01*
G01X170048Y205614D02*
G02X171772Y205614I862J-861D01*
G01X178434Y192773D02*
X180661Y195001D01*
G01X180661Y196726D02*
G02X180661Y195001I-863J-863D01*
G01X178433Y198953D02*
X180660Y196725D01*
G01X194402Y168040D02*
X192175Y170267D01*
G01Y171991D02*
X194402Y174218D01*
G01X194401Y174219D02*
G02X196127Y174219I863J-863D01*
G01X192175Y170267D02*
G02X192174Y171992I861J862D01*
G01X195465Y231029D02*
X193237Y228802D01*
G01X195465Y224850D02*
X193238Y227077D01*
G01X193238Y227077D02*
G02X193237Y228802I863J863D01*
G01X198126Y86028D02*
X201276D01*
G01X198126D02*
G02X196906Y87248I0J1220D01*
G01X202496D02*
G02X201276Y86028I-1220J0D01*
G01X204826D02*
G02X203606Y87248I0J1220D01*
G01X196906Y87247D02*
Y90397D01*
G01X196905Y92603D02*
Y95753D01*
G01X202496Y87247D02*
Y90397D01*
G01X202494Y92603D02*
Y95753D01*
G01X201274Y96973D02*
G02X202494Y95753I0J-1220D01*
G01X196905D02*
G02X198124Y96973I1219J1D01*
G01X203606Y87247D02*
Y90397D01*
G01X203605Y92603D02*
Y95753D01*
G01D02*
G02X204824Y96973I1219J1D01*
G01X198124Y96972D02*
X201274D01*
G01X198190Y164253D02*
X195963Y166480D01*
G01X202143Y168206D02*
X199916Y170433D01*
G01X199915Y164254D02*
X202142Y166481D01*
G01X199915Y164254D02*
G02X198189I-863J863D01*
G01X202142Y168206D02*
G02X202142Y166481I-863J-863D01*
G01X198354Y171992D02*
X196127Y174219D01*
G01X205435Y179905D02*
X203207Y177678D01*
G01X205436Y173726D02*
X203208Y175953D01*
G01X203208Y175953D02*
G02X203207Y177678I863J863D01*
G01X203204Y230865D02*
X200976Y228638D01*
G01X199417Y227077D02*
X197189Y224850D01*
G01X199251Y234818D02*
X197023Y232591D01*
G01X203203Y232590D02*
X200975Y234817D01*
G01X197189Y224850D02*
G02X195465Y224849I-862J861D01*
G01X203203Y232590D02*
G02Y230865I-863J-863D01*
G01X199250Y234817D02*
G02X200975I863J-863D01*
G01X204826Y86028D02*
X207976D01*
G01X209196Y87248D02*
G02X207976Y86028I-1220J0D01*
G01X209196Y87247D02*
Y90397D01*
G01X209194Y92603D02*
Y95753D01*
G01X207974Y96973D02*
G02X209194Y95753I0J-1220D01*
G01X204824Y96972D02*
X207974D01*
G01X213488Y171852D02*
X211261Y169625D01*
G01X213322Y179593D02*
X211095Y177366D01*
G01X209536Y175804D02*
X207309Y173577D01*
G01X209537Y169625D02*
X207310Y171852D01*
G01X207309Y171852D02*
G02X207309Y173577I863J863D01*
G01X211261Y169625D02*
G02X209536Y169624I-862J861D01*
G01X213174Y179742D02*
X210946Y177514D01*
G01X209387Y175953D02*
X207159Y173726D01*
G01D02*
G02X205435Y173726I-862J861D01*
G01X213321Y179592D02*
G02X215047Y179592I863J-863D01*
G01X210986Y185456D02*
X213213Y187684D01*
G01X210986Y183732D02*
X213214Y181504D01*
G01X210986Y183732D02*
G02Y185457I863J863D01*
G01X214939Y181504D02*
G02X213214I-863J863D01*
G01X209221Y183694D02*
X206994Y181467D01*
G01X213173Y181466D02*
X210946Y183694D01*
G01X213173Y181466D02*
G02Y179741I-863J-863D01*
G01X209220Y183694D02*
G02X210946I863J-863D01*
G01X214430Y212064D02*
X212202Y209837D01*
G01X210478Y216016D02*
X208250Y213789D01*
G01X210479Y209837D02*
X208251Y212064D01*
G01X208251Y212064D02*
G02X208250Y213789I863J863D01*
G01X212202Y209837D02*
G02X210478Y209836I-862J861D01*
G01X214264Y219805D02*
X212036Y217578D01*
G01X222095Y25197D02*
Y22047D01*
G01X216506Y25197D02*
Y22047D01*
G01X220876Y20828D02*
X217726D01*
G01Y20827D02*
G02X216506Y22047I0J1220D01*
G01X222095D02*
G02X220876Y20827I-1219J-1D01*
G01X222094Y30553D02*
Y27403D01*
G01X216504Y30553D02*
Y27403D01*
G01X220874Y31772D02*
X217724D01*
G01X220874D02*
G02X222094Y30552I0J-1220D01*
G01X216504D02*
G02X217724Y31772I1220J0D01*
G01X218898Y177544D02*
X221126Y179771D01*
G01X214946Y179772D02*
X217174Y177544D01*
G01X218899Y177545D02*
G02X217174Y177544I-863J863D01*
G01X217275Y175640D02*
X215048Y173413D01*
G01X217274Y177365D02*
X215047Y179592D01*
G01X217274Y177365D02*
G02Y175640I-863J-863D01*
G01X214945Y181496D02*
X217173Y183724D01*
G01X218732Y185285D02*
X220960Y187512D01*
G01X222684Y181333D02*
X224912Y183560D01*
G01X214946Y179772D02*
G02Y181497I863J863D01*
G01X214938Y181503D02*
X217166Y183731D01*
G01X218724Y185292D02*
X220952Y187520D01*
G01X222684Y187512D02*
X224911Y185285D01*
G01X220960Y187512D02*
G02X222684Y187512I862J-861D01*
G01X214772Y189244D02*
X217000Y191472D01*
G01X218724D02*
X220951Y189244D01*
G01X220952Y189245D02*
G02X220952Y187520I-863J-863D01*
G01X217000Y191472D02*
G02X218724Y191472I862J-861D01*
G01X218217Y215852D02*
X215989Y213625D01*
G01X218216Y217577D02*
X215988Y219804D01*
G01X218216Y217577D02*
G02Y215851I-863J-863D01*
G01X214263Y219804D02*
G02X215988Y219804I863J-863D01*
G01X228795Y25197D02*
Y22047D01*
G01X223206Y25197D02*
Y22047D01*
G01X227576Y20828D02*
X224426D01*
G01Y20827D02*
G02X223206Y22047I0J1220D01*
G01X228795D02*
G02X227576Y20827I-1219J-1D01*
G01X228794Y30553D02*
Y27403D01*
G01X223204Y30553D02*
Y27403D01*
G01X227574Y31772D02*
X224424D01*
G01X227574D02*
G02X228794Y30552I0J-1220D01*
G01X223204D02*
G02X224424Y31772I1220J0D01*
G01X224911Y185285D02*
G02X224912Y183560I-863J-863D01*
G01X230827Y194766D02*
X228600Y196993D01*
G01X232552Y194767D02*
G02X230826I-863J863D01*
G01X227039Y198553D02*
X224812Y200780D01*
G01X230991Y202505D02*
X228764Y204732D01*
G01X224812Y202504D02*
X227039Y204731D01*
G01X227038Y204732D02*
G02X228764Y204732I863J-863D01*
G01X224812Y200780D02*
G02X224811Y202504I861J862D01*
G01X232552Y194767D02*
X234779Y196994D01*
G01X234780Y198719D02*
X232553Y200946D01*
G01X234779Y198720D02*
G02X234779Y196994I-863J-863D01*
G01X235658Y281001D02*
Y277851D01*
G01X240028Y276632D02*
X236878D01*
G01Y276631D02*
G02X235658Y277851I0J1220D01*
G01X241247D02*
G02X240028Y276631I-1219J-1D01*
G01X235656Y286357D02*
Y283207D01*
G01Y286356D02*
G02X236876Y287576I1220J0D01*
G01X240026D02*
X236876D01*
G01X240026D02*
G02X241246Y286356I0J-1220D01*
G01X242747Y39004D02*
X245897D01*
G01X248103Y39006D02*
X251253D01*
G01X241528Y43374D02*
Y40224D01*
G01X242748Y39004D02*
G02X241528Y40224I0J1220D01*
G01X242747Y44594D02*
X245897D01*
G01X248103Y44595D02*
X251253D01*
G01X241528Y43374D02*
G02X242748Y44594I1220J0D01*
G01X242747Y58004D02*
X245897D01*
G01X248103Y58006D02*
X251253D01*
G01X241528Y62374D02*
Y59224D01*
G01X242748Y58004D02*
G02X241528Y59224I0J1220D01*
G01X242747Y63594D02*
X245897D01*
G01X248103Y63595D02*
X251253D01*
G01X241528Y62374D02*
G02X242748Y63594I1220J0D01*
G01X241247Y281001D02*
Y277851D01*
G01X247147Y281001D02*
Y277851D01*
G01X241558Y281001D02*
Y277851D01*
G01X245928Y276632D02*
X242778D01*
G01Y276631D02*
G02X241558Y277851I0J1220D01*
G01X247147D02*
G02X245928Y276631I-1219J-1D01*
G01X241246Y286357D02*
Y283207D01*
G01X247146Y286357D02*
Y283207D01*
G01X241556Y286357D02*
Y283207D01*
G01X245926Y287576D02*
G02X247146Y286356I0J-1220D01*
G01X241556D02*
G02X242776Y287576I1220J0D01*
G01X245926D02*
X242776D01*
G01X252472Y43376D02*
Y40226D01*
G01X252473D02*
G02X251253Y39006I-1220J0D01*
G01Y44595D02*
G02X252473Y43376I1J-1219D01*
G01X252472Y62376D02*
Y59226D01*
G01X252473D02*
G02X251253Y58006I-1220J0D01*
G01Y63595D02*
G02X252473Y62376I1J-1219D01*
G01X267547Y38604D02*
X270697D01*
G01X266328Y42974D02*
Y39824D01*
G01X267548Y38604D02*
G02X266328Y39824I0J1220D01*
G01X267547Y44194D02*
X270697D01*
G01X266328Y42974D02*
G02X267548Y44194I1220J0D01*
G01X267347Y57804D02*
X270497D01*
G01X266128Y62174D02*
Y59024D01*
G01X267348Y57804D02*
G02X266128Y59024I0J1220D01*
G01X267347Y63394D02*
X270497D01*
G01X266128Y62174D02*
G02X267348Y63394I1220J0D01*
G01X270184Y359208D02*
X267034D01*
G01Y359207D02*
G02X265814Y360427I0J1220D01*
G01X265812Y368933D02*
Y365783D01*
G01X265814Y363577D02*
Y360427D01*
G01X265812Y368932D02*
G02X267032Y370152I1220J0D01*
G01X270182D02*
X267032D01*
G01X272903Y38606D02*
X276053D01*
G01X277273Y39826D02*
G02X276053Y38606I-1220J0D01*
G01X272903Y44195D02*
X276053D01*
G01D02*
G02X277273Y42976I1J-1219D01*
G01X272703Y57806D02*
X275853D01*
G01X277072Y62176D02*
Y59026D01*
G01X277073D02*
G02X275853Y57806I-1220J0D01*
G01X272703Y63395D02*
X275853D01*
G01D02*
G02X277073Y62176I1J-1219D01*
G01X276757Y359208D02*
X273607D01*
G01Y359207D02*
G02X272387Y360427I0J1220D01*
G01X277976D02*
G02X276757Y359207I-1219J-1D01*
G01X271403Y360427D02*
G02X270184Y359207I-1219J-1D01*
G01X272385Y368933D02*
Y365783D01*
G01X272387Y363577D02*
Y360427D01*
G01X272385Y368932D02*
G02X273605Y370152I1220J0D01*
G01X271402Y368933D02*
Y365783D01*
G01X271403Y363577D02*
Y360427D01*
G01X270182Y370152D02*
G02X271402Y368932I0J-1220D01*
G01X276755Y370152D02*
X273605D01*
G01X276755D02*
G02X277975Y368932I0J-1220D01*
G01X277272Y42976D02*
Y39826D01*
G01X284203Y344362D02*
Y341212D01*
G01X278614Y344362D02*
Y341212D01*
G01X282984Y339993D02*
X279834D01*
G01Y339992D02*
G02X278614Y341212I0J1220D01*
G01X284203D02*
G02X282984Y339992I-1219J-1D01*
G01X284202Y349718D02*
Y346568D01*
G01X278612Y349718D02*
Y346568D01*
G01X282982Y350937D02*
X279832D01*
G01X282982D02*
G02X284202Y349717I0J-1220D01*
G01X278612D02*
G02X279832Y350937I1220J0D01*
G01X284195Y360706D02*
Y357556D01*
G01X284196Y355350D02*
Y352200D01*
G01X278605Y360706D02*
Y357556D01*
G01X278607Y355350D02*
Y352200D01*
G01X282977Y350981D02*
X279827D01*
G01Y350980D02*
G02X278607Y352200I0J1220D01*
G01X284196D02*
G02X282977Y350980I-1219J-1D01*
G01X277975Y368933D02*
Y365783D01*
G01X277976Y363577D02*
Y360427D01*
G01X282975Y361925D02*
X279825D01*
G01X282975D02*
G02X284195Y360705I0J-1220D01*
G01X278605D02*
G02X279825Y361925I1220J0D01*
G01X299006Y16797D02*
Y13647D01*
G01X303376Y12428D02*
X300226D01*
G01Y12427D02*
G02X299006Y13647I0J1220D01*
G01X304595D02*
G02X303376Y12427I-1219J-1D01*
G01X299004Y22153D02*
Y19003D01*
G01X303374Y23372D02*
G02X304594Y22152I0J-1220D01*
G01X299004D02*
G02X300224Y23372I1220J0D01*
G01X303374D02*
X300224D01*
G01X304595Y16797D02*
Y13647D01*
G01X304594Y22153D02*
Y19003D01*
G01X311906Y58803D02*
Y61953D01*
G01X313126Y57584D02*
X316276D01*
G01X313126D02*
G02X311906Y58804I0J1220D01*
G01X311905Y64159D02*
Y67309D01*
G01X313124Y68528D02*
X316274D01*
G01X311905Y67309D02*
G02X313124Y68529I1219J1D01*
G01X313428Y80797D02*
Y77647D01*
G01X314648Y76427D02*
G02X313428Y77647I0J1220D01*
G01X313426Y86153D02*
Y83003D01*
G01Y86152D02*
G02X314646Y87372I1220J0D01*
G01X317496Y58803D02*
Y61953D01*
G01Y58804D02*
G02X316276Y57584I-1220J0D01*
G01X322119Y65847D02*
Y68997D01*
G01X323339Y64628D02*
G02X322119Y65848I0J1220D01*
G01X317494Y64159D02*
Y67309D01*
G01X316274Y68529D02*
G02X317494Y67309I0J-1220D01*
G01X322118Y71203D02*
Y74353D01*
G01D02*
G02X323337Y75573I1219J1D01*
G01X319306Y80797D02*
Y77647D01*
G01X323676Y76428D02*
X320526D01*
G01Y76427D02*
G02X319306Y77647I0J1220D01*
G01X319017Y80797D02*
Y77647D01*
G01X317798Y76428D02*
X314648D01*
G01X319017Y77647D02*
G02X317798Y76427I-1219J-1D01*
G01X319304Y86153D02*
Y83003D01*
G01Y86152D02*
G02X320524Y87372I1220J0D01*
G01X319016Y86153D02*
Y83003D01*
G01X317796Y87372D02*
G02X319016Y86152I0J-1220D01*
G01X323674Y87372D02*
X320524D01*
G01X317796D02*
X314646D01*
G01X327709Y65847D02*
Y68997D01*
G01X323339Y64628D02*
X326489D01*
G01X327709Y65848D02*
G02X326489Y64628I-1220J0D01*
G01X327707Y71203D02*
Y74353D01*
G01X323337Y75572D02*
X326487D01*
G01Y75573D02*
G02X327707Y74353I0J-1220D01*
G01X331695Y80797D02*
Y77647D01*
G01X326106Y80797D02*
Y77647D01*
G01X330476Y76428D02*
X327326D01*
G01Y76427D02*
G02X326106Y77647I0J1220D01*
G01X331695D02*
G02X330476Y76427I-1219J-1D01*
G01X324895Y80797D02*
Y77647D01*
G01D02*
G02X323676Y76427I-1219J-1D01*
G01X331694Y86153D02*
Y83003D01*
G01X326104Y86153D02*
Y83003D01*
G01X330474Y87372D02*
G02X331694Y86152I0J-1220D01*
G01X326104D02*
G02X327324Y87372I1220J0D01*
G01X324894Y86153D02*
Y83003D01*
G01X323674Y87372D02*
G02X324894Y86152I0J-1220D01*
G01X330474Y87372D02*
X327324D01*
G01X333153Y104006D02*
X330003D01*
G01X327797Y104005D02*
X324647D01*
G01D02*
G02X323427Y105224I-1J1219D01*
G01X333153Y110406D02*
X330003D01*
G01X327797Y110405D02*
X324647D01*
G01X323428Y111624D02*
Y114774D01*
G01X324647Y110405D02*
G02X323427Y111624I-1J1219D01*
G01X333153Y109596D02*
X330003D01*
G01X327797Y109594D02*
X324647D01*
G01X323428Y105224D02*
Y108374D01*
G01X323427D02*
G02X324647Y109594I1220J0D01*
G01X333153Y115996D02*
X330003D01*
G01X327797Y115994D02*
X324647D01*
G01X323427Y114774D02*
G02X324647Y115994I1220J0D01*
G01X334372Y105226D02*
G02X333152Y104006I-1220J0D01*
G01X334372Y111626D02*
Y114776D01*
G01Y111626D02*
G02X333152Y110406I-1220J0D01*
G01X334372Y105226D02*
Y108376D01*
G01X333152Y109596D02*
G02X334372Y108376I0J-1220D01*
G01X333152Y115996D02*
G02X334372Y114776I0J-1220D01*
G01X342962Y167297D02*
X339812D01*
G01X338593Y168516D02*
Y171666D01*
G01X339812Y167297D02*
G02X338592Y168516I-1J1219D01*
G01X342962Y172886D02*
X339812D01*
G01X338592Y171666D02*
G02X339812Y172886I1220J0D01*
G01X342862Y245497D02*
X339712D01*
G01X338493Y246716D02*
Y249866D01*
G01X338492D02*
G02X339712Y251086I1220J0D01*
G01Y245497D02*
G02X338492Y246716I-1J1219D01*
G01X342862Y251086D02*
X339712D01*
G01X342762Y322597D02*
X339612D01*
G01D02*
G02X338392Y323816I-1J1219D01*
G01X342762Y328186D02*
X339612D01*
G01X338393Y323816D02*
Y326966D01*
G01X338392D02*
G02X339612Y328186I1220J0D01*
G01X349581Y168523D02*
Y171673D01*
G01X350800Y167304D02*
G02X349580Y168523I-1J1219D01*
G01X348318Y167298D02*
X345168D01*
G01X349537Y168518D02*
Y171668D01*
G01Y168518D02*
G02X348317Y167298I-1220J0D01*
G01X349580Y171673D02*
G02X350800Y172893I1220J0D01*
G01X348318Y172888D02*
X345168D01*
G01X348317D02*
G02X349537Y171668I0J-1220D01*
G01X349481Y246723D02*
Y249873D01*
G01X349480D02*
G02X350700Y251093I1220J0D01*
G01Y245504D02*
G02X349480Y246723I-1J1219D01*
G01X348218Y245498D02*
X345068D01*
G01X349437Y246718D02*
Y249868D01*
G01Y246718D02*
G02X348217Y245498I-1220J0D01*
G01Y251088D02*
G02X349437Y249868I0J-1220D01*
G01X348218Y251088D02*
X345068D01*
G01X350600Y322604D02*
G02X349380Y323823I-1J1219D01*
G01X348118Y322598D02*
X344968D01*
G01X349337Y323818D02*
G02X348117Y322598I-1220J0D01*
G01X349381Y323823D02*
Y326973D01*
G01X349380D02*
G02X350600Y328193I1220J0D01*
G01X348118Y328188D02*
X344968D01*
G01X349337Y323818D02*
Y326968D01*
G01X348117Y328188D02*
G02X349337Y326968I0J-1220D01*
G01X359306Y167305D02*
X356156D01*
G01X353950Y167304D02*
X350800D01*
G01X362177Y173524D02*
X359027D01*
G01X357808Y174743D02*
Y177893D01*
G01X359027Y173524D02*
G02X357807Y174743I-1J1219D01*
G01X359306Y172895D02*
X356156D01*
G01X353950Y172893D02*
X350800D01*
G01X362177Y179113D02*
X359027D01*
G01X357807Y177893D02*
G02X359027Y179113I1220J0D01*
G01X362177Y180097D02*
X359027D01*
G01X362177Y185686D02*
X359027D01*
G01X357808Y181316D02*
Y184466D01*
G01X357807D02*
G02X359027Y185686I1220J0D01*
G01Y180097D02*
G02X357807Y181316I-1J1219D01*
G01X359206Y245505D02*
X356056D01*
G01X353850Y245504D02*
X350700D01*
G01X360425Y246725D02*
G02X359205Y245505I-1220J0D01*
G01X359206Y251095D02*
X356056D01*
G01X353850Y251093D02*
X350700D01*
G01X359205Y251095D02*
G02X360425Y249875I0J-1220D01*
G01X362077Y258297D02*
X358927D01*
G01X357708Y259516D02*
Y262666D01*
G01X358927Y258297D02*
G02X357707Y259516I-1J1219D01*
G01X362077Y251724D02*
X358927D01*
G01X362077Y257313D02*
X358927D01*
G01X357708Y252943D02*
Y256093D01*
G01X357707D02*
G02X358927Y257313I1220J0D01*
G01Y251724D02*
G02X357707Y252943I-1J1219D01*
G01X362077Y263886D02*
X358927D01*
G01X357707Y262666D02*
G02X358927Y263886I1220J0D01*
G01X359106Y322605D02*
X355956D01*
G01X353750Y322604D02*
X350600D01*
G01X360325Y323825D02*
G02X359105Y322605I-1220J0D01*
G01X359106Y328195D02*
X355956D01*
G01X353750Y328193D02*
X350600D01*
G01X359105Y328195D02*
G02X360325Y326975I0J-1220D01*
G01X361977Y328824D02*
X358827D01*
G01X357608Y330043D02*
Y333193D01*
G01X358827Y328824D02*
G02X357607Y330043I-1J1219D01*
G01X361977Y335397D02*
X358827D01*
G01X361977Y340986D02*
X358827D01*
G01X357608Y336616D02*
Y339766D01*
G01X357607D02*
G02X358827Y340986I1220J0D01*
G01Y335397D02*
G02X357607Y336616I-1J1219D01*
G01X361977Y334413D02*
X358827D01*
G01X357607Y333193D02*
G02X358827Y334413I1220J0D01*
G01X360525Y168525D02*
Y171675D01*
G01Y168525D02*
G02X359305Y167305I-1220J0D01*
G01X367533Y173525D02*
X364383D01*
G01X368752Y174745D02*
G02X367532Y173525I-1220J0D01*
G01X359305Y172895D02*
G02X360525Y171675I0J-1220D01*
G01X367533Y179115D02*
X364383D01*
G01X367532D02*
G02X368752Y177895I0J-1220D01*
G01X367533Y180098D02*
X364383D01*
G01X367533Y185688D02*
X364383D01*
G01X368752Y181318D02*
G02X367532Y180098I-1220J0D01*
G01Y185688D02*
G02X368752Y184468I0J-1220D01*
G01X360425Y246725D02*
Y249875D01*
G01X367433Y258298D02*
X364283D01*
G01X368652Y259518D02*
G02X367432Y258298I-1220J0D01*
G01X367433Y251725D02*
X364283D01*
G01X367433Y257315D02*
X364283D01*
G01X368652Y252945D02*
G02X367432Y251725I-1220J0D01*
G01Y257315D02*
G02X368652Y256095I0J-1220D01*
G01X367433Y263888D02*
X364283D01*
G01X367432D02*
G02X368652Y262668I0J-1220D01*
G01X360325Y323825D02*
Y326975D01*
G01X367333Y328825D02*
X364183D01*
G01X368552Y330045D02*
G02X367332Y328825I-1220J0D01*
G01X367333Y335398D02*
X364183D01*
G01X367333Y340988D02*
X364183D01*
G01X368552Y336618D02*
G02X367332Y335398I-1220J0D01*
G01Y340988D02*
G02X368552Y339768I0J-1220D01*
G01X367333Y334415D02*
X364183D01*
G01X367332D02*
G02X368552Y333195I0J-1220D01*
G01X368752Y174745D02*
Y177895D01*
G01Y181318D02*
Y184468D01*
G01X368652Y259518D02*
Y262668D01*
G01Y252945D02*
Y256095D01*
G01X368552Y330045D02*
Y333195D01*
G01Y336618D02*
Y339768D01*
G01X-135Y369649D02*
Y19885D01*
G03X19865Y-115I20000J0D01*
G01X369629D01*
G03X389629Y19885I0J20000D01*
G01Y369649D01*
G03X369629Y389649I-20000J0D01*
G01X19865D01*
G03X-135Y369649I0J-20000D01*
G54D15*
G01X258484Y345874D02*
G03I-591J0D01*
G01X265535Y348206D02*
G03I-591J0D01*
G01X347397Y186556D02*
G03I-591J0D01*
G01X345065Y193607D02*
G03I-591J0D01*
G01X347297Y264756D02*
G03I-591J0D01*
G01X344965Y271807D02*
G03I-591J0D01*
G01X347197Y341856D02*
G03I-591J0D01*
G01X344865Y348907D02*
G03I-591J0D01*
M02*
