G04 ================== begin FILE IDENTIFICATION RECORD ==================*
G04 Layout Name:  stm32g431-devboard.brd*
G04 Film Name:    PASTEMASK_TOP*
G04 File Format:  Gerber RS274X*
G04 File Origin:  Cadence Allegro 17.4-S039*
G04 Origin Date:  Mon Mar  2 09:43:22 2026*
G04 *
G04 Layer:  BOARD GEOMETRY/DESIGN_OUTLINE*
G04 Layer:  PACKAGE GEOMETRY/PASTEMASK_TOP*
G04 Layer:  PIN/PASTEMASK_TOP*
G04 *
G04 Offset:    (0.000 0.000)*
G04 Mirror:    No*
G04 Mode:      Positive*
G04 Rotation:  0*
G04 FullContactRelief:  No*
G04 UndefLineWidth:     10.000*
G04 ================== end FILE IDENTIFICATION RECORD ====================*
%FSLAX25Y25*MOIN*%
%IR0*IPPOS*OFA0.00000B0.00000*MIA0B0*SFA1.00000B1.00000*%
%ADD27R,.039429X.019748*%
%ADD28R,.019748X.039429*%
%ADD47O,.092579X.028799*%
%ADD32R,.078799X.097539*%
%ADD14R,.11424X.04337*%
%ADD16R,.063059X.12211*%
%ADD59R,.05124X.141791*%
%AMMACRO50*
4,1,19,.01498,-.01498,
.009465,-.014153,
.004178,-.012381,
-.000721,-.009717,
-.005083,-.006244,
-.008776,-.002065,
-.011687,.002691,
-.013728,.00788,
-.014837,.013345,
-.01498,.014981,
-.00511,.014981,
-.004433,.01118,
-.003106,.007555,
-.00117,.004215,
.001316,.001262,
.004278,-.001214,
.007624,-.003139,
.011254,-.004453,
.01498,-.00511,
.01498,-.01498,
0.0*
%
%ADD50MACRO50*%
%AMMACRO52*
4,1,19,-.01498,-.01498,
-.014153,-.009465,
-.012381,-.004178,
-.009717,.000721,
-.006244,.005083,
-.002065,.008776,
.002691,.011687,
.00788,.013728,
.013345,.014837,
.014981,.01498,
.014981,.00511,
.01118,.004433,
.007555,.003106,
.004215,.00117,
.001262,-.001316,
-.001214,-.004278,
-.003139,-.007624,
-.004453,-.011254,
-.00511,-.01498,
-.01498,-.01498,
0.0*
%
%ADD52MACRO52*%
%ADD46R,.141791X.05124*%
%AMMACRO40*
21,1,.059118,.05124,0.0,0.0,135.*%
%ADD40MACRO40*%
%AMMACRO41*
21,1,.052421,.077228,0.0,0.0,135.*%
%ADD41MACRO41*%
%AMMACRO39*
21,1,.0355,.039429,0.0,0.0,135.*%
%ADD39MACRO39*%
%ADD13R,.11024X.062988*%
%ADD34R,.134709X.063059*%
%AMMACRO43*
21,1,.051177,.015811,0.0,0.0,135.*
1,1,.015811,-.018094,.018094*
1,1,.015811,.018094,-.018094*%
%ADD43MACRO43*%
%AMMACRO42*
21,1,.015811,.051177,0.0,0.0,135.*
1,1,.015811,.018094,.018094*
1,1,.015811,-.018094,-.018094*%
%ADD42MACRO42*%
%AMMACRO38*
21,1,.045339,.070929,0.0,0.0,135.*%
%ADD38MACRO38*%
%ADD62R,.098882X.125969*%
%ADD57R,.125969X.098882*%
%ADD12R,.04061X.047311*%
%ADD21R,.051181X.011811*%
%ADD61O,.080421X.027701*%
%ADD56O,.027701X.080421*%
%AMMACRO54*
4,1,19,.01498,.01498,
.014153,.009465,
.012381,.004178,
.009717,-.000721,
.006244,-.005083,
.002065,-.008776,
-.002691,-.011687,
-.00788,-.013728,
-.013345,-.014837,
-.014981,-.01498,
-.014981,-.00511,
-.01118,-.004433,
-.007555,-.003106,
-.004215,-.00117,
-.001262,.001316,
.001214,.004278,
.003139,.007624,
.004453,.011254,
.00511,.01498,
.01498,.01498,
0.0*
%
%ADD54MACRO54*%
%AMMACRO53*
4,1,19,-.01498,.01498,
-.009465,.014153,
-.004178,.012381,
.000721,.009717,
.005083,.006244,
.008776,.002065,
.011687,-.002691,
.013728,-.00788,
.014837,-.013345,
.01498,-.014981,
.00511,-.014981,
.004433,-.01118,
.003106,-.007555,
.00117,-.004215,
-.001316,-.001262,
-.004278,.001214,
-.007624,.003139,
-.011254,.004453,
-.01498,.00511,
-.01498,.01498,
0.0*
%
%ADD53MACRO53*%
%ADD29R,.05085X.072031*%
%ADD26R,.023618X.043311*%
%ADD23O,.084512X.02715*%
%AMMACRO48*
21,1,.0355,.0355,0.0,0.0,45.*%
%ADD48MACRO48*%
%ADD25R,.043311X.023618*%
%ADD36R,.0355X.0355*%
%ADD58R,.05124X.059118*%
%ADD19R,.049209X.011811*%
%ADD11C,.03937*%
%ADD45R,.110299X.133921*%
%ADD33R,.011811X.049209*%
%ADD55C,.015748*%
%ADD37C,.07874*%
%ADD35R,.027618X.047311*%
%ADD18R,.039429X.0355*%
%ADD60R,.063059X.0575*%
%ADD49R,.052421X.077228*%
%ADD15R,.0355X.039429*%
%ADD51R,.023618X.020469*%
%AMMACRO44*
21,1,.037272,.021909,0.0,0.0,45.*%
%ADD44MACRO44*%
%ADD30O,.072579X.018331*%
%ADD20R,.037272X.021909*%
%ADD10R,.08661X.07087*%
%ADD31R,.07087X.08661*%
%ADD17R,.08274X.039429*%
%ADD22R,.070929X.027618*%
%ADD24O,.028799X.077421*%
%ADD63C,.01*%
G75*
%LPD*%
G75*
G36*
G01X6317Y193885D02*
X6120Y193688D01*
X1080D01*
X883Y193885D01*
Y198412D01*
X1080Y198609D01*
X2695Y198629D01*
Y196857D01*
X4466D01*
Y198589D01*
X6120Y198609D01*
X6317Y198412D01*
Y193885D01*
G37*
G36*
G01X883Y206916D02*
X1080Y207113D01*
X6120D01*
X6317Y206916D01*
Y202388D01*
X6120Y202191D01*
X4505Y202172D01*
Y203943D01*
X2734D01*
Y202211D01*
X1080Y202191D01*
X883Y202388D01*
Y206916D01*
G37*
G36*
G01X11631Y31316D02*
X11828Y31119D01*
Y29466D01*
X10076D01*
Y27694D01*
X11809D01*
X11828Y26080D01*
X11631Y25883D01*
X7104D01*
X6907Y26080D01*
Y31119D01*
X7104Y31316D01*
X11631D01*
G37*
G36*
G01X7084Y33683D02*
X6887Y33880D01*
Y38920D01*
X7084Y39117D01*
X11612D01*
X11809Y38920D01*
X11828Y37305D01*
X10057D01*
Y35534D01*
X11789D01*
X11809Y33880D01*
X11612Y33683D01*
X7084D01*
G37*
G36*
G01X14316Y193904D02*
X14119Y193707D01*
X9080D01*
X8883Y193904D01*
Y198432D01*
X9080Y198628D01*
X10694Y198648D01*
Y196876D01*
X12466D01*
Y198609D01*
X14119Y198628D01*
X14316Y198432D01*
Y193904D01*
G37*
G36*
G01Y202369D02*
X14119Y202172D01*
X12466D01*
Y203924D01*
X10694D01*
Y202191D01*
X9080Y202172D01*
X8883Y202369D01*
Y206896D01*
X9080Y207093D01*
X14119D01*
X14316Y206896D01*
Y202369D01*
G37*
G36*
G01X7698Y354591D02*
Y357741D01*
X7895Y357938D01*
X11045D01*
X11242Y357741D01*
Y356788D01*
X9785D01*
Y355489D01*
X11242D01*
Y354591D01*
X11045Y354395D01*
X7895D01*
X7698Y354591D01*
G37*
G36*
G01X20096Y31316D02*
X20293Y31119D01*
Y26080D01*
X20096Y25883D01*
X15568D01*
X15372Y26080D01*
X15352Y27694D01*
X17124D01*
Y29466D01*
X15391D01*
X15372Y31119D01*
X15568Y31316D01*
X20096D01*
G37*
G36*
G01X20115Y39117D02*
X20312Y38920D01*
Y33880D01*
X20115Y33683D01*
X15588D01*
X15391Y33880D01*
X15371Y35495D01*
X17143D01*
Y37266D01*
X15411D01*
X15391Y38920D01*
X15588Y39117D01*
X20115D01*
G37*
G36*
G01X21298Y225925D02*
Y229075D01*
X21495Y229272D01*
X24645D01*
X24842Y229075D01*
Y228122D01*
X23385D01*
Y226823D01*
X24842D01*
Y225925D01*
X24645Y225729D01*
X21495D01*
X21298Y225925D01*
G37*
G36*
G01X17502Y357741D02*
Y354591D01*
X17305Y354394D01*
X14155D01*
X13958Y354591D01*
Y355544D01*
X15415D01*
Y356843D01*
X13958D01*
Y357741D01*
X14155Y357938D01*
X17305D01*
X17502Y357741D01*
G37*
G36*
G01X31102Y229075D02*
Y225925D01*
X30905Y225728D01*
X27755D01*
X27558Y225925D01*
Y226878D01*
X29015D01*
Y228177D01*
X27558D01*
Y229075D01*
X27755Y229272D01*
X30905D01*
X31102Y229075D01*
G37*
G36*
G01X32416Y366804D02*
X32219Y366607D01*
X27180D01*
X26983Y366804D01*
Y371332D01*
X27180Y371528D01*
X28794Y371548D01*
Y369776D01*
X30566D01*
Y371509D01*
X32219Y371528D01*
X32416Y371332D01*
Y366804D01*
G37*
G36*
G01Y375269D02*
X32219Y375072D01*
X30566D01*
Y376824D01*
X28794D01*
Y375091D01*
X27180Y375072D01*
X26983Y375269D01*
Y379796D01*
X27180Y379993D01*
X32219D01*
X32416Y379796D01*
Y375269D01*
G37*
G36*
G01X38426Y12323D02*
X38543Y12306D01*
X38658Y12282D01*
X38772Y12253D01*
X38885Y12219D01*
X38996Y12178D01*
X39104Y12133D01*
X39210Y12081D01*
X39314Y12025D01*
X39414Y11964D01*
X39511Y11897D01*
X39605Y11826D01*
X39696Y11751D01*
X39782Y11670D01*
X39864Y11586D01*
X39942Y11498D01*
X40016Y11406D01*
X40084Y11310D01*
X40148Y11211D01*
X40207Y11109D01*
X40261Y11004D01*
X40309Y10897D01*
X40352Y10787D01*
X40390Y10676D01*
X40422Y10562D01*
X40448Y10448D01*
X40468Y10331D01*
X40483Y10215D01*
X40492Y10097D01*
X40495Y9979D01*
Y8798D01*
X40492Y8681D01*
X40483Y8563D01*
X40468Y8446D01*
X40448Y8330D01*
X40422Y8215D01*
X40390Y8102D01*
X40352Y7990D01*
X40309Y7881D01*
X40261Y7773D01*
X40207Y7669D01*
X40148Y7567D01*
X40084Y7468D01*
X40016Y7372D01*
X39942Y7280D01*
X39864Y7192D01*
X39782Y7107D01*
X39696Y7027D01*
X39605Y6951D01*
X39511Y6880D01*
X39414Y6814D01*
X39314Y6753D01*
X39210Y6696D01*
X39104Y6645D01*
X38996Y6599D01*
X38885Y6559D01*
X38772Y6524D01*
X38658Y6495D01*
X38543Y6472D01*
X38426Y6454D01*
X38309Y6443D01*
X38191Y6437D01*
X38074D01*
X37956Y6443D01*
X37839Y6454D01*
X37722Y6472D01*
X37607Y6495D01*
X37493Y6524D01*
X37380Y6559D01*
X37270Y6599D01*
X37161Y6645D01*
X37055Y6696D01*
X36951Y6753D01*
X36851Y6814D01*
X36754Y6880D01*
X36660Y6951D01*
X36570Y7027D01*
X36483Y7107D01*
X36401Y7192D01*
X36323Y7280D01*
X36250Y7372D01*
X36181Y7468D01*
X36117Y7567D01*
X36058Y7669D01*
X36004Y7773D01*
X35956Y7881D01*
X35913Y7990D01*
X35875Y8102D01*
X35843Y8215D01*
X35817Y8330D01*
X35797Y8446D01*
X35782Y8563D01*
X35773Y8681D01*
X35770Y8798D01*
Y9979D01*
X35773Y10097D01*
X35782Y10215D01*
X35797Y10331D01*
X35817Y10448D01*
X35843Y10562D01*
X35875Y10676D01*
X35913Y10787D01*
X35956Y10897D01*
X36004Y11004D01*
X36058Y11109D01*
X36117Y11211D01*
X36181Y11310D01*
X36250Y11406D01*
X36323Y11498D01*
X36401Y11586D01*
X36483Y11670D01*
X36570Y11751D01*
X36660Y11826D01*
X36754Y11897D01*
X36851Y11964D01*
X36951Y12025D01*
X37055Y12081D01*
X37161Y12133D01*
X37270Y12178D01*
X37380Y12219D01*
X37493Y12253D01*
X37607Y12282D01*
X37722Y12306D01*
X37839Y12323D01*
X37956Y12335D01*
X38074Y12341D01*
X38191D01*
X38309Y12335D01*
X38426Y12323D01*
G37*
G36*
G01X38191Y29861D02*
X38309Y29855D01*
X38426Y29844D01*
X38543Y29826D01*
X38658Y29803D01*
X38772Y29774D01*
X38885Y29739D01*
X38996Y29699D01*
X39104Y29653D01*
X39210Y29602D01*
X39314Y29545D01*
X39414Y29484D01*
X39511Y29418D01*
X39605Y29347D01*
X39696Y29271D01*
X39782Y29191D01*
X39864Y29106D01*
X39942Y29018D01*
X40016Y28926D01*
X40084Y28830D01*
X40148Y28731D01*
X40207Y28629D01*
X40261Y28525D01*
X40309Y28417D01*
X40352Y28308D01*
X40390Y28196D01*
X40422Y28083D01*
X40448Y27968D01*
X40468Y27852D01*
X40483Y27735D01*
X40492Y27617D01*
X40495Y27500D01*
Y24350D01*
X40492Y24232D01*
X40483Y24115D01*
X40468Y23998D01*
X40448Y23882D01*
X40422Y23767D01*
X40390Y23654D01*
X40352Y23542D01*
X40309Y23433D01*
X40261Y23325D01*
X40207Y23220D01*
X40148Y23118D01*
X40084Y23019D01*
X40016Y22924D01*
X39942Y22832D01*
X39864Y22743D01*
X39782Y22659D01*
X39696Y22579D01*
X39605Y22503D01*
X39511Y22432D01*
X39414Y22366D01*
X39314Y22304D01*
X39210Y22248D01*
X39104Y22197D01*
X38996Y22151D01*
X38885Y22111D01*
X38772Y22076D01*
X38658Y22047D01*
X38543Y22024D01*
X38426Y22006D01*
X38309Y21994D01*
X38191Y21989D01*
X38074D01*
X37956Y21994D01*
X37839Y22006D01*
X37722Y22024D01*
X37607Y22047D01*
X37493Y22076D01*
X37380Y22111D01*
X37270Y22151D01*
X37161Y22197D01*
X37055Y22248D01*
X36951Y22304D01*
X36851Y22366D01*
X36754Y22432D01*
X36660Y22503D01*
X36570Y22579D01*
X36483Y22659D01*
X36401Y22743D01*
X36323Y22832D01*
X36250Y22924D01*
X36181Y23019D01*
X36117Y23118D01*
X36058Y23220D01*
X36004Y23325D01*
X35956Y23433D01*
X35913Y23542D01*
X35875Y23654D01*
X35843Y23767D01*
X35817Y23882D01*
X35797Y23998D01*
X35782Y24115D01*
X35773Y24232D01*
X35770Y24350D01*
Y27500D01*
X35773Y27617D01*
X35782Y27735D01*
X35797Y27852D01*
X35817Y27968D01*
X35843Y28083D01*
X35875Y28196D01*
X35913Y28308D01*
X35956Y28417D01*
X36004Y28525D01*
X36058Y28629D01*
X36117Y28731D01*
X36181Y28830D01*
X36250Y28926D01*
X36323Y29018D01*
X36401Y29106D01*
X36483Y29191D01*
X36570Y29271D01*
X36660Y29347D01*
X36754Y29418D01*
X36851Y29484D01*
X36951Y29545D01*
X37055Y29602D01*
X37161Y29653D01*
X37270Y29699D01*
X37380Y29739D01*
X37493Y29774D01*
X37607Y29803D01*
X37722Y29826D01*
X37839Y29844D01*
X37956Y29855D01*
X38074Y29861D01*
X38191D01*
G37*
G36*
G01X40217Y366785D02*
X40020Y366588D01*
X34980D01*
X34783Y366785D01*
Y371312D01*
X34980Y371509D01*
X36595Y371529D01*
Y369757D01*
X38366D01*
Y371489D01*
X40020Y371509D01*
X40217Y371312D01*
Y366785D01*
G37*
G36*
G01X34783Y379816D02*
X34980Y380013D01*
X40020D01*
X40217Y379816D01*
Y375288D01*
X40020Y375091D01*
X38405Y375072D01*
Y376843D01*
X36634D01*
Y375111D01*
X34980Y375091D01*
X34783Y375288D01*
Y379816D01*
G37*
G36*
G01X52175Y340798D02*
X49025D01*
X48828Y340995D01*
Y344145D01*
X49025Y344342D01*
X49978D01*
Y342885D01*
X51277D01*
Y344342D01*
X52175D01*
X52372Y344145D01*
Y340995D01*
X52175Y340798D01*
G37*
G36*
G01X49025Y350602D02*
X52175D01*
X52372Y350405D01*
Y347255D01*
X52175Y347058D01*
X51222D01*
Y348515D01*
X49923D01*
Y347058D01*
X49025D01*
X48829Y347255D01*
Y350405D01*
X49025Y350602D01*
G37*
G36*
G01X48598Y352825D02*
Y355975D01*
X48795Y356172D01*
X51945D01*
X52142Y355975D01*
Y355022D01*
X50685D01*
Y353723D01*
X52142D01*
Y352825D01*
X51945Y352628D01*
X48795D01*
X48598Y352825D01*
G37*
G36*
G01X56070Y145780D02*
X54991Y146937D01*
Y148026D01*
X56070Y149182D01*
X58052D01*
X58304Y148930D01*
Y146032D01*
X58052Y145780D01*
X56070D01*
G37*
G36*
G01X51881Y145736D02*
X49900D01*
X49648Y145988D01*
Y148886D01*
X49900Y149138D01*
X51881D01*
X52961Y147981D01*
Y146893D01*
X51881Y145736D01*
G37*
G36*
G01X58902Y166675D02*
Y163525D01*
X58705Y163328D01*
X55555D01*
X55358Y163525D01*
Y164478D01*
X56815D01*
Y165777D01*
X55358D01*
Y166675D01*
X55555Y166872D01*
X58705D01*
X58902Y166675D01*
G37*
G36*
G01X49098Y163525D02*
Y166675D01*
X49295Y166872D01*
X52445D01*
X52642Y166675D01*
Y165722D01*
X51185D01*
Y164423D01*
X52642D01*
Y163525D01*
X52445Y163329D01*
X49295D01*
X49098Y163525D01*
G37*
G36*
G01X58902Y172575D02*
Y169425D01*
X58705Y169228D01*
X55555D01*
X55358Y169425D01*
Y170378D01*
X56815D01*
Y171677D01*
X55358D01*
Y172575D01*
X55555Y172772D01*
X58705D01*
X58902Y172575D01*
G37*
G36*
G01X49098Y169425D02*
Y172575D01*
X49295Y172772D01*
X52445D01*
X52642Y172575D01*
Y171622D01*
X51185D01*
Y170323D01*
X52642D01*
Y169425D01*
X52445Y169229D01*
X49295D01*
X49098Y169425D01*
G37*
G36*
G01X58402Y355975D02*
Y352825D01*
X58205Y352628D01*
X55055D01*
X54858Y352825D01*
Y353778D01*
X56315D01*
Y355077D01*
X54858D01*
Y355975D01*
X55055Y356171D01*
X58205D01*
X58402Y355975D01*
G37*
G36*
G01X72246Y12341D02*
X72364Y12335D01*
X72481Y12323D01*
X72598Y12306D01*
X72713Y12282D01*
X72827Y12253D01*
X72940Y12219D01*
X73051Y12178D01*
X73159Y12133D01*
X73265Y12081D01*
X73369Y12025D01*
X73469Y11964D01*
X73566Y11897D01*
X73660Y11826D01*
X73751Y11751D01*
X73837Y11670D01*
X73919Y11586D01*
X73997Y11498D01*
X74071Y11406D01*
X74139Y11310D01*
X74203Y11211D01*
X74262Y11109D01*
X74316Y11004D01*
X74364Y10897D01*
X74407Y10787D01*
X74445Y10676D01*
X74477Y10562D01*
X74503Y10448D01*
X74523Y10331D01*
X74538Y10215D01*
X74547Y10097D01*
X74550Y9979D01*
Y8798D01*
X74547Y8681D01*
X74538Y8563D01*
X74523Y8446D01*
X74503Y8330D01*
X74477Y8215D01*
X74445Y8102D01*
X74407Y7990D01*
X74364Y7881D01*
X74316Y7773D01*
X74262Y7669D01*
X74203Y7567D01*
X74139Y7468D01*
X74071Y7372D01*
X73997Y7280D01*
X73919Y7192D01*
X73837Y7107D01*
X73751Y7027D01*
X73660Y6951D01*
X73566Y6880D01*
X73469Y6814D01*
X73369Y6753D01*
X73265Y6696D01*
X73159Y6645D01*
X73051Y6599D01*
X72940Y6559D01*
X72827Y6524D01*
X72713Y6495D01*
X72598Y6472D01*
X72481Y6454D01*
X72364Y6443D01*
X72246Y6437D01*
X72129D01*
X72011Y6443D01*
X71894Y6454D01*
X71777Y6472D01*
X71662Y6495D01*
X71548Y6524D01*
X71435Y6559D01*
X71325Y6599D01*
X71216Y6645D01*
X71110Y6696D01*
X71006Y6753D01*
X70906Y6814D01*
X70809Y6880D01*
X70715Y6951D01*
X70625Y7027D01*
X70538Y7107D01*
X70456Y7192D01*
X70378Y7280D01*
X70305Y7372D01*
X70236Y7468D01*
X70172Y7567D01*
X70113Y7669D01*
X70059Y7773D01*
X70011Y7881D01*
X69968Y7990D01*
X69930Y8102D01*
X69898Y8215D01*
X69872Y8330D01*
X69852Y8446D01*
X69837Y8563D01*
X69828Y8681D01*
X69825Y8798D01*
Y9979D01*
X69828Y10097D01*
X69837Y10215D01*
X69852Y10331D01*
X69872Y10448D01*
X69898Y10562D01*
X69930Y10676D01*
X69968Y10787D01*
X70011Y10897D01*
X70059Y11004D01*
X70113Y11109D01*
X70172Y11211D01*
X70236Y11310D01*
X70305Y11406D01*
X70378Y11498D01*
X70456Y11586D01*
X70538Y11670D01*
X70625Y11751D01*
X70715Y11826D01*
X70809Y11897D01*
X70906Y11964D01*
X71006Y12025D01*
X71110Y12081D01*
X71216Y12133D01*
X71325Y12178D01*
X71435Y12219D01*
X71548Y12253D01*
X71662Y12282D01*
X71777Y12306D01*
X71894Y12323D01*
X72011Y12335D01*
X72129Y12341D01*
X72246D01*
G37*
G36*
G01X72481Y29844D02*
X72598Y29826D01*
X72713Y29803D01*
X72827Y29774D01*
X72940Y29739D01*
X73051Y29699D01*
X73159Y29653D01*
X73265Y29602D01*
X73369Y29545D01*
X73469Y29484D01*
X73566Y29418D01*
X73660Y29347D01*
X73751Y29271D01*
X73837Y29191D01*
X73919Y29106D01*
X73997Y29018D01*
X74071Y28926D01*
X74139Y28830D01*
X74203Y28731D01*
X74262Y28629D01*
X74316Y28525D01*
X74364Y28417D01*
X74407Y28308D01*
X74445Y28196D01*
X74477Y28083D01*
X74503Y27968D01*
X74523Y27852D01*
X74538Y27735D01*
X74547Y27617D01*
X74550Y27500D01*
Y24350D01*
X74547Y24232D01*
X74538Y24115D01*
X74523Y23998D01*
X74503Y23882D01*
X74477Y23767D01*
X74445Y23654D01*
X74407Y23542D01*
X74364Y23433D01*
X74316Y23325D01*
X74262Y23220D01*
X74203Y23118D01*
X74139Y23019D01*
X74071Y22924D01*
X73997Y22832D01*
X73919Y22743D01*
X73837Y22659D01*
X73751Y22579D01*
X73660Y22503D01*
X73566Y22432D01*
X73469Y22366D01*
X73369Y22304D01*
X73265Y22248D01*
X73159Y22197D01*
X73051Y22151D01*
X72940Y22111D01*
X72827Y22076D01*
X72713Y22047D01*
X72598Y22024D01*
X72481Y22006D01*
X72364Y21994D01*
X72246Y21989D01*
X72129D01*
X72011Y21994D01*
X71894Y22006D01*
X71777Y22024D01*
X71662Y22047D01*
X71548Y22076D01*
X71435Y22111D01*
X71325Y22151D01*
X71216Y22197D01*
X71110Y22248D01*
X71006Y22304D01*
X70906Y22366D01*
X70809Y22432D01*
X70715Y22503D01*
X70625Y22579D01*
X70538Y22659D01*
X70456Y22743D01*
X70378Y22832D01*
X70305Y22924D01*
X70236Y23019D01*
X70172Y23118D01*
X70113Y23220D01*
X70059Y23325D01*
X70011Y23433D01*
X69968Y23542D01*
X69930Y23654D01*
X69898Y23767D01*
X69872Y23882D01*
X69852Y23998D01*
X69837Y24115D01*
X69828Y24232D01*
X69825Y24350D01*
Y27500D01*
X69828Y27617D01*
X69837Y27735D01*
X69852Y27852D01*
X69872Y27968D01*
X69898Y28083D01*
X69930Y28196D01*
X69968Y28308D01*
X70011Y28417D01*
X70059Y28525D01*
X70113Y28629D01*
X70172Y28731D01*
X70236Y28830D01*
X70305Y28926D01*
X70378Y29018D01*
X70456Y29106D01*
X70538Y29191D01*
X70625Y29271D01*
X70715Y29347D01*
X70809Y29418D01*
X70906Y29484D01*
X71006Y29545D01*
X71110Y29602D01*
X71216Y29653D01*
X71325Y29699D01*
X71435Y29739D01*
X71548Y29774D01*
X71662Y29803D01*
X71777Y29826D01*
X71894Y29844D01*
X72011Y29855D01*
X72129Y29861D01*
X72246D01*
X72364Y29855D01*
X72481Y29844D01*
G37*
G36*
G01X76533Y35967D02*
X76730Y36164D01*
X81770D01*
X81967Y35967D01*
Y31440D01*
X81770Y31243D01*
X80155Y31223D01*
Y32995D01*
X78384D01*
Y31263D01*
X76730Y31243D01*
X76533Y31440D01*
Y35967D01*
G37*
G36*
G01X81967Y22936D02*
X81770Y22739D01*
X76730D01*
X76533Y22936D01*
Y27464D01*
X76730Y27661D01*
X78345Y27680D01*
Y25909D01*
X80116D01*
Y27641D01*
X81770Y27661D01*
X81967Y27464D01*
Y22936D01*
G37*
G36*
G01X84654Y26519D02*
X86497Y28035D01*
X88232D01*
X90075Y26519D01*
Y23812D01*
X89681Y23418D01*
X85048D01*
X84654Y23812D01*
Y26519D01*
G37*
G36*
G01Y32385D02*
Y35092D01*
X85048Y35486D01*
X89681D01*
X90075Y35092D01*
Y32385D01*
X88232Y30869D01*
X86497D01*
X84654Y32385D01*
G37*
G36*
G01X98787Y22937D02*
X98590Y22740D01*
X93550D01*
X93353Y22937D01*
Y27464D01*
X93550Y27661D01*
X95165Y27681D01*
Y25909D01*
X96936D01*
Y27641D01*
X98590Y27661D01*
X98787Y27464D01*
Y22937D01*
G37*
G36*
G01X93353Y35968D02*
X93550Y36165D01*
X98590D01*
X98787Y35968D01*
Y31440D01*
X98590Y31243D01*
X96975Y31224D01*
Y32995D01*
X95204D01*
Y31263D01*
X93550Y31243D01*
X93353Y31440D01*
Y35968D01*
G37*
G36*
G01X110884Y377631D02*
X111081Y377828D01*
X112734D01*
Y376076D01*
X114506D01*
Y377809D01*
X116120Y377828D01*
X116317Y377631D01*
Y373104D01*
X116120Y372907D01*
X111081D01*
X110884Y373104D01*
Y377631D01*
G37*
G36*
G01Y386096D02*
X111081Y386293D01*
X116120D01*
X116317Y386096D01*
Y381568D01*
X116120Y381372D01*
X114506Y381352D01*
Y383124D01*
X112734D01*
Y381391D01*
X111081Y381372D01*
X110884Y381568D01*
Y386096D01*
G37*
G36*
G01X120758Y22764D02*
Y25914D01*
X120955Y26111D01*
X124105D01*
X124302Y25914D01*
Y24961D01*
X122845D01*
Y23662D01*
X124302D01*
Y22764D01*
X124105Y22567D01*
X120955D01*
X120758Y22764D01*
G37*
G36*
G01Y28764D02*
Y31914D01*
X120955Y32111D01*
X124105D01*
X124302Y31914D01*
Y30961D01*
X122845D01*
Y29662D01*
X124302D01*
Y28764D01*
X124105Y28567D01*
X120955D01*
X120758Y28764D01*
G37*
G36*
G01X122580Y49509D02*
X121423Y48430D01*
X120334D01*
X119178Y49509D01*
Y51491D01*
X119430Y51743D01*
X122328D01*
X122580Y51491D01*
Y49509D01*
G37*
G36*
G01X122624Y45320D02*
Y43339D01*
X122372Y43087D01*
X119474D01*
X119222Y43339D01*
Y45320D01*
X120379Y46400D01*
X121467D01*
X122624Y45320D01*
G37*
G36*
G01X123517Y373084D02*
X123320Y372887D01*
X118280D01*
X118083Y373084D01*
Y377612D01*
X118280Y377809D01*
X119895Y377828D01*
Y376057D01*
X121666D01*
Y377789D01*
X123320Y377809D01*
X123517Y377612D01*
Y373084D01*
G37*
G36*
G01X118083Y386115D02*
X118280Y386312D01*
X123320D01*
X123517Y386115D01*
Y381588D01*
X123320Y381391D01*
X121705Y381371D01*
Y383143D01*
X119934D01*
Y381411D01*
X118280Y381391D01*
X118083Y381588D01*
Y386115D01*
G37*
G36*
G01X130562Y25914D02*
Y22764D01*
X130365Y22567D01*
X127215D01*
X127018Y22764D01*
Y23717D01*
X128475D01*
Y25016D01*
X127018D01*
Y25914D01*
X127215Y26110D01*
X130365D01*
X130562Y25914D01*
G37*
G36*
G01Y31914D02*
Y28764D01*
X130365Y28567D01*
X127215D01*
X127018Y28764D01*
Y29717D01*
X128475D01*
Y31016D01*
X127018D01*
Y31914D01*
X127215Y32110D01*
X130365D01*
X130562Y31914D01*
G37*
G36*
G01X143235Y30537D02*
X140085D01*
X139888Y30734D01*
Y33884D01*
X140085Y34081D01*
X141038D01*
Y32624D01*
X142337D01*
Y34081D01*
X143235D01*
X143432Y33884D01*
Y30734D01*
X143235Y30537D01*
G37*
G36*
G01X140085Y40341D02*
X143235D01*
X143432Y40144D01*
Y36994D01*
X143235Y36797D01*
X142282D01*
Y38254D01*
X140983D01*
Y36797D01*
X140085D01*
X139889Y36994D01*
Y40144D01*
X140085Y40341D01*
G37*
G36*
G01X143685Y194390D02*
X141458Y192163D01*
X141179Y192162D01*
X138952Y194390D01*
X138951Y194669D01*
X139625Y195342D01*
X140656Y194312D01*
X141574Y195231D01*
X140544Y196261D01*
X141178Y196896D01*
X141457Y196895D01*
X143684Y194668D01*
X143685Y194390D01*
G37*
G36*
G01X138149Y202719D02*
X140376Y204946D01*
X140655Y204946D01*
X142882Y202719D01*
Y202440D01*
X142208Y201766D01*
X141178Y202797D01*
X140259Y201878D01*
X141290Y200848D01*
X140655Y200213D01*
X140376D01*
X138149Y202440D01*
X138149Y202719D01*
G37*
G36*
G01X134525Y199095D02*
X136752Y201322D01*
X137031Y201323D01*
X139258Y199095D01*
Y198816D01*
X138585Y198142D01*
X137554Y199173D01*
X136636Y198254D01*
X137666Y197224D01*
X137031Y196589D01*
X136752D01*
X134525Y198816D01*
X134525Y199095D01*
G37*
G36*
G01X137975Y344798D02*
X134825D01*
X134628Y344995D01*
Y348145D01*
X134825Y348342D01*
X135778D01*
Y346885D01*
X137077D01*
Y348342D01*
X137975D01*
X138171Y348145D01*
Y344995D01*
X137975Y344798D01*
G37*
G36*
G01X134825Y354602D02*
X137975D01*
X138172Y354405D01*
Y351255D01*
X137975Y351058D01*
X137022D01*
Y352515D01*
X135723D01*
Y351058D01*
X134825D01*
X134628Y351255D01*
Y354405D01*
X134825Y354602D01*
G37*
G36*
G01X141807Y206377D02*
X144034Y208604D01*
X144313Y208604D01*
X146540Y206377D01*
Y206098D01*
X145866Y205424D01*
X144836Y206455D01*
X143917Y205536D01*
X144948Y204506D01*
X144313Y203871D01*
X144034D01*
X141807Y206098D01*
X141807Y206377D01*
G37*
G36*
G01X150966Y201672D02*
X148739Y199444D01*
X148461Y199444D01*
X146233Y201672D01*
Y201951D01*
X146907Y202624D01*
X147937Y201594D01*
X148856Y202513D01*
X147826Y203543D01*
X148460Y204178D01*
X148738Y204177D01*
X150966Y201950D01*
X150966Y201672D01*
G37*
G36*
G01X147308Y198014D02*
X145081Y195786D01*
X144803Y195786D01*
X142575Y198014D01*
X142575Y198293D01*
X143249Y198966D01*
X144279Y197936D01*
X145198Y198855D01*
X144168Y199885D01*
X144802Y200520D01*
X145080Y200519D01*
X147308Y198291D01*
X147308Y198014D01*
G37*
G36*
G01X145417Y210047D02*
X147644Y212274D01*
X147923Y212274D01*
X150150Y210047D01*
Y209768D01*
X149477Y209094D01*
X148447Y210125D01*
X147528Y209206D01*
X148558Y208176D01*
X147923Y207541D01*
X147644D01*
X145417Y209768D01*
X145417Y210047D01*
G37*
G36*
G01X154577Y205342D02*
X152350Y203114D01*
X152071Y203114D01*
X149844Y205342D01*
X149844Y205621D01*
X150518Y206294D01*
X151548Y205264D01*
X152466Y206183D01*
X151436Y207213D01*
X152071Y207848D01*
X152349Y207847D01*
X154576Y205619D01*
X154577Y205342D01*
G37*
G36*
G01X155596Y224449D02*
X157823Y226676D01*
X158102Y226677D01*
X160329Y224450D01*
Y224170D01*
X159655Y223497D01*
X158625Y224527D01*
X157706Y223608D01*
X158737Y222578D01*
X158102Y221943D01*
X157823D01*
X155596Y224171D01*
X155596Y224449D01*
G37*
G36*
G01X155675Y344798D02*
X152525D01*
X152328Y344995D01*
Y348145D01*
X152525Y348342D01*
X153478D01*
Y346885D01*
X154777D01*
Y348342D01*
X155675D01*
X155871Y348145D01*
Y344995D01*
X155675Y344798D01*
G37*
G36*
G01X152525Y354602D02*
X155675D01*
X155872Y354405D01*
Y351255D01*
X155675Y351058D01*
X154722D01*
Y352515D01*
X153423D01*
Y351058D01*
X152525D01*
X152328Y351255D01*
Y354405D01*
X152525Y354602D01*
G37*
G36*
G01X167675Y8198D02*
X164525D01*
X164328Y8395D01*
Y11545D01*
X164525Y11742D01*
X165478D01*
Y10285D01*
X166777D01*
Y11742D01*
X167675D01*
X167871Y11545D01*
Y8395D01*
X167675Y8198D01*
G37*
G36*
G01X164525Y18002D02*
X167675D01*
X167872Y17805D01*
Y14655D01*
X167675Y14458D01*
X166722D01*
Y15915D01*
X165423D01*
Y14458D01*
X164525D01*
X164328Y14655D01*
Y17805D01*
X164525Y18002D01*
G37*
G36*
G01X167675Y19833D02*
X164525D01*
X164328Y20030D01*
Y23180D01*
X164525Y23377D01*
X165478D01*
Y21920D01*
X166777D01*
Y23377D01*
X167675D01*
X167872Y23180D01*
Y20030D01*
X167675Y19833D01*
G37*
G36*
G01X164525Y29637D02*
X167675D01*
X167872Y29440D01*
Y26290D01*
X167675Y26093D01*
X166722D01*
Y27550D01*
X165423D01*
Y26093D01*
X164525D01*
X164329Y26290D01*
Y29440D01*
X164525Y29637D01*
G37*
G36*
G01X166442Y140591D02*
X168669Y142818D01*
X168948Y142818D01*
X171176Y140591D01*
Y140312D01*
X170502Y139638D01*
X169472Y140668D01*
X168553Y139750D01*
X169583Y138719D01*
X168948Y138084D01*
X168670Y138085D01*
X166443Y140313D01*
X166442Y140591D01*
G37*
G36*
G01X167053Y174204D02*
X169280Y176431D01*
X169559Y176431D01*
X171787Y174204D01*
Y173925D01*
X171113Y173251D01*
X170082Y174281D01*
X169164Y173363D01*
X170194Y172332D01*
X169560Y171698D01*
X169281Y171698D01*
X167054Y173926D01*
X167053Y174204D01*
G37*
G36*
G01X168471Y223450D02*
X166244Y221222D01*
X165966Y221222D01*
X163738Y223450D01*
X163738Y223728D01*
X164412Y224402D01*
X165442Y223372D01*
X166361Y224291D01*
X165330Y225321D01*
X165965Y225956D01*
X166243Y225955D01*
X168471Y223727D01*
X168471Y223450D01*
G37*
G36*
G01X164755Y219744D02*
X162528Y217517D01*
X162250Y217517D01*
X160022Y219744D01*
X160022Y220023D01*
X160696Y220697D01*
X161726Y219666D01*
X162645Y220585D01*
X161615Y221616D01*
X162249Y222250D01*
X162528Y222249D01*
X164755Y220022D01*
X164755Y219744D01*
G37*
G36*
G01X162990Y231852D02*
X165218Y234079D01*
X165496Y234079D01*
X167724Y231852D01*
Y231573D01*
X167050Y230899D01*
X166020Y231930D01*
X165101Y231011D01*
X166131Y229980D01*
X165496Y229346D01*
X165218D01*
X162990Y231573D01*
X162990Y231852D01*
G37*
G36*
G01X172150Y227146D02*
X169923Y224919D01*
X169644Y224919D01*
X167417Y227146D01*
X167417Y227426D01*
X168091Y228099D01*
X169121Y227069D01*
X170040Y227988D01*
X169009Y229018D01*
X169644Y229653D01*
X169922Y229652D01*
X172150Y227424D01*
X172150Y227146D01*
G37*
G36*
G01X159312Y228155D02*
X161539Y230382D01*
X161818Y230382D01*
X164045Y228155D01*
Y227876D01*
X163371Y227202D01*
X162341Y228232D01*
X161422Y227314D01*
X162453Y226284D01*
X161818Y225649D01*
X161539D01*
X159312Y227876D01*
X159312Y228155D01*
G37*
G36*
G01X175602Y135885D02*
X173375Y133658D01*
X173096Y133658D01*
X170869Y135885D01*
Y136164D01*
X171542Y136838D01*
X172573Y135808D01*
X173491Y136726D01*
X172461Y137757D01*
X173096Y138391D01*
X173375D01*
X175602Y136164D01*
X175602Y135885D01*
G37*
G36*
G01X176213Y169498D02*
X173986Y167271D01*
X173707Y167271D01*
X171480Y169498D01*
Y169777D01*
X172154Y170451D01*
X173184Y169421D01*
X174102Y170339D01*
X173072Y171370D01*
X173707Y172004D01*
X173986D01*
X176213Y169777D01*
X176213Y169498D01*
G37*
G36*
G01X178995Y233672D02*
X176768Y231445D01*
X176489Y231445D01*
X174262Y233672D01*
Y233951D01*
X174936Y234625D01*
X175966Y233595D01*
X176885Y234513D01*
X175854Y235544D01*
X176489Y236178D01*
X176767Y236178D01*
X178994Y233950D01*
X178995Y233672D01*
G37*
G36*
G01X173499Y242085D02*
X175726Y244312D01*
X176005Y244313D01*
X178232Y242085D01*
Y241806D01*
X177558Y241133D01*
X176528Y242163D01*
X175609Y241244D01*
X176640Y240214D01*
X176005Y239579D01*
X175726D01*
X173499Y241807D01*
X173499Y242085D01*
G37*
G36*
G01X169836Y238378D02*
X172063Y240605D01*
X172341Y240605D01*
X174569Y238378D01*
Y238099D01*
X173895Y237425D01*
X172865Y238455D01*
X171946Y237537D01*
X172976Y236506D01*
X172342Y235872D01*
X172063D01*
X169835Y238099D01*
X169836Y238378D01*
G37*
G36*
G01X189037Y149320D02*
X186810Y147093D01*
X186531Y147093D01*
X184304Y149320D01*
Y149599D01*
X184978Y150273D01*
X186008Y149243D01*
X186927Y150161D01*
X185896Y151192D01*
X186531Y151826D01*
X186809Y151826D01*
X189036Y149598D01*
X189037Y149320D01*
G37*
G36*
G01X179877Y154026D02*
X182104Y156253D01*
X182383Y156253D01*
X184611Y154026D01*
Y153747D01*
X183937Y153073D01*
X182907Y154103D01*
X181988Y153185D01*
X183018Y152154D01*
X182384Y151520D01*
X182105D01*
X179877Y153747D01*
X179877Y154026D01*
G37*
G36*
G01X182658Y237380D02*
X180431Y235153D01*
X180153Y235153D01*
X177925Y237380D01*
X177925Y237659D01*
X178599Y238333D01*
X179629Y237302D01*
X180548Y238221D01*
X179518Y239251D01*
X180152Y239886D01*
X180431Y239885D01*
X182658Y237658D01*
X182658Y237380D01*
G37*
G36*
G01X186314Y241086D02*
X184087Y238859D01*
X183809Y238859D01*
X181581Y241086D01*
X181581Y241365D01*
X182255Y242039D01*
X183285Y241009D01*
X184204Y241927D01*
X183174Y242958D01*
X183808Y243592D01*
X184087Y243591D01*
X186314Y241364D01*
X186314Y241086D01*
G37*
G36*
G01X180870Y249507D02*
X183097Y251734D01*
X183376Y251734D01*
X185603Y249507D01*
Y249228D01*
X184930Y248554D01*
X183899Y249584D01*
X182980Y248666D01*
X184011Y247635D01*
X183376Y247000D01*
X183097D01*
X180870Y249228D01*
X180870Y249507D01*
G37*
G36*
G01X190030Y244801D02*
X187802Y242574D01*
X187524Y242574D01*
X185296Y244801D01*
X185296Y245080D01*
X185970Y245754D01*
X187000Y244724D01*
X187919Y245642D01*
X186889Y246673D01*
X187524Y247307D01*
X187802Y247306D01*
X190029Y245079D01*
X190030Y244801D01*
G37*
G36*
G01X177155Y245791D02*
X179382Y248019D01*
X179661Y248019D01*
X181888Y245792D01*
Y245513D01*
X181214Y244839D01*
X180184Y245869D01*
X179265Y244951D01*
X180296Y243920D01*
X179661Y243286D01*
X179382D01*
X177155Y245513D01*
X177155Y245791D01*
G37*
G36*
G01X184468Y253167D02*
X186695Y255394D01*
X186974Y255395D01*
X189201Y253167D01*
Y252888D01*
X188527Y252215D01*
X187497Y253245D01*
X186578Y252326D01*
X187609Y251296D01*
X186974Y250661D01*
X186695Y250661D01*
X184468Y252889D01*
X184468Y253167D01*
G37*
G36*
G01X197383Y252173D02*
X195156Y249946D01*
X194878Y249946D01*
X192650Y252173D01*
X192650Y252452D01*
X193324Y253126D01*
X194354Y252096D01*
X195273Y253014D01*
X194242Y254045D01*
X194877Y254679D01*
X195155Y254678D01*
X197383Y252451D01*
X197383Y252173D01*
G37*
G36*
G01X193627Y248462D02*
X191400Y246235D01*
X191122Y246235D01*
X188894Y248462D01*
Y248741D01*
X189568Y249415D01*
X190598Y248384D01*
X191517Y249303D01*
X190487Y250333D01*
X191121Y250968D01*
X191400Y250967D01*
X193627Y248740D01*
X193627Y248462D01*
G37*
G36*
G01X188224Y256879D02*
X190451Y259106D01*
X190730Y259106D01*
X192957Y256879D01*
Y256600D01*
X192283Y255926D01*
X191253Y256956D01*
X190334Y256038D01*
X191364Y255007D01*
X190730Y254373D01*
X190451D01*
X188224Y256600D01*
X188224Y256879D01*
G37*
G36*
G01X201950Y126395D02*
X198800D01*
X198603Y126592D01*
Y129742D01*
X198800Y129939D01*
X199753D01*
Y128482D01*
X201052D01*
Y129939D01*
X201950D01*
X202147Y129742D01*
Y126592D01*
X201950Y126395D01*
G37*
G36*
G01X198800Y136199D02*
X201950D01*
X202147Y136002D01*
Y132852D01*
X201950Y132655D01*
X200997D01*
Y134112D01*
X199698D01*
Y132655D01*
X198800D01*
X198604Y132852D01*
Y136002D01*
X198800Y136199D01*
G37*
G36*
G01X207250Y126389D02*
X204100D01*
X203903Y126586D01*
Y129736D01*
X204100Y129933D01*
X205053D01*
Y128476D01*
X206352D01*
Y129933D01*
X207250D01*
X207447Y129736D01*
Y126586D01*
X207250Y126389D01*
G37*
G36*
G01X212550Y126383D02*
X209400D01*
X209203Y126580D01*
Y129730D01*
X209400Y129927D01*
X210353D01*
Y128470D01*
X211652D01*
Y129927D01*
X212550D01*
X212747Y129730D01*
Y126580D01*
X212550Y126383D01*
G37*
G36*
G01X204100Y136193D02*
X207250D01*
X207447Y135996D01*
Y132846D01*
X207250Y132649D01*
X206297D01*
Y134106D01*
X204998D01*
Y132649D01*
X204100D01*
X203904Y132846D01*
Y135996D01*
X204100Y136193D01*
G37*
G36*
G01X209400Y136187D02*
X212550D01*
X212747Y135990D01*
Y132840D01*
X212550Y132642D01*
X211597D01*
Y134100D01*
X210298D01*
Y132642D01*
X209400D01*
X209204Y132840D01*
Y135990D01*
X209400Y136187D01*
G37*
G36*
G01X209049Y151287D02*
X211276Y153514D01*
X211555Y153514D01*
X213782Y151287D01*
Y151008D01*
X213108Y150334D01*
X212078Y151364D01*
X211159Y150446D01*
X212190Y149415D01*
X211555Y148781D01*
X211276D01*
X209049Y151008D01*
X209049Y151287D01*
G37*
G36*
G01X215081Y236351D02*
X212854Y238578D01*
X212853Y238856D01*
X215081Y241084D01*
X215360Y241084D01*
X216033Y240410D01*
X215003Y239380D01*
X215922Y238461D01*
X216952Y239491D01*
X217587Y238857D01*
X217586Y238578D01*
X215358Y236351D01*
X215081Y236351D01*
G37*
G36*
G01X218209Y146581D02*
X215982Y144354D01*
X215703Y144354D01*
X213475Y146582D01*
Y146860D01*
X214149Y147534D01*
X215180Y146504D01*
X216098Y147422D01*
X215068Y148453D01*
X215702Y149088D01*
X215981Y149087D01*
X218208Y146859D01*
X218209Y146581D01*
G37*
G36*
G01X216804Y158947D02*
X219031Y161174D01*
X219310Y161174D01*
X221537Y158946D01*
Y158668D01*
X220864Y157994D01*
X219833Y159024D01*
X218914Y158106D01*
X219945Y157075D01*
X219310Y156440D01*
X219031D01*
X216804Y158668D01*
X216804Y158947D01*
G37*
G36*
G01X225964Y154241D02*
X223737Y152014D01*
X223458Y152014D01*
X221230Y154241D01*
Y154520D01*
X221904Y155194D01*
X222935Y154164D01*
X223853Y155082D01*
X222823Y156113D01*
X223458Y156747D01*
X223736Y156746D01*
X225963Y154519D01*
X225964Y154241D01*
G37*
G36*
G01X223527Y241823D02*
X225754Y239596D01*
X225755Y239317D01*
X223528Y237090D01*
X223248D01*
X222575Y237764D01*
X223605Y238794D01*
X222686Y239713D01*
X221656Y238682D01*
X221021Y239317D01*
Y239596D01*
X223249Y241823D01*
X223527Y241823D01*
G37*
G36*
G01X218822Y232664D02*
X216595Y234891D01*
X216595Y235169D01*
X218822Y237397D01*
X219101Y237397D01*
X219775Y236723D01*
X218745Y235693D01*
X219663Y234774D01*
X220694Y235804D01*
X221328Y235170D01*
X221327Y234892D01*
X219100Y232664D01*
X218822Y232664D01*
G37*
G36*
G01X219786Y245510D02*
X222013Y243283D01*
X222014Y243004D01*
X219786Y240777D01*
X219507D01*
X218833Y241451D01*
X219864Y242481D01*
X218945Y243400D01*
X217915Y242369D01*
X217280Y243004D01*
Y243283D01*
X219507Y245510D01*
X219786Y245510D01*
G37*
G36*
G01X234048Y162399D02*
X231820Y160172D01*
X231542Y160171D01*
X229314Y162399D01*
Y162678D01*
X229988Y163351D01*
X231018Y162321D01*
X231937Y163240D01*
X230907Y164270D01*
X231542Y164905D01*
X231820D01*
X234048Y162677D01*
X234048Y162399D01*
G37*
G36*
G01X224888Y167104D02*
X227115Y169331D01*
X227394Y169332D01*
X229621Y167104D01*
X229621Y166825D01*
X228947Y166151D01*
X227917Y167182D01*
X226998Y166263D01*
X228029Y165233D01*
X227394Y164598D01*
X227116Y164599D01*
X224889Y166826D01*
X224888Y167104D01*
G37*
G36*
G01X228636Y170852D02*
X230863Y173079D01*
X231141Y173079D01*
X233369Y170852D01*
X233369Y170573D01*
X232695Y169899D01*
X231665Y170929D01*
X230746Y170011D01*
X231776Y168980D01*
X231142Y168346D01*
X230864Y168347D01*
X228636Y170574D01*
X228636Y170852D01*
G37*
G36*
G01X226803Y260015D02*
X229030Y262242D01*
X229309Y262243D01*
X231536Y260015D01*
Y259736D01*
X230863Y259063D01*
X229832Y260093D01*
X228914Y259174D01*
X229944Y258144D01*
X229309Y257509D01*
X229030D01*
X226803Y259737D01*
X226803Y260015D01*
G37*
G36*
G01X241472Y169823D02*
X239245Y167596D01*
X238966Y167596D01*
X236739Y169823D01*
Y170102D01*
X237413Y170776D01*
X238443Y169746D01*
X239362Y170664D01*
X238332Y171695D01*
X238966Y172329D01*
X239245D01*
X241472Y170102D01*
X241472Y169823D01*
G37*
G36*
G01X237795Y166146D02*
X235568Y163919D01*
X235289Y163919D01*
X233062Y166146D01*
Y166425D01*
X233736Y167099D01*
X234766Y166069D01*
X235685Y166988D01*
X234655Y168018D01*
X235289Y168652D01*
X235568D01*
X237796Y166425D01*
X237795Y166146D01*
G37*
G36*
G01X232313Y174529D02*
X234540Y176756D01*
X234818Y176756D01*
X237046Y174529D01*
X237046Y174250D01*
X236372Y173576D01*
X235342Y174606D01*
X234423Y173688D01*
X235453Y172657D01*
X234819Y172023D01*
X234541Y172024D01*
X232313Y174251D01*
X232313Y174529D01*
G37*
G36*
G01X244224Y247113D02*
X241997Y244886D01*
X241718Y244886D01*
X239490Y247113D01*
Y247392D01*
X240164Y248066D01*
X241195Y247036D01*
X242113Y247954D01*
X241083Y248985D01*
X241718Y249619D01*
X241997D01*
X244224Y247392D01*
X244224Y247113D01*
G37*
G36*
G01X235064Y251819D02*
X237291Y254046D01*
X237570Y254046D01*
X239797Y251819D01*
Y251540D01*
X239124Y250866D01*
X238093Y251896D01*
X237175Y250978D01*
X238205Y249947D01*
X237570Y249312D01*
X237292Y249313D01*
X235065Y251541D01*
X235064Y251819D01*
G37*
G36*
G01X235963Y255310D02*
X233736Y253083D01*
X233457Y253083D01*
X231230Y255310D01*
Y255589D01*
X231903Y256263D01*
X232934Y255232D01*
X233852Y256151D01*
X232822Y257181D01*
X233457Y257816D01*
X233735Y257815D01*
X235962Y255588D01*
X235963Y255310D01*
G37*
G36*
G01X242845Y344649D02*
X245994D01*
X246191Y344452D01*
Y341302D01*
X245994Y341105D01*
X245041D01*
Y342562D01*
X243742D01*
Y341105D01*
X242845D01*
X242647Y341302D01*
Y344452D01*
X242845Y344649D01*
G37*
G36*
G01X245994Y334845D02*
X242845D01*
X242647Y335042D01*
Y338192D01*
X242845Y338389D01*
X243797D01*
Y336932D01*
X245097D01*
Y338389D01*
X245994D01*
X246190Y338192D01*
Y335042D01*
X245994Y334845D01*
G37*
G36*
G01X248045Y344649D02*
X251194D01*
X251391Y344452D01*
Y341302D01*
X251194Y341105D01*
X250241D01*
Y342562D01*
X248942D01*
Y341105D01*
X248045D01*
X247847Y341302D01*
Y344452D01*
X248045Y344649D01*
G37*
G36*
G01X251194Y334845D02*
X248045D01*
X247847Y335042D01*
Y338192D01*
X248045Y338389D01*
X248997D01*
Y336932D01*
X250297D01*
Y338389D01*
X251194D01*
X251390Y338192D01*
Y335042D01*
X251194Y334845D01*
G37*
G36*
G01X262455Y189154D02*
X260228Y186927D01*
X259949Y186927D01*
X257722Y189154D01*
Y189433D01*
X258396Y190107D01*
X259426Y189076D01*
X260345Y189995D01*
X259314Y191026D01*
X259949Y191660D01*
X260228D01*
X262455Y189433D01*
X262455Y189154D01*
G37*
G36*
G01X253295Y193860D02*
X255523Y196087D01*
X255801Y196087D01*
X258029Y193860D01*
X258029Y193580D01*
X257355Y192907D01*
X256325Y193937D01*
X255406Y193018D01*
X256436Y191988D01*
X255802Y191353D01*
X255523Y191354D01*
X253296Y193582D01*
X253295Y193860D01*
G37*
G36*
G01X257414Y197977D02*
X259641Y200204D01*
X259920Y200204D01*
X262147Y197977D01*
X262147Y197698D01*
X261473Y197024D01*
X260443Y198054D01*
X259524Y197136D01*
X260555Y196105D01*
X259920Y195470D01*
X259642Y195471D01*
X257414Y197699D01*
X257414Y197977D01*
G37*
G36*
G01X253245Y344649D02*
X256394D01*
X256591Y344452D01*
Y341302D01*
X256394Y341105D01*
X255441D01*
Y342562D01*
X254142D01*
Y341105D01*
X253245D01*
X253047Y341302D01*
Y344452D01*
X253245Y344649D01*
G37*
G36*
G01X256394Y334845D02*
X253245D01*
X253047Y335042D01*
Y338192D01*
X253245Y338389D01*
X254197D01*
Y336932D01*
X255497D01*
Y338389D01*
X256394D01*
X256590Y338192D01*
Y335042D01*
X256394Y334845D01*
G37*
G36*
G01X266574Y193271D02*
X264346Y191044D01*
X264068Y191044D01*
X261840Y193271D01*
Y193550D01*
X262514Y194224D01*
X263544Y193194D01*
X264463Y194112D01*
X263433Y195142D01*
X264068Y195777D01*
X264346D01*
X266574Y193550D01*
X266574Y193271D01*
G37*
G36*
G01X270678Y197370D02*
X268451Y195143D01*
X268172Y195142D01*
X265945Y197370D01*
Y197649D01*
X266618Y198322D01*
X267649Y197292D01*
X268568Y198211D01*
X267537Y199241D01*
X268172Y199876D01*
X268451D01*
X270678Y197648D01*
X270678Y197370D01*
G37*
G36*
G01X261518Y202075D02*
X263746Y204302D01*
X264024Y204302D01*
X266252Y202075D01*
X266252Y201796D01*
X265578Y201122D01*
X264548Y202153D01*
X263629Y201234D01*
X264659Y200204D01*
X264025Y199569D01*
X263746Y199570D01*
X261519Y201797D01*
X261518Y202075D01*
G37*
G36*
G01X263066Y359778D02*
X263264Y359975D01*
X264916D01*
Y358223D01*
X266688D01*
Y359956D01*
X268302Y359975D01*
X268499Y359778D01*
Y355250D01*
X268302Y355054D01*
X263264D01*
X263066Y355250D01*
Y359778D01*
G37*
G36*
G01Y368243D02*
X263264Y368440D01*
X268302D01*
X268499Y368243D01*
Y363715D01*
X268302Y363519D01*
X266688Y363499D01*
Y365271D01*
X264916D01*
Y363538D01*
X263264Y363519D01*
X263066Y363715D01*
Y368243D01*
G37*
G36*
G01X287081Y116136D02*
X285100D01*
X284848Y116388D01*
Y119286D01*
X285100Y119538D01*
X287081D01*
X288161Y118381D01*
Y117293D01*
X287081Y116136D01*
G37*
G36*
G01X287130Y125420D02*
X288209Y124263D01*
Y123174D01*
X287130Y122018D01*
X285148D01*
X284896Y122270D01*
Y125168D01*
X285148Y125420D01*
X287130D01*
G37*
G36*
G01X287181Y130436D02*
X285200D01*
X284948Y130688D01*
Y133586D01*
X285200Y133838D01*
X287181D01*
X288261Y132681D01*
Y131593D01*
X287181Y130436D01*
G37*
G36*
G01X288928Y343658D02*
X288730Y343461D01*
X283692D01*
X283495Y343658D01*
Y348186D01*
X283692Y348382D01*
X285306Y348402D01*
Y346630D01*
X287078D01*
Y348363D01*
X288730Y348382D01*
X288928Y348186D01*
Y343658D01*
G37*
G36*
G01Y352123D02*
X288730Y351926D01*
X287078D01*
Y353678D01*
X285306D01*
Y351945D01*
X283692Y351926D01*
X283495Y352123D01*
Y356650D01*
X283692Y356847D01*
X288730D01*
X288928Y356650D01*
Y352123D01*
G37*
G36*
G01X291270Y116180D02*
X290191Y117337D01*
Y118426D01*
X291270Y119582D01*
X293252D01*
X293504Y119330D01*
Y116432D01*
X293252Y116180D01*
X291270D01*
G37*
G36*
G01X291319Y125464D02*
X293300D01*
X293552Y125212D01*
Y122314D01*
X293300Y122062D01*
X291319D01*
X290239Y123219D01*
Y124307D01*
X291319Y125464D01*
G37*
G36*
G01X291370Y130480D02*
X290291Y131637D01*
Y132726D01*
X291370Y133882D01*
X293352D01*
X293604Y133630D01*
Y130732D01*
X293352Y130480D01*
X291370D01*
G37*
G36*
G01X303698Y93425D02*
Y96575D01*
X303895Y96772D01*
X307045D01*
X307242Y96575D01*
Y95622D01*
X305785D01*
Y94323D01*
X307242D01*
Y93425D01*
X307045Y93228D01*
X303895D01*
X303698Y93425D01*
G37*
G36*
G01Y87525D02*
Y90675D01*
X303895Y90872D01*
X307045D01*
X307242Y90675D01*
Y89722D01*
X305785D01*
Y88423D01*
X307242D01*
Y87525D01*
X307045Y87328D01*
X303895D01*
X303698Y87525D01*
G37*
G36*
G01X302016Y126704D02*
X301819Y126507D01*
X296780D01*
X296583Y126704D01*
Y131232D01*
X296780Y131428D01*
X298394Y131448D01*
Y129676D01*
X300166D01*
Y131409D01*
X301819Y131428D01*
X302016Y131232D01*
Y126704D01*
G37*
G36*
G01Y135169D02*
X301819Y134972D01*
X300166D01*
Y136724D01*
X298394D01*
Y134991D01*
X296780Y134972D01*
X296583Y135169D01*
Y139696D01*
X296780Y139893D01*
X301819D01*
X302016Y139696D01*
Y135169D01*
G37*
G36*
G01X311475Y65298D02*
X308325D01*
X308128Y65495D01*
Y68645D01*
X308325Y68842D01*
X309278D01*
Y67385D01*
X310577D01*
Y68842D01*
X311475D01*
X311672Y68645D01*
Y65495D01*
X311475Y65298D01*
G37*
G36*
G01X308325Y75102D02*
X311475D01*
X311672Y74905D01*
Y71755D01*
X311475Y71558D01*
X310522D01*
Y73015D01*
X309223D01*
Y71558D01*
X308325D01*
X308129Y71755D01*
Y74905D01*
X308325Y75102D01*
G37*
G36*
G01X313502Y96575D02*
Y93425D01*
X313305Y93228D01*
X310155D01*
X309958Y93425D01*
Y94378D01*
X311415D01*
Y95677D01*
X309958D01*
Y96575D01*
X310155Y96771D01*
X313305D01*
X313502Y96575D01*
G37*
G36*
G01Y90675D02*
Y87525D01*
X313305Y87328D01*
X310155D01*
X309958Y87525D01*
Y88478D01*
X311415D01*
Y89777D01*
X309958D01*
Y90675D01*
X310155Y90871D01*
X313305D01*
X313502Y90675D01*
G37*
G36*
G01X317808Y32456D02*
X317713Y32551D01*
Y33637D01*
X317808Y33732D01*
X319104D01*
X319199Y33637D01*
Y32551D01*
X319104Y32456D01*
X317808D01*
G37*
G36*
G01X316981D02*
X315684D01*
X315589Y32551D01*
Y33637D01*
X315684Y33732D01*
X316981D01*
X317075Y33637D01*
Y32551D01*
X316981Y32456D01*
G37*
G36*
G01X319138Y37713D02*
X319044Y37619D01*
X317957D01*
X317862Y37713D01*
Y39010D01*
X317957Y39105D01*
X319044D01*
X319138Y39010D01*
Y37713D01*
G37*
G36*
G01Y36886D02*
Y35589D01*
X319044Y35495D01*
X317957D01*
X317862Y35589D01*
Y36886D01*
X317957Y36981D01*
X319044D01*
X319138Y36886D01*
G37*
G36*
G01X317918Y40956D02*
X317823Y41051D01*
Y42137D01*
X317918Y42232D01*
X319214D01*
X319309Y42137D01*
Y41051D01*
X319214Y40956D01*
X317918D01*
G37*
G36*
G01X317091D02*
X315794D01*
X315699Y41051D01*
Y42137D01*
X315794Y42232D01*
X317091D01*
X317185Y42137D01*
Y41051D01*
X317091Y40956D01*
G37*
G36*
G01X319238Y46214D02*
X319143Y46119D01*
X318057D01*
X317962Y46214D01*
Y47510D01*
X318057Y47605D01*
X319143D01*
X319238Y47510D01*
Y46214D01*
G37*
G36*
G01Y45387D02*
Y44090D01*
X319143Y43995D01*
X318057D01*
X317962Y44090D01*
Y45387D01*
X318057Y45481D01*
X319143D01*
X319238Y45387D01*
G37*
G36*
G01X316996Y50661D02*
X317090Y50567D01*
Y49480D01*
X316996Y49385D01*
X315699D01*
X315604Y49480D01*
Y50567D01*
X315699Y50661D01*
X316996D01*
G37*
G36*
G01X317823D02*
X319120D01*
X319214Y50567D01*
Y49480D01*
X319120Y49385D01*
X317823D01*
X317728Y49480D01*
Y50567D01*
X317823Y50661D01*
G37*
G36*
G01X317828Y52456D02*
X317733Y52551D01*
Y53637D01*
X317828Y53732D01*
X319124D01*
X319219Y53637D01*
Y52551D01*
X319124Y52456D01*
X317828D01*
G37*
G36*
G01X317001D02*
X315704D01*
X315609Y52551D01*
Y53637D01*
X315704Y53732D01*
X317001D01*
X317095Y53637D01*
Y52551D01*
X317001Y52456D01*
G37*
G36*
G01X319287Y57824D02*
X319193Y57730D01*
X318106D01*
X318011Y57824D01*
Y59121D01*
X318106Y59216D01*
X319193D01*
X319287Y59121D01*
Y57824D01*
G37*
G36*
G01Y56997D02*
Y55700D01*
X319193Y55606D01*
X318106D01*
X318011Y55700D01*
Y56997D01*
X318106Y57092D01*
X319193D01*
X319287Y56997D01*
G37*
G36*
G01X318038Y60956D02*
X317943Y61051D01*
Y62137D01*
X318038Y62232D01*
X319334D01*
X319429Y62137D01*
Y61051D01*
X319334Y60956D01*
X318038D01*
G37*
G36*
G01X317211D02*
X315914D01*
X315819Y61051D01*
Y62137D01*
X315914Y62232D01*
X317211D01*
X317305Y62137D01*
Y61051D01*
X317211Y60956D01*
G37*
G36*
G01X324375Y90998D02*
X321225D01*
X321028Y91195D01*
Y94345D01*
X321225Y94542D01*
X322178D01*
Y93085D01*
X323477D01*
Y94542D01*
X324375D01*
X324571Y94345D01*
Y91195D01*
X324375Y90998D01*
G37*
G36*
G01X319075D02*
X315925D01*
X315728Y91195D01*
Y94345D01*
X315925Y94542D01*
X316878D01*
Y93085D01*
X318177D01*
Y94542D01*
X319075D01*
X319271Y94345D01*
Y91195D01*
X319075Y90998D01*
G37*
G36*
G01X321225Y100802D02*
X324375D01*
X324572Y100605D01*
Y97455D01*
X324375Y97258D01*
X323422D01*
Y98715D01*
X322123D01*
Y97258D01*
X321225D01*
X321028Y97455D01*
Y100605D01*
X321225Y100802D01*
G37*
G36*
G01X315925D02*
X319075D01*
X319272Y100605D01*
Y97455D01*
X319075Y97258D01*
X318122D01*
Y98715D01*
X316823D01*
Y97258D01*
X315925D01*
X315728Y97455D01*
Y100605D01*
X315925Y100802D01*
G37*
G36*
G01X329575Y90998D02*
X326425D01*
X326228Y91195D01*
Y94345D01*
X326425Y94542D01*
X327378D01*
Y93085D01*
X328677D01*
Y94542D01*
X329575D01*
X329771Y94345D01*
Y91195D01*
X329575Y90998D01*
G37*
G36*
G01X326425Y100802D02*
X329575D01*
X329772Y100605D01*
Y97455D01*
X329575Y97258D01*
X328622D01*
Y98715D01*
X327323D01*
Y97258D01*
X326425D01*
X326228Y97455D01*
Y100605D01*
X326425Y100802D01*
G37*
G36*
G01X339598Y71225D02*
Y74375D01*
X339795Y74572D01*
X342945D01*
X343142Y74375D01*
Y73422D01*
X341685D01*
Y72123D01*
X343142D01*
Y71225D01*
X342945Y71029D01*
X339795D01*
X339598Y71225D01*
G37*
G36*
G01X335075Y90998D02*
X331925D01*
X331728Y91195D01*
Y94345D01*
X331925Y94542D01*
X332878D01*
Y93085D01*
X334177D01*
Y94542D01*
X335075D01*
X335271Y94345D01*
Y91195D01*
X335075Y90998D01*
G37*
G36*
G01X340262D02*
X337112D01*
X336915Y91195D01*
Y94345D01*
X337112Y94542D01*
X338065D01*
Y93085D01*
X339364D01*
Y94542D01*
X340262D01*
X340458Y94345D01*
Y91195D01*
X340262Y90998D01*
G37*
G36*
G01X331925Y100802D02*
X335075D01*
X335272Y100605D01*
Y97455D01*
X335075Y97258D01*
X334122D01*
Y98715D01*
X332823D01*
Y97258D01*
X331925D01*
X331728Y97455D01*
Y100605D01*
X331925Y100802D01*
G37*
G36*
G01X337112D02*
X340262D01*
X340459Y100605D01*
Y97455D01*
X340262Y97258D01*
X339309D01*
Y98715D01*
X338010D01*
Y97258D01*
X337112D01*
X336915Y97455D01*
Y100605D01*
X337112Y100802D01*
G37*
G36*
G01X343249Y198255D02*
Y195106D01*
X343052Y194909D01*
X339902D01*
X339705Y195106D01*
Y196059D01*
X341162D01*
Y197358D01*
X339705D01*
Y198255D01*
X339902Y198453D01*
X343052D01*
X343249Y198255D01*
G37*
G36*
G01X333445Y195106D02*
Y198255D01*
X333642Y198453D01*
X336792D01*
X336989Y198255D01*
Y197303D01*
X335532D01*
Y196003D01*
X336989D01*
Y195106D01*
X336792Y194910D01*
X333642D01*
X333445Y195106D01*
G37*
G36*
G01X343249Y203455D02*
Y200306D01*
X343052Y200109D01*
X339902D01*
X339705Y200306D01*
Y201259D01*
X341162D01*
Y202558D01*
X339705D01*
Y203455D01*
X339902Y203653D01*
X343052D01*
X343249Y203455D01*
G37*
G36*
G01X333445Y200306D02*
Y203455D01*
X333642Y203653D01*
X336792D01*
X336989Y203455D01*
Y202503D01*
X335532D01*
Y201203D01*
X336989D01*
Y200306D01*
X336792Y200110D01*
X333642D01*
X333445Y200306D01*
G37*
G36*
G01X343249Y208655D02*
Y205506D01*
X343052Y205309D01*
X339902D01*
X339705Y205506D01*
Y206459D01*
X341162D01*
Y207758D01*
X339705D01*
Y208655D01*
X339902Y208853D01*
X343052D01*
X343249Y208655D01*
G37*
G36*
G01X333445Y205506D02*
Y208655D01*
X333642Y208853D01*
X336792D01*
X336989Y208655D01*
Y207703D01*
X335532D01*
Y206403D01*
X336989D01*
Y205506D01*
X336792Y205310D01*
X333642D01*
X333445Y205506D01*
G37*
G36*
G01X342938Y276255D02*
Y273106D01*
X342741Y272909D01*
X339591D01*
X339394Y273106D01*
Y274059D01*
X340851D01*
Y275358D01*
X339394D01*
Y276255D01*
X339591Y276453D01*
X342741D01*
X342938Y276255D01*
G37*
G36*
G01X333134Y273106D02*
Y276255D01*
X333331Y276453D01*
X336481D01*
X336678Y276255D01*
Y275303D01*
X335221D01*
Y274003D01*
X336678D01*
Y273106D01*
X336481Y272910D01*
X333331D01*
X333134Y273106D01*
G37*
G36*
G01X342938Y286655D02*
Y283506D01*
X342741Y283309D01*
X339591D01*
X339394Y283506D01*
Y284459D01*
X340851D01*
Y285758D01*
X339394D01*
Y286655D01*
X339591Y286853D01*
X342741D01*
X342938Y286655D01*
G37*
G36*
G01X333134Y283506D02*
Y286655D01*
X333331Y286853D01*
X336481D01*
X336678Y286655D01*
Y285703D01*
X335221D01*
Y284403D01*
X336678D01*
Y283506D01*
X336481Y283310D01*
X333331D01*
X333134Y283506D01*
G37*
G36*
G01X342938Y281455D02*
Y278306D01*
X342741Y278109D01*
X339591D01*
X339394Y278306D01*
Y279259D01*
X340851D01*
Y280558D01*
X339394D01*
Y281455D01*
X339591Y281653D01*
X342741D01*
X342938Y281455D01*
G37*
G36*
G01X333134Y278306D02*
Y281455D01*
X333331Y281653D01*
X336481D01*
X336678Y281455D01*
Y280503D01*
X335221D01*
Y279203D01*
X336678D01*
Y278306D01*
X336481Y278110D01*
X333331D01*
X333134Y278306D01*
G37*
G36*
G01X343049Y353475D02*
Y350325D01*
X342852Y350128D01*
X339702D01*
X339505Y350325D01*
Y351278D01*
X340962D01*
Y352577D01*
X339505D01*
Y353475D01*
X339702Y353672D01*
X342852D01*
X343049Y353475D01*
G37*
G36*
G01X333245Y350325D02*
Y353475D01*
X333442Y353672D01*
X336592D01*
X336789Y353475D01*
Y352522D01*
X335332D01*
Y351223D01*
X336789D01*
Y350325D01*
X336592Y350129D01*
X333442D01*
X333245Y350325D01*
G37*
G36*
G01X343049Y358755D02*
Y355606D01*
X342852Y355409D01*
X339702D01*
X339505Y355606D01*
Y356559D01*
X340962D01*
Y357858D01*
X339505D01*
Y358755D01*
X339702Y358953D01*
X342852D01*
X343049Y358755D01*
G37*
G36*
G01X333245Y355606D02*
Y358755D01*
X333442Y358953D01*
X336592D01*
X336789Y358755D01*
Y357803D01*
X335332D01*
Y356503D01*
X336789D01*
Y355606D01*
X336592Y355410D01*
X333442D01*
X333245Y355606D01*
G37*
G36*
G01X343049Y363955D02*
Y360806D01*
X342852Y360609D01*
X339702D01*
X339505Y360806D01*
Y361759D01*
X340962D01*
Y363058D01*
X339505D01*
Y363955D01*
X339702Y364153D01*
X342852D01*
X343049Y363955D01*
G37*
G36*
G01X333245Y360806D02*
Y363955D01*
X333442Y364153D01*
X336592D01*
X336789Y363955D01*
Y363003D01*
X335332D01*
Y361703D01*
X336789D01*
Y360806D01*
X336592Y360610D01*
X333442D01*
X333245Y360806D01*
G37*
G36*
G01X349402Y74375D02*
Y71225D01*
X349205Y71028D01*
X346055D01*
X345858Y71225D01*
Y72178D01*
X347315D01*
Y73477D01*
X345858D01*
Y74375D01*
X346055Y74572D01*
X349205D01*
X349402Y74375D01*
G37*
G36*
G01X350775Y90998D02*
X347625D01*
X347428Y91195D01*
Y94345D01*
X347625Y94542D01*
X348578D01*
Y93085D01*
X349877D01*
Y94542D01*
X350775D01*
X350971Y94345D01*
Y91195D01*
X350775Y90998D01*
G37*
G36*
G01X345475D02*
X342325D01*
X342128Y91195D01*
Y94345D01*
X342325Y94542D01*
X343278D01*
Y93085D01*
X344577D01*
Y94542D01*
X345475D01*
X345671Y94345D01*
Y91195D01*
X345475Y90998D01*
G37*
G36*
G01X347625Y100802D02*
X350775D01*
X350972Y100605D01*
Y97455D01*
X350775Y97258D01*
X349822D01*
Y98715D01*
X348523D01*
Y97258D01*
X347625D01*
X347428Y97455D01*
Y100605D01*
X347625Y100802D01*
G37*
G36*
G01X342325D02*
X345475D01*
X345672Y100605D01*
Y97455D01*
X345475Y97258D01*
X344522D01*
Y98715D01*
X343223D01*
Y97258D01*
X342325D01*
X342128Y97455D01*
Y100605D01*
X342325Y100802D01*
G37*
G36*
G01X342258Y162572D02*
X342061Y162770D01*
Y167808D01*
X342258Y168005D01*
X346786D01*
X346982Y167808D01*
X347002Y166194D01*
X345230D01*
Y164422D01*
X346963D01*
X346982Y162770D01*
X346786Y162572D01*
X342258D01*
G37*
G36*
G01X342158Y240772D02*
X341961Y240970D01*
Y246009D01*
X342158Y246205D01*
X346686D01*
X346882Y246009D01*
X346902Y244394D01*
X345130D01*
Y242622D01*
X346863D01*
X346882Y240970D01*
X346686Y240772D01*
X342158D01*
G37*
G36*
G01X342058Y317872D02*
X341861Y318070D01*
Y323108D01*
X342058Y323305D01*
X346586D01*
X346782Y323108D01*
X346802Y321494D01*
X345030D01*
Y319722D01*
X346763D01*
X346782Y318070D01*
X346586Y317872D01*
X342058D01*
G37*
G36*
G01X352817Y366284D02*
X352620Y366087D01*
X347580D01*
X347383Y366284D01*
Y370812D01*
X347580Y371009D01*
X349195Y371028D01*
Y369257D01*
X350966D01*
Y370989D01*
X352620Y371009D01*
X352817Y370812D01*
Y366284D01*
G37*
G36*
G01X347383Y379315D02*
X347580Y379512D01*
X352620D01*
X352817Y379315D01*
Y374788D01*
X352620Y374591D01*
X351005Y374571D01*
Y376343D01*
X349234D01*
Y374611D01*
X347580Y374591D01*
X347383Y374788D01*
Y379315D01*
G37*
G36*
G01X357898Y64420D02*
Y67569D01*
X358095Y67766D01*
X361245D01*
X361442Y67569D01*
Y66616D01*
X359985D01*
Y65317D01*
X361442D01*
Y64420D01*
X361245Y64222D01*
X358095D01*
X357898Y64420D01*
G37*
G36*
G01X350723Y162572D02*
X350526Y162770D01*
Y164422D01*
X352278D01*
Y166194D01*
X350545D01*
X350526Y167808D01*
X350723Y168005D01*
X355250D01*
X355447Y167808D01*
Y162770D01*
X355250Y162572D01*
X350723D01*
G37*
G36*
G01X358378Y188434D02*
X358575Y188236D01*
Y186584D01*
X356823D01*
Y184812D01*
X358556D01*
X358575Y183198D01*
X358378Y183001D01*
X353850D01*
X353654Y183198D01*
Y188236D01*
X353850Y188434D01*
X358378D01*
G37*
G36*
G01X350623Y240772D02*
X350426Y240970D01*
Y242622D01*
X352178D01*
Y244394D01*
X350445D01*
X350426Y246009D01*
X350623Y246205D01*
X355150D01*
X355347Y246009D01*
Y240970D01*
X355150Y240772D01*
X350623D01*
G37*
G36*
G01X358278Y266634D02*
X358475Y266436D01*
Y264784D01*
X356723D01*
Y263012D01*
X358456D01*
X358475Y261398D01*
X358278Y261201D01*
X353751D01*
X353554Y261398D01*
Y266436D01*
X353751Y266634D01*
X358278D01*
G37*
G36*
G01X350523Y317872D02*
X350326Y318070D01*
Y319722D01*
X352078D01*
Y321494D01*
X350345D01*
X350326Y323108D01*
X350523Y323305D01*
X355050D01*
X355247Y323108D01*
Y318070D01*
X355050Y317872D01*
X350523D01*
G37*
G36*
G01X358178Y343734D02*
X358375Y343536D01*
Y341884D01*
X356623D01*
Y340112D01*
X358356D01*
X358375Y338498D01*
X358178Y338301D01*
X353650D01*
X353454Y338498D01*
Y343536D01*
X353650Y343734D01*
X358178D01*
G37*
G36*
G01X355184Y370831D02*
X355381Y371028D01*
X357034D01*
Y369276D01*
X358806D01*
Y371009D01*
X360420Y371028D01*
X360617Y370831D01*
Y366304D01*
X360420Y366107D01*
X355381D01*
X355184Y366304D01*
Y370831D01*
G37*
G36*
G01Y379296D02*
X355381Y379493D01*
X360420D01*
X360617Y379296D01*
Y374768D01*
X360420Y374572D01*
X358806Y374552D01*
Y376324D01*
X357034D01*
Y374591D01*
X355381Y374572D01*
X355184Y374768D01*
Y379296D01*
G37*
G36*
G01X367702Y67569D02*
Y64420D01*
X367505Y64222D01*
X364355D01*
X364158Y64420D01*
Y65372D01*
X365615D01*
Y66672D01*
X364158D01*
Y67569D01*
X364355Y67765D01*
X367505D01*
X367702Y67569D01*
G37*
G36*
G01X366843Y188434D02*
X367040Y188236D01*
Y183198D01*
X366843Y183001D01*
X362315D01*
X362119Y183198D01*
X362099Y184812D01*
X363871D01*
Y186584D01*
X362138D01*
X362119Y188236D01*
X362315Y188434D01*
X366843D01*
G37*
G36*
G01X366743Y266634D02*
X366940Y266436D01*
Y261398D01*
X366743Y261201D01*
X362215D01*
X362019Y261398D01*
X361999Y263012D01*
X363771D01*
Y264784D01*
X362038D01*
X362019Y266436D01*
X362215Y266634D01*
X366743D01*
G37*
G36*
G01X366643Y343734D02*
X366840Y343536D01*
Y338498D01*
X366643Y338301D01*
X362115D01*
X361919Y338498D01*
X361899Y340112D01*
X363671D01*
Y341884D01*
X361938D01*
X361919Y343536D01*
X362115Y343734D01*
X366643D01*
G37*
G36*
G01X373231Y31716D02*
X373428Y31519D01*
Y29866D01*
X371676D01*
Y28094D01*
X373409D01*
X373428Y26480D01*
X373231Y26283D01*
X368704D01*
X368507Y26480D01*
Y31519D01*
X368704Y31716D01*
X373231D01*
G37*
G36*
G01X368684Y34083D02*
X368487Y34280D01*
Y39320D01*
X368684Y39517D01*
X373212D01*
X373409Y39320D01*
X373428Y37705D01*
X371657D01*
Y35934D01*
X373389D01*
X373409Y34280D01*
X373212Y34083D01*
X368684D01*
G37*
G36*
G01X374684Y99590D02*
X374881Y99787D01*
X379920D01*
X380117Y99590D01*
Y95062D01*
X379920Y94866D01*
X378306Y94846D01*
Y96618D01*
X376534D01*
Y94885D01*
X374881Y94866D01*
X374684Y95062D01*
Y99590D01*
G37*
G36*
G01Y91126D02*
X374881Y91322D01*
X376534D01*
Y89570D01*
X378306D01*
Y91304D01*
X379920Y91322D01*
X380117Y91126D01*
Y86598D01*
X379920Y86402D01*
X374881D01*
X374684Y86598D01*
Y91126D01*
G37*
G36*
G01X381696Y31716D02*
X381893Y31519D01*
Y26480D01*
X381696Y26283D01*
X377168D01*
X376972Y26480D01*
X376952Y28094D01*
X378724D01*
Y29866D01*
X376991D01*
X376972Y31519D01*
X377168Y31716D01*
X381696D01*
G37*
G36*
G01X381715Y39517D02*
X381912Y39320D01*
Y34280D01*
X381715Y34083D01*
X377188D01*
X376991Y34280D01*
X376971Y35895D01*
X378743D01*
Y37666D01*
X377011D01*
X376991Y39320D01*
X377188Y39517D01*
X381715D01*
G37*
G36*
G01X382683Y99609D02*
X382880Y99806D01*
X387920D01*
X388117Y99609D01*
Y95083D01*
X387920Y94885D01*
X386305Y94865D01*
Y96637D01*
X384534D01*
Y94905D01*
X382880Y94885D01*
X382683Y95083D01*
Y99609D01*
G37*
G36*
G01X388117Y86578D02*
X387920Y86381D01*
X382880D01*
X382683Y86578D01*
Y91106D01*
X382880Y91304D01*
X384495Y91322D01*
Y89552D01*
X386266D01*
Y91283D01*
X387920Y91304D01*
X388117Y91106D01*
Y86578D01*
G37*
G36*
G01X41380Y25925D02*
Y30255D01*
X43743D01*
Y25925D01*
X41380D01*
G37*
G36*
G01X44530D02*
Y30255D01*
X46893D01*
Y25925D01*
X44530D01*
G37*
G36*
G01X47680D02*
Y30255D01*
X48861D01*
Y25925D01*
X47680D01*
G37*
G36*
G01X57522D02*
Y30255D01*
X58703D01*
Y25925D01*
X57522D01*
G37*
G36*
G01X55554D02*
Y30255D01*
X56735D01*
Y25925D01*
X55554D01*
G37*
G36*
G01X53585D02*
Y30255D01*
X54766D01*
Y25925D01*
X53585D01*
G37*
G36*
G01X51617D02*
Y30255D01*
X52798D01*
Y25925D01*
X51617D01*
G37*
G36*
G01X49649D02*
Y30255D01*
X50830D01*
Y25925D01*
X49649D01*
G37*
G36*
G01X59491D02*
Y30255D01*
X60672D01*
Y25925D01*
X59491D01*
G37*
G36*
G01X61460D02*
Y30255D01*
X62641D01*
Y25925D01*
X61460D01*
G37*
G36*
G01X63428D02*
Y30255D01*
X65791D01*
Y25925D01*
X63428D01*
G37*
G36*
G01X66577D02*
Y30255D01*
X68940D01*
Y25925D01*
X66577D01*
G37*
G36*
G01X317531Y67572D02*
X314913D01*
Y68454D01*
X317531D01*
Y67572D01*
G37*
G36*
G01X319054Y64313D02*
X318172D01*
Y66931D01*
X319054D01*
Y64313D01*
G37*
G36*
G01X320629D02*
X319747D01*
Y66931D01*
X320629D01*
Y64313D01*
G37*
G36*
G01X322204D02*
X321322D01*
Y66931D01*
X322204D01*
Y64313D01*
G37*
G36*
G01X317531Y69147D02*
X314913D01*
Y70029D01*
X317531D01*
Y69147D01*
G37*
G36*
G01Y70722D02*
X314913D01*
Y71604D01*
X317531D01*
Y70722D01*
G37*
G36*
G01Y72297D02*
X314913D01*
Y73179D01*
X317531D01*
Y72297D01*
G37*
G36*
G01Y77021D02*
X314913D01*
Y77903D01*
X317531D01*
Y77021D01*
G37*
G36*
G01Y73872D02*
X314913D01*
Y74754D01*
X317531D01*
Y73872D01*
G37*
G36*
G01Y75446D02*
X314913D01*
Y76328D01*
X317531D01*
Y75446D01*
G37*
G36*
G01X330818Y69982D02*
X320582D01*
Y80218D01*
X330818D01*
Y69982D01*
G37*
G36*
G01X317531Y81746D02*
X314913D01*
Y82628D01*
X317531D01*
Y81746D01*
G37*
G36*
G01Y80171D02*
X314913D01*
Y81053D01*
X317531D01*
Y80171D01*
G37*
G36*
G01Y78596D02*
X314913D01*
Y79478D01*
X317531D01*
Y78596D01*
G37*
G36*
G01X319054Y83269D02*
X318172D01*
Y85887D01*
X319054D01*
Y83269D01*
G37*
G36*
G01X320629D02*
X319747D01*
Y85887D01*
X320629D01*
Y83269D01*
G37*
G36*
G01X322204D02*
X321322D01*
Y85887D01*
X322204D01*
Y83269D01*
G37*
G36*
G01X323779Y64313D02*
X322897D01*
Y66931D01*
X323779D01*
Y64313D01*
G37*
G36*
G01X325354D02*
X324472D01*
Y66931D01*
X325354D01*
Y64313D01*
G37*
G36*
G01X326928D02*
X326046D01*
Y66931D01*
X326928D01*
Y64313D01*
G37*
G36*
G01X328503D02*
X327621D01*
Y66931D01*
X328503D01*
Y64313D01*
G37*
G36*
G01X330078D02*
X329196D01*
Y66931D01*
X330078D01*
Y64313D01*
G37*
G36*
G01X331653D02*
X330771D01*
Y66931D01*
X331653D01*
Y64313D01*
G37*
G36*
G01X323779Y83269D02*
X322897D01*
Y85887D01*
X323779D01*
Y83269D01*
G37*
G36*
G01X325354D02*
X324472D01*
Y85887D01*
X325354D01*
Y83269D01*
G37*
G36*
G01X326928D02*
X326046D01*
Y85887D01*
X326928D01*
Y83269D01*
G37*
G36*
G01X328503D02*
X327621D01*
Y85887D01*
X328503D01*
Y83269D01*
G37*
G36*
G01X330078D02*
X329196D01*
Y85887D01*
X330078D01*
Y83269D01*
G37*
G36*
G01X331653D02*
X330771D01*
Y85887D01*
X331653D01*
Y83269D01*
G37*
G36*
G01X333228Y64313D02*
X332346D01*
Y66931D01*
X333228D01*
Y64313D01*
G37*
G36*
G01X336487Y67572D02*
X333869D01*
Y68454D01*
X336487D01*
Y67572D01*
G37*
G36*
G01Y69147D02*
X333869D01*
Y70029D01*
X336487D01*
Y69147D01*
G37*
G36*
G01Y77021D02*
X333869D01*
Y77903D01*
X336487D01*
Y77021D01*
G37*
G36*
G01Y75446D02*
X333869D01*
Y76328D01*
X336487D01*
Y75446D01*
G37*
G36*
G01Y73872D02*
X333869D01*
Y74754D01*
X336487D01*
Y73872D01*
G37*
G36*
G01Y70722D02*
X333869D01*
Y71604D01*
X336487D01*
Y70722D01*
G37*
G36*
G01Y72297D02*
X333869D01*
Y73179D01*
X336487D01*
Y72297D01*
G37*
G36*
G01X333228Y83269D02*
X332346D01*
Y85887D01*
X333228D01*
Y83269D01*
G37*
G36*
G01X336487Y81746D02*
X333869D01*
Y82628D01*
X336487D01*
Y81746D01*
G37*
G36*
G01Y80171D02*
X333869D01*
Y81053D01*
X336487D01*
Y80171D01*
G37*
G36*
G01Y78596D02*
X333869D01*
Y79478D01*
X336487D01*
Y78596D01*
G37*
G54D10*
X7929Y78545D03*
Y109254D03*
X7629Y117845D03*
Y148554D03*
G54D20*
X22079Y233900D03*
X30721D03*
X64792Y34902D03*
X73434D03*
X358279Y59594D03*
X366921D03*
G54D11*
X5600Y165100D03*
X33100D03*
G54D30*
X67997Y163943D03*
Y166502D03*
Y169061D03*
Y161384D03*
Y171620D03*
Y174179D03*
Y176739D03*
Y179298D03*
Y181857D03*
Y184416D03*
X90603Y169061D03*
Y166502D03*
Y163943D03*
Y161384D03*
Y176739D03*
Y174179D03*
Y171620D03*
Y184416D03*
Y181857D03*
Y179298D03*
G54D21*
X20385Y267117D03*
Y271054D03*
Y274991D03*
Y278928D03*
X20386Y282864D03*
Y286801D03*
G54D12*
X4282Y210039D03*
Y239961D03*
X13219Y210039D03*
Y239961D03*
X375781Y53533D03*
Y83455D03*
X384718Y53533D03*
Y83455D03*
G54D22*
X18994Y326839D03*
Y331761D03*
G54D31*
X65345Y375371D03*
X96054D03*
X133945Y374671D03*
X164654D03*
X268746Y12929D03*
X299455D03*
G54D13*
X8259Y257274D03*
Y296644D03*
G54D40*
X160155Y156724D03*
X154030Y162849D03*
X158762Y167581D03*
X164888Y161456D03*
G54D23*
X23128Y338200D03*
Y343200D03*
Y348200D03*
Y353200D03*
X43364Y338200D03*
Y348200D03*
Y343200D03*
Y353200D03*
X231234Y264348D03*
Y269348D03*
Y274348D03*
Y279348D03*
X251470Y269348D03*
Y264348D03*
Y274348D03*
Y279348D03*
G54D41*
X167531Y154882D03*
X179696Y142717D03*
G54D50*
X250468Y10316D03*
G54D14*
X5806Y319556D03*
Y339045D03*
G54D32*
X79976Y14160D03*
X100448D03*
G54D24*
X29460Y40578D03*
Y61700D03*
X39460Y40578D03*
X34460D03*
Y61700D03*
X39460D03*
X44460Y40578D03*
Y61700D03*
G54D51*
X248556Y3936D03*
Y7172D03*
X252100Y3936D03*
X255643D03*
Y7172D03*
G54D15*
X10844Y43500D03*
X16356D03*
X110304Y17239D03*
X115816D03*
X123115Y38139D03*
X128626D03*
X165226Y290572D03*
X165271Y296772D03*
X170738Y290572D03*
X170783Y296772D03*
X286544Y138412D03*
Y144000D03*
X280344Y323300D03*
X285856D03*
X280344Y329900D03*
X285856D03*
X292056Y138412D03*
Y144000D03*
X313844Y143988D03*
X319356D03*
X326144Y51800D03*
X331656D03*
X326144Y57000D03*
X331656D03*
X357352Y165101D03*
X357306Y171708D03*
X357252Y243301D03*
X357206Y249908D03*
X357152Y320401D03*
X357106Y327008D03*
X362864Y165101D03*
X362817Y171708D03*
X362764Y243301D03*
X362717Y249908D03*
X362664Y320401D03*
X362617Y327008D03*
X372444Y43900D03*
X377956D03*
G54D60*
X311576Y138000D03*
X321024D03*
G54D33*
X74794Y365430D03*
X78731D03*
X82668D03*
X86605D03*
X143394Y364730D03*
X147331D03*
X151268D03*
X155205D03*
X286069Y22870D03*
X282132D03*
X278195D03*
X290006D03*
G54D42*
X169297Y187588D03*
X167905Y188980D03*
X166513Y190372D03*
X165121Y191764D03*
X163729Y193156D03*
X162338Y194548D03*
X179041Y177844D03*
X177649Y179236D03*
X173473Y183412D03*
X172081Y184804D03*
X170689Y186196D03*
X176257Y180628D03*
X174865Y182020D03*
X187392Y169493D03*
X186001Y170884D03*
X184608Y172277D03*
X183217Y173668D03*
X181825Y175060D03*
X180433Y176452D03*
X195744Y161141D03*
X194352Y162533D03*
X192960Y163925D03*
X191568Y165317D03*
X190176Y166709D03*
X188785Y168100D03*
X204374Y236584D03*
X205765Y235192D03*
X215509Y225448D03*
X207157Y233800D03*
X208549Y232408D03*
X209941Y231016D03*
X211333Y229624D03*
X212725Y228232D03*
X214117Y226840D03*
X216901Y224056D03*
X218293Y222664D03*
X219685Y221272D03*
X221077Y219880D03*
X222469Y218488D03*
X223861Y217097D03*
X233605Y207353D03*
X225253Y215704D03*
X226645Y214313D03*
X228037Y212920D03*
X229428Y211529D03*
X230821Y210137D03*
X232212Y208745D03*
X234996Y205961D03*
X236389Y204569D03*
X237780Y203177D03*
G54D25*
X24385Y90160D03*
Y93900D03*
Y97640D03*
X24085Y129460D03*
Y133200D03*
Y136940D03*
X28885Y266860D03*
Y270600D03*
Y274340D03*
Y280060D03*
Y283800D03*
Y287540D03*
X25254Y325560D03*
Y329300D03*
Y333040D03*
X35015Y93900D03*
Y90160D03*
Y97640D03*
X34715Y133200D03*
Y129460D03*
Y136940D03*
X39515Y266860D03*
Y274340D03*
Y270600D03*
Y287540D03*
Y283800D03*
Y280060D03*
X35884Y333040D03*
Y329300D03*
Y325560D03*
G54D61*
X327425Y176019D03*
Y181019D03*
Y186019D03*
Y191019D03*
X327325Y254219D03*
Y259219D03*
Y264219D03*
Y269219D03*
X327225Y331319D03*
Y336319D03*
Y341319D03*
Y346319D03*
X348847Y176019D03*
Y186019D03*
Y181019D03*
Y191019D03*
X348747Y259219D03*
Y254219D03*
Y269219D03*
Y264219D03*
X348647Y331319D03*
Y341319D03*
Y336319D03*
Y346319D03*
G54D43*
X163729Y204569D03*
X165121Y205961D03*
X166513Y207353D03*
X162338Y203177D03*
X167905Y208745D03*
X169297Y210137D03*
X170689Y211529D03*
X172081Y212920D03*
X173473Y214313D03*
X174865Y215704D03*
X176257Y217097D03*
X177649Y218489D03*
X179041Y219880D03*
X180433Y221273D03*
X181825Y222664D03*
X183217Y224056D03*
X184608Y225448D03*
X186001Y226840D03*
X187392Y228232D03*
X188785Y229624D03*
X190176Y231016D03*
X191568Y232408D03*
X192960Y233800D03*
X194352Y235192D03*
X195744Y236584D03*
X204374Y161141D03*
X205765Y162533D03*
X214117Y170884D03*
X212725Y169493D03*
X211333Y168100D03*
X209941Y166709D03*
X208549Y165317D03*
X207157Y163925D03*
X215509Y172277D03*
X222469Y179237D03*
X221077Y177844D03*
X219685Y176453D03*
X218293Y175060D03*
X216901Y173668D03*
X223861Y180628D03*
X232212Y188980D03*
X230821Y187588D03*
X229428Y186196D03*
X228037Y184804D03*
X226645Y183412D03*
X225253Y182020D03*
X233605Y190372D03*
X237780Y194548D03*
X236389Y193156D03*
X234996Y191764D03*
G54D34*
X109320Y39911D03*
Y50367D03*
G54D52*
X250416Y13832D03*
G54D16*
X11464Y178879D03*
X23276D03*
X39023D03*
X44535Y151321D03*
G54D17*
X16020Y216142D03*
Y222048D03*
Y233859D03*
X372980Y59635D03*
Y77352D03*
Y71446D03*
G54D44*
X177134Y132238D03*
X183244Y138349D03*
G54D35*
X109320Y23421D03*
Y33657D03*
X113060D03*
X116800Y23421D03*
Y33657D03*
G54D26*
X49285Y35524D03*
Y46154D03*
X56765Y35524D03*
X53025D03*
Y46154D03*
X56765D03*
X76960Y348285D03*
Y358915D03*
X84440Y348285D03*
X80700D03*
Y358915D03*
X84440D03*
X149040Y346685D03*
X145300D03*
X141560D03*
Y357315D03*
X145300D03*
X149040D03*
G54D53*
X253932Y13784D03*
G54D62*
X338136Y183519D03*
X338036Y261719D03*
X337936Y338819D03*
G54D63*
G01X-135Y369649D02*
Y19885D01*
G03X19865Y-115I20000J0D01*
G01X369629D01*
G03X389629Y19885I0J20000D01*
G01Y369649D01*
G03X369629Y389649I-20000J0D01*
G01X19865D01*
G03X-135Y369649I0J-20000D01*
G54D18*
X9200Y349609D03*
Y344097D03*
X18900Y205044D03*
Y210556D03*
X15900Y349609D03*
Y344097D03*
X36100Y233944D03*
Y239456D03*
X50000Y176949D03*
Y182461D03*
X44600Y376056D03*
Y370544D03*
X51034Y153344D03*
Y158856D03*
X55900Y176949D03*
Y182461D03*
X61400Y176949D03*
Y182461D03*
X103315Y24309D03*
Y29821D03*
X103000Y184956D03*
Y179444D03*
X97400Y184956D03*
Y179444D03*
X108250Y4959D03*
Y10471D03*
X114795Y4959D03*
Y10471D03*
X127060Y50195D03*
Y44683D03*
X127100Y376844D03*
Y382356D03*
X135160Y32683D03*
Y38195D03*
X236400Y3744D03*
Y9256D03*
X243000Y3744D03*
Y9256D03*
X279792Y358706D03*
X286399Y358752D03*
X279792Y364217D03*
X286399Y364264D03*
X303900Y62044D03*
Y67556D03*
Y72944D03*
Y78456D03*
X302900Y143744D03*
Y149256D03*
X297400Y143844D03*
Y149356D03*
X308500Y143844D03*
Y149356D03*
X321900Y165644D03*
Y171156D03*
X321800Y249356D03*
Y243844D03*
X321700Y320944D03*
Y326456D03*
X328500Y165644D03*
Y171156D03*
X328400Y249356D03*
Y243844D03*
X328300Y320944D03*
Y326456D03*
X343000Y370044D03*
Y375556D03*
X352900Y59550D03*
Y54038D03*
X370100Y82938D03*
Y88450D03*
G54D45*
X174988Y326888D03*
X204013D03*
G54D36*
X135811Y26238D03*
X141709Y26240D03*
G54D54*
X253884Y10368D03*
G54D27*
X42453Y330875D03*
X49147D03*
Y327725D03*
X42453D03*
G54D37*
X136500Y100700D03*
X258500D03*
G54D55*
X252100Y12100D03*
G54D19*
X17870Y87994D03*
Y91931D03*
Y95868D03*
Y99805D03*
X17570Y127294D03*
Y131231D03*
Y135168D03*
Y139105D03*
G54D46*
X178988Y353500D03*
X200012D03*
X215142D03*
X236166D03*
X333503Y147313D03*
X333403Y225513D03*
X333303Y302613D03*
X354527Y147313D03*
X354427Y225513D03*
X354327Y302613D03*
G54D28*
X51550Y53892D03*
Y60586D03*
X54700D03*
Y53892D03*
G54D29*
X64247Y42645D03*
X75625D03*
G54D56*
X265481Y328825D03*
X260481D03*
Y350247D03*
X265481D03*
X275481Y328825D03*
X270481D03*
Y350247D03*
X275481D03*
G54D38*
X142627Y183037D03*
X149725Y175938D03*
G54D47*
X191442Y94614D03*
Y99614D03*
Y104614D03*
Y109614D03*
X219238Y94614D03*
Y104614D03*
Y99614D03*
Y109614D03*
X317502Y106800D03*
Y111800D03*
Y116800D03*
Y121800D03*
X345298Y111800D03*
Y106800D03*
Y121800D03*
Y116800D03*
G54D48*
X233661Y237741D03*
X238279Y233025D03*
X242448Y237197D03*
X237829Y241913D03*
X247499Y223776D03*
X242968Y228380D03*
X247136Y232552D03*
X251668Y227948D03*
G54D57*
X267981Y339536D03*
G54D39*
X149470Y186378D03*
X145572Y190275D03*
X157177Y178670D03*
X153280Y182568D03*
X166086Y170044D03*
X170038Y166092D03*
X162189Y173941D03*
X173935Y162195D03*
X186765Y141870D03*
X186352Y157466D03*
X190663Y137972D03*
X190250Y153568D03*
X215525Y154653D03*
X219422Y150756D03*
X223274Y162382D03*
X227172Y158484D03*
G54D49*
X238398Y48200D03*
Y67200D03*
X255602Y48200D03*
Y67200D03*
X263198Y47800D03*
X262998Y67000D03*
X280402Y47800D03*
X280202Y67000D03*
G54D58*
X291154Y68169D03*
Y76831D03*
X297847Y68169D03*
Y76831D03*
G54D59*
X304187Y334903D03*
Y355927D03*
M02*
