G04 ================== begin FILE IDENTIFICATION RECORD ==================*
G04 Layout Name:  stm32g431-devboard.brd*
G04 Film Name:    SOLDMASK_TOP*
G04 File Format:  Gerber RS274X*
G04 File Origin:  Cadence Allegro 17.4-S039*
G04 Origin Date:  Mon Mar  2 09:43:23 2026*
G04 *
G04 Layer:  BOARD GEOMETRY/DESIGN_OUTLINE*
G04 Layer:  BOARD GEOMETRY/SOLDERMASK_TOP*
G04 Layer:  PIN/SOLDERMASK_TOP*
G04 Layer:  PACKAGE GEOMETRY/SOLDERMASK_TOP*
G04 *
G04 Offset:    (0.000 0.000)*
G04 Mirror:    No*
G04 Mode:      Positive*
G04 Rotation:  0*
G04 FullContactRelief:  No*
G04 UndefLineWidth:     10.000*
G04 ================== end FILE IDENTIFICATION RECORD ====================*
%FSLAX25Y25*MOIN*%
%IR0*IPPOS*OFA0.00000B0.00000*MIA0B0*SFA1.00000B1.00000*%
%ADD37R,.039429X.019748*%
%ADD10R,.090551X.074799*%
%ADD43R,.074799X.090551*%
%ADD39R,.019748X.039429*%
%ADD64O,.092579X.028799*%
%ADD16C,.134*%
%ADD75C,.102421*%
%ADD44R,.078799X.097539*%
%ADD20R,.063059X.12211*%
%ADD80R,.05124X.141791*%
%AMMACRO69*
4,1,19,.01498,-.01498,
.009465,-.014153,
.004178,-.012381,
-.000721,-.009717,
-.005083,-.006244,
-.008776,-.002065,
-.011687,.002691,
-.013728,.00788,
-.014837,.013345,
-.01498,.014981,
-.00511,.014981,
-.004433,.01118,
-.003106,.007555,
-.00117,.004215,
.001316,.001262,
.004278,-.001214,
.007624,-.003139,
.011254,-.004453,
.01498,-.00511,
.01498,-.01498,
0.0*
%
%ADD69MACRO69*%
%AMMACRO71*
4,1,19,-.01498,-.01498,
-.014153,-.009465,
-.012381,-.004178,
-.009717,.000721,
-.006244,.005083,
-.002065,.008776,
.002691,.011687,
.00788,.013728,
.013345,.014837,
.014981,.01498,
.014981,.00511,
.01118,.004433,
.007555,.003106,
.004215,.00117,
.001262,-.001316,
-.001214,-.004278,
-.003139,-.007624,
-.004453,-.011254,
-.00511,-.01498,
-.01498,-.01498,
0.0*
%
%ADD71MACRO71*%
%ADD62R,.141791X.05124*%
%AMMACRO54*
21,1,.059118,.05124,0.0,0.0,135.*%
%ADD54MACRO54*%
%ADD15R,.11824X.04737*%
%AMMACRO55*
21,1,.052421,.077228,0.0,0.0,135.*%
%ADD55MACRO55*%
%AMMACRO53*
21,1,.0355,.039429,0.0,0.0,135.*%
%ADD53MACRO53*%
%AMMACRO52*
21,1,.035748,.03802,0.0,0.0,135.*%
%ADD52MACRO52*%
%ADD65C,.12998*%
%ADD46R,.134709X.063059*%
%ADD87R,.133858X.133858*%
%AMMACRO57*
21,1,.051177,.015811,0.0,0.0,135.*
1,1,.015811,-.018094,.018094*
1,1,.015811,.018094,-.018094*%
%ADD57MACRO57*%
%AMMACRO56*
21,1,.015811,.051177,0.0,0.0,135.*
1,1,.015811,.018094,.018094*
1,1,.015811,-.018094,-.018094*%
%ADD56MACRO56*%
%AMMACRO51*
21,1,.045339,.070929,0.0,0.0,135.*%
%ADD51MACRO51*%
%ADD14R,.114169X.066929*%
%ADD89R,.098882X.125969*%
%ADD77R,.125969X.098882*%
%ADD63C,.064*%
%ADD48R,.03802X.0355*%
%ADD11C,.043311*%
%ADD40R,.0355X.03802*%
%ADD13R,.04061X.047311*%
%ADD88O,.080421X.027701*%
%ADD86R,.01276X.030118*%
%ADD85R,.030118X.01276*%
%ADD79C,.09061*%
%ADD76O,.027701X.080421*%
%AMMACRO73*
4,1,19,.01498,.01498,
.014153,.009465,
.012381,.004178,
.009717,-.000721,
.006244,-.005083,
.002065,-.008776,
-.002691,-.011687,
-.00788,-.013728,
-.013345,-.014837,
-.014981,-.01498,
-.014981,-.00511,
-.01118,-.004433,
-.007555,-.003106,
-.004215,-.00117,
-.001262,.001316,
.001214,.004278,
.003139,.007624,
.004453,.011254,
.00511,.01498,
.01498,.01498,
0.0*
%
%ADD73MACRO73*%
%AMMACRO72*
4,1,19,-.01498,.01498,
-.009465,.014153,
-.004178,.012381,
.000721,.009717,
.005083,.006244,
.008776,.002065,
.011687,-.002691,
.013728,-.00788,
.014837,-.013345,
.01498,-.014981,
.00511,-.014981,
.004433,-.01118,
.003106,-.007555,
.00117,-.004215,
-.001316,-.001262,
-.004278,.001214,
-.007624,.003139,
-.011254,.004453,
-.01498,.00511,
-.01498,.01498,
0.0*
%
%ADD72MACRO72*%
%ADD74C,.01772*%
%ADD60C,.070902*%
%ADD41R,.05085X.072031*%
%ADD29O,.084512X.02715*%
%AMMACRO67*
21,1,.0355,.0355,0.0,0.0,45.*%
%ADD67MACRO67*%
%ADD49R,.0355X.0355*%
%ADD82C,.08274*%
%ADD78R,.05124X.059118*%
%ADD84R,.01676X.018512*%
%ADD61R,.110299X.133921*%
%ADD83R,.018512X.01676*%
%ADD58R,.070902X.070902*%
%ADD25R,.05315X.015748*%
%AMMACRO66*
21,1,.035748,.03802,0.0,0.0,45.*%
%ADD66MACRO66*%
%ADD47R,.027618X.047311*%
%ADD45R,.015748X.05315*%
%ADD38R,.03802X.035748*%
%ADD23R,.039429X.0355*%
%ADD12R,.05715X.059512*%
%ADD81R,.063059X.0575*%
%ADD68R,.052421X.077228*%
%ADD24R,.035748X.03802*%
%ADD19R,.0355X.039429*%
%ADD18R,.059512X.05715*%
%AMMACRO59*
21,1,.037272,.021909,0.0,0.0,45.*%
%ADD59MACRO59*%
%ADD42O,.072579X.018331*%
%ADD35R,.025591X.047252*%
%ADD33O,.047252X.082681*%
%ADD26R,.037272X.021909*%
%ADD30O,.032799X.081421*%
%ADD36R,.027642X.047319*%
%ADD27R,.055118X.015748*%
%ADD50C,.098429*%
%ADD34R,.015748X.047252*%
%ADD31R,.047319X.027642*%
%ADD70R,.027559X.024409*%
%ADD22R,.08274X.039429*%
%ADD32O,.051181X.074799*%
%ADD28R,.074929X.031618*%
%ADD21R,.058209X.048591*%
%ADD17R,.048591X.058209*%
%ADD90C,.01*%
G75*
%LPD*%
G75*
G54D10*
X7929Y78545D03*
Y109254D03*
X7629Y117845D03*
Y148554D03*
G54D11*
X5600Y165100D03*
X33100D03*
G54D20*
X11464Y178879D03*
X23276D03*
X39023D03*
X44535Y151321D03*
G54D21*
X11600Y196463D03*
Y204337D03*
X29700Y369363D03*
Y377237D03*
X87364Y25648D03*
Y33256D03*
X113600Y375663D03*
Y383537D03*
X265782Y357810D03*
Y365684D03*
X286212Y346217D03*
Y354091D03*
X299300Y129263D03*
Y137137D03*
X357900Y368863D03*
Y376737D03*
X377400Y89157D03*
Y97031D03*
G54D30*
X29460Y40578D03*
Y61700D03*
X39460Y40578D03*
X34460D03*
Y61700D03*
X39460D03*
X44460Y40578D03*
Y61700D03*
G54D12*
X3600Y196463D03*
Y204337D03*
X37500Y369363D03*
Y377237D03*
X79250Y25515D03*
Y33389D03*
X96070D03*
Y25515D03*
X120800Y375663D03*
Y383537D03*
X350100Y368863D03*
Y376737D03*
X385400Y89157D03*
Y97031D03*
G54D22*
X16020Y216142D03*
Y222048D03*
Y233859D03*
X372980Y59635D03*
Y77352D03*
Y71446D03*
G54D31*
X24385Y90160D03*
Y93900D03*
Y97640D03*
X24085Y129460D03*
Y133200D03*
Y136940D03*
X28885Y266860D03*
Y270600D03*
Y274340D03*
Y280060D03*
Y283800D03*
Y287540D03*
X25254Y325560D03*
Y329300D03*
Y333040D03*
X35015Y93900D03*
Y90160D03*
Y97640D03*
X34715Y133200D03*
Y129460D03*
Y136940D03*
X39515Y266860D03*
Y274340D03*
Y270600D03*
Y287540D03*
Y283800D03*
Y280060D03*
X35884Y333040D03*
Y329300D03*
Y325560D03*
G54D13*
X4282Y210039D03*
Y239961D03*
X13219Y210039D03*
Y239961D03*
X375781Y53533D03*
Y83455D03*
X384718Y53533D03*
Y83455D03*
G54D40*
X51245Y147500D03*
X56755D03*
X286445Y117900D03*
Y123700D03*
X286545Y132200D03*
X291955Y117900D03*
Y123700D03*
X292055Y132200D03*
G54D32*
X38133Y9388D03*
X72188D03*
G54D50*
X136500Y100700D03*
X258500D03*
G54D23*
X9200Y349609D03*
Y344097D03*
X18900Y205044D03*
Y210556D03*
X15900Y349609D03*
Y344097D03*
X36100Y233944D03*
Y239456D03*
X50000Y176949D03*
Y182461D03*
X44600Y376056D03*
Y370544D03*
X51034Y153344D03*
Y158856D03*
X55900Y176949D03*
Y182461D03*
X61400Y176949D03*
Y182461D03*
X103315Y24309D03*
Y29821D03*
X103000Y184956D03*
Y179444D03*
X97400Y184956D03*
Y179444D03*
X108250Y4959D03*
Y10471D03*
X114795Y4959D03*
Y10471D03*
X127060Y50195D03*
Y44683D03*
X127100Y376844D03*
Y382356D03*
X135160Y32683D03*
Y38195D03*
X236400Y3744D03*
Y9256D03*
X243000Y3744D03*
Y9256D03*
X279792Y358706D03*
X286399Y358752D03*
X279792Y364217D03*
X286399Y364264D03*
X303900Y62044D03*
Y67556D03*
Y72944D03*
Y78456D03*
X302900Y143744D03*
Y149256D03*
X297400Y143844D03*
Y149356D03*
X308500Y143844D03*
Y149356D03*
X321900Y165644D03*
Y171156D03*
X321800Y249356D03*
Y243844D03*
X321700Y320944D03*
Y326456D03*
X328500Y165644D03*
Y171156D03*
X328400Y249356D03*
Y243844D03*
X328300Y320944D03*
Y326456D03*
X343000Y370044D03*
Y375556D03*
X352900Y59550D03*
Y54038D03*
X370100Y82938D03*
Y88450D03*
G54D41*
X64247Y42645D03*
X75625D03*
G54D14*
X8259Y257274D03*
Y296644D03*
G54D33*
X38133Y25924D03*
X72188D03*
G54D42*
X67997Y163943D03*
Y166502D03*
Y169061D03*
Y161384D03*
Y171620D03*
Y174179D03*
Y176739D03*
Y179298D03*
Y181857D03*
Y184416D03*
X90603Y169061D03*
Y166502D03*
Y163943D03*
Y161384D03*
Y176739D03*
Y174179D03*
Y171620D03*
Y184416D03*
Y181857D03*
Y179298D03*
G54D24*
X9634Y356166D03*
X23234Y227500D03*
X15566Y356166D03*
X29166Y227500D03*
X50534Y354400D03*
X56966Y165100D03*
X51034D03*
X56966Y171000D03*
X51034D03*
X56466Y354400D03*
X122694Y24339D03*
Y30339D03*
X128626Y24339D03*
Y30339D03*
X305634Y95000D03*
Y89100D03*
X311566Y95000D03*
Y89100D03*
X341534Y72800D03*
X341313Y196681D03*
X335381D03*
X341313Y201881D03*
X335381D03*
X341313Y207081D03*
X335381D03*
X341002Y274681D03*
X335070D03*
X341002Y285081D03*
X335070D03*
X341002Y279881D03*
X335070D03*
X341113Y351900D03*
X335181D03*
X341113Y357181D03*
X335181D03*
X341113Y362381D03*
X335181D03*
X347466Y72800D03*
X359834Y65994D03*
X365766D03*
G54D60*
X172579Y305706D03*
X182579D03*
X192579D03*
X202579D03*
X212579D03*
X222579D03*
X232579D03*
G54D51*
X142627Y183037D03*
X149725Y175938D03*
G54D15*
X5806Y319556D03*
Y339045D03*
G54D70*
X248556Y3936D03*
Y7172D03*
X252100Y3936D03*
X255643D03*
Y7172D03*
G54D34*
X48271Y28089D03*
X58113D03*
X56145D03*
X54176D03*
X52208D03*
X50240D03*
X60082D03*
X62050D03*
G54D25*
X17870Y87994D03*
Y91931D03*
Y95868D03*
Y99805D03*
X17570Y127294D03*
Y131231D03*
Y135168D03*
Y139105D03*
G54D61*
X174988Y326888D03*
X204013D03*
G54D52*
X141202Y194645D03*
X140631Y202464D03*
X137008Y198840D03*
X144289Y206122D03*
X148484Y201927D03*
X144826Y198269D03*
X147900Y209792D03*
X152094Y205597D03*
X158078Y224194D03*
X168925Y140335D03*
X169536Y173948D03*
X165989Y223705D03*
X162273Y220000D03*
X165473Y231597D03*
X169668Y227402D03*
X161794Y227900D03*
X173119Y136141D03*
X173730Y169754D03*
X176512Y233928D03*
X175981Y241830D03*
X172318Y238122D03*
X186554Y149576D03*
X182360Y153770D03*
X180176Y237635D03*
X183832Y241342D03*
X183352Y249251D03*
X187547Y245057D03*
X179637Y245536D03*
X186950Y252912D03*
X194901Y252429D03*
X191145Y248717D03*
X190706Y256623D03*
X211532Y151031D03*
X215726Y146837D03*
X219287Y158691D03*
X223481Y154497D03*
X231565Y162654D03*
X227370Y166849D03*
X231118Y170596D03*
X229286Y259760D03*
X233480Y255566D03*
X238990Y170079D03*
X235313Y166402D03*
X234795Y174273D03*
X241741Y247369D03*
X237547Y251563D03*
X259973Y189410D03*
X255778Y193604D03*
X259897Y197721D03*
X264091Y193527D03*
X268196Y197625D03*
X264001Y201820D03*
G54D16*
X13150Y13650D03*
X14750Y373750D03*
X372850Y372350D03*
X374750Y14050D03*
G54D43*
X65345Y375371D03*
X96054D03*
X133945Y374671D03*
X164654D03*
X268746Y12929D03*
X299455D03*
G54D17*
X9663Y28600D03*
X17537D03*
X344817Y165288D03*
X344717Y243488D03*
X344617Y320588D03*
X352691Y165288D03*
X356410Y185718D03*
X352591Y243488D03*
X356310Y263918D03*
X352491Y320588D03*
X356210Y341018D03*
X364284Y185718D03*
X364184Y263918D03*
X364084Y341018D03*
X371263Y29000D03*
X379137D03*
G54D26*
X22079Y233900D03*
X30721D03*
X64792Y34902D03*
X73434D03*
X358279Y59594D03*
X366921D03*
G54D35*
X45712Y28089D03*
X42562D03*
X67758D03*
X64610D03*
G54D53*
X149470Y186378D03*
X145572Y190275D03*
X157177Y178670D03*
X153280Y182568D03*
X166086Y170044D03*
X170038Y166092D03*
X162189Y173941D03*
X173935Y162195D03*
X186765Y141870D03*
X186352Y157466D03*
X190663Y137972D03*
X190250Y153568D03*
X215525Y154653D03*
X219422Y150756D03*
X223274Y162382D03*
X227172Y158484D03*
G54D62*
X178988Y353500D03*
X200012D03*
X215142D03*
X236166D03*
X333503Y147313D03*
X333403Y225513D03*
X333303Y302613D03*
X354527Y147313D03*
X354427Y225513D03*
X354327Y302613D03*
G54D71*
X250416Y13832D03*
G54D80*
X304187Y334903D03*
Y355927D03*
G54D44*
X79976Y14160D03*
X100448D03*
G54D90*
G01X-135Y369649D02*
Y19885D01*
G03X19865Y-115I20000J0D01*
G01X369629D01*
G03X389629Y19885I0J20000D01*
G01Y369649D01*
G03X369629Y389649I-20000J0D01*
G01X19865D01*
G03X-135Y369649I0J-20000D01*
G54D27*
X20385Y267117D03*
Y271054D03*
Y274991D03*
Y278928D03*
X20386Y282864D03*
Y286801D03*
G54D36*
X49285Y35524D03*
Y46154D03*
X56765Y35524D03*
X53025D03*
Y46154D03*
X56765D03*
X76960Y348285D03*
Y358915D03*
X84440Y348285D03*
X80700D03*
Y358915D03*
X84440D03*
X149040Y346685D03*
X145300D03*
X141560D03*
Y357315D03*
X145300D03*
X149040D03*
G54D18*
X9663Y36400D03*
X17537D03*
X371263Y36800D03*
X379137D03*
G54D81*
X311576Y138000D03*
X321024D03*
G54D45*
X74794Y365430D03*
X78731D03*
X82668D03*
X86605D03*
X143394Y364730D03*
X147331D03*
X151268D03*
X155205D03*
X286069Y22870D03*
X282132D03*
X278195D03*
X290006D03*
G54D72*
X253932Y13784D03*
G54D63*
X184069Y8401D03*
Y28401D03*
X194069Y18401D03*
X212900Y8401D03*
Y28401D03*
X222900Y18401D03*
G54D54*
X160155Y156724D03*
X154030Y162849D03*
X158762Y167581D03*
X164888Y161456D03*
G54D28*
X18994Y326839D03*
Y331761D03*
G54D19*
X10844Y43500D03*
X16356D03*
X110304Y17239D03*
X115816D03*
X123115Y38139D03*
X128626D03*
X165226Y290572D03*
X165271Y296772D03*
X170738Y290572D03*
X170783Y296772D03*
X286544Y138412D03*
Y144000D03*
X280344Y323300D03*
X285856D03*
X280344Y329900D03*
X285856D03*
X292056Y138412D03*
Y144000D03*
X313844Y143988D03*
X319356D03*
X326144Y51800D03*
X331656D03*
X326144Y57000D03*
X331656D03*
X357352Y165101D03*
X357306Y171708D03*
X357252Y243301D03*
X357206Y249908D03*
X357152Y320401D03*
X357106Y327008D03*
X362864Y165101D03*
X362817Y171708D03*
X362764Y243301D03*
X362717Y249908D03*
X362664Y320401D03*
X362617Y327008D03*
X372444Y43900D03*
X377956D03*
G54D82*
X318501Y16601D03*
G54D73*
X253884Y10368D03*
G54D46*
X109320Y39911D03*
Y50367D03*
G54D55*
X167531Y154882D03*
X179696Y142717D03*
G54D64*
X191442Y94614D03*
Y99614D03*
Y104614D03*
Y109614D03*
X219238Y94614D03*
Y104614D03*
Y99614D03*
Y109614D03*
X317502Y106800D03*
Y111800D03*
Y116800D03*
Y121800D03*
X345298Y111800D03*
Y106800D03*
Y121800D03*
Y116800D03*
G54D37*
X42453Y330875D03*
X49147D03*
Y327725D03*
X42453D03*
G54D38*
X50600Y342734D03*
Y348666D03*
X141660Y32473D03*
Y38405D03*
X136400Y346734D03*
Y352666D03*
X154100Y346734D03*
Y352666D03*
X166100Y10134D03*
Y16066D03*
Y21769D03*
Y27701D03*
X200375Y128331D03*
X205675Y128325D03*
X200375Y134263D03*
X205675Y134257D03*
X210975Y128318D03*
Y134251D03*
X244419Y342713D03*
Y336781D03*
X249619Y342713D03*
Y336781D03*
X254819Y342713D03*
Y336781D03*
X309900Y67234D03*
Y73166D03*
X322800Y92934D03*
X317500D03*
X322800Y98866D03*
X317500D03*
X328000Y92934D03*
Y98866D03*
X333500Y92934D03*
X338687D03*
X333500Y98866D03*
X338687D03*
X349200Y92934D03*
X343900D03*
X349200Y98866D03*
X343900D03*
G54D47*
X109320Y23421D03*
Y33657D03*
X113060D03*
X116800Y23421D03*
Y33657D03*
G54D83*
X318474Y33094D03*
X316314D03*
X318584Y41594D03*
X316424D03*
X316329Y50023D03*
X318489D03*
X318494Y53094D03*
X316334D03*
X318704Y61594D03*
X316544D03*
G54D29*
X23128Y338200D03*
Y343200D03*
Y348200D03*
Y353200D03*
X43364Y338200D03*
Y348200D03*
Y343200D03*
Y353200D03*
X231234Y264348D03*
Y269348D03*
Y274348D03*
Y279348D03*
X251470Y269348D03*
Y264348D03*
Y274348D03*
Y279348D03*
G54D74*
X252100Y12100D03*
G54D56*
X169297Y187588D03*
X167905Y188980D03*
X166513Y190372D03*
X165121Y191764D03*
X163729Y193156D03*
X162338Y194548D03*
X179041Y177844D03*
X177649Y179236D03*
X173473Y183412D03*
X172081Y184804D03*
X170689Y186196D03*
X176257Y180628D03*
X174865Y182020D03*
X187392Y169493D03*
X186001Y170884D03*
X184608Y172277D03*
X183217Y173668D03*
X181825Y175060D03*
X180433Y176452D03*
X195744Y161141D03*
X194352Y162533D03*
X192960Y163925D03*
X191568Y165317D03*
X190176Y166709D03*
X188785Y168100D03*
X204374Y236584D03*
X205765Y235192D03*
X215509Y225448D03*
X207157Y233800D03*
X208549Y232408D03*
X209941Y231016D03*
X211333Y229624D03*
X212725Y228232D03*
X214117Y226840D03*
X216901Y224056D03*
X218293Y222664D03*
X219685Y221272D03*
X221077Y219880D03*
X222469Y218488D03*
X223861Y217097D03*
X233605Y207353D03*
X225253Y215704D03*
X226645Y214313D03*
X228037Y212920D03*
X229428Y211529D03*
X230821Y210137D03*
X232212Y208745D03*
X234996Y205961D03*
X236389Y204569D03*
X237780Y203177D03*
G54D65*
X197157Y378500D03*
X216842D03*
G54D66*
X215336Y238833D03*
X223272Y239341D03*
X219078Y235146D03*
X219531Y243028D03*
G54D84*
X318500Y38380D03*
Y36220D03*
X318600Y46880D03*
Y44720D03*
X318649Y58491D03*
Y56331D03*
G54D48*
X120860Y44684D03*
Y50194D03*
G54D57*
X163729Y204569D03*
X165121Y205961D03*
X166513Y207353D03*
X162338Y203177D03*
X167905Y208745D03*
X169297Y210137D03*
X170689Y211529D03*
X172081Y212920D03*
X173473Y214313D03*
X174865Y215704D03*
X176257Y217097D03*
X177649Y218489D03*
X179041Y219880D03*
X180433Y221273D03*
X181825Y222664D03*
X183217Y224056D03*
X184608Y225448D03*
X186001Y226840D03*
X187392Y228232D03*
X188785Y229624D03*
X190176Y231016D03*
X191568Y232408D03*
X192960Y233800D03*
X194352Y235192D03*
X195744Y236584D03*
X204374Y161141D03*
X205765Y162533D03*
X214117Y170884D03*
X212725Y169493D03*
X211333Y168100D03*
X209941Y166709D03*
X208549Y165317D03*
X207157Y163925D03*
X215509Y172277D03*
X222469Y179237D03*
X221077Y177844D03*
X219685Y176453D03*
X218293Y175060D03*
X216901Y173668D03*
X223861Y180628D03*
X232212Y188980D03*
X230821Y187588D03*
X229428Y186196D03*
X228037Y184804D03*
X226645Y183412D03*
X225253Y182020D03*
X233605Y190372D03*
X237780Y194548D03*
X236389Y193156D03*
X234996Y191764D03*
G54D75*
X257003Y379855D03*
X276688D03*
X378455Y174812D03*
Y194497D03*
X378355Y253012D03*
Y272697D03*
X378255Y330112D03*
Y349797D03*
G54D39*
X51550Y53892D03*
Y60586D03*
X54700D03*
Y53892D03*
G54D58*
X162579Y305706D03*
G54D49*
X135811Y26238D03*
X141709Y26240D03*
G54D67*
X233661Y237741D03*
X238279Y233025D03*
X242448Y237197D03*
X237829Y241913D03*
X247499Y223776D03*
X242968Y228380D03*
X247136Y232552D03*
X251668Y227948D03*
G54D76*
X265481Y328825D03*
X260481D03*
Y350247D03*
X265481D03*
X275481Y328825D03*
X270481D03*
Y350247D03*
X275481D03*
G54D85*
X316222Y68013D03*
Y69588D03*
Y71163D03*
Y72738D03*
Y74313D03*
Y75887D03*
Y77462D03*
Y79037D03*
Y80612D03*
Y82187D03*
X335178Y68013D03*
Y77462D03*
Y75887D03*
Y74313D03*
Y72738D03*
Y71163D03*
Y69588D03*
Y82187D03*
Y80612D03*
Y79037D03*
G54D59*
X177134Y132238D03*
X183244Y138349D03*
G54D68*
X238398Y48200D03*
Y67200D03*
X255602Y48200D03*
Y67200D03*
X263198Y47800D03*
X262998Y67000D03*
X280402Y47800D03*
X280202Y67000D03*
G54D86*
X321763Y65622D03*
X320188D03*
X318613D03*
Y84578D03*
X320188D03*
X321763D03*
X331212Y65622D03*
X329637D03*
X328062D03*
X326487D03*
X324913D03*
X323338D03*
Y84578D03*
X324913D03*
X326487D03*
X328062D03*
X329637D03*
X331212D03*
X332787Y65622D03*
Y84578D03*
G54D77*
X267981Y339536D03*
G54D78*
X291154Y68169D03*
Y76831D03*
X297847Y68169D03*
Y76831D03*
G54D87*
X325700Y75100D03*
G54D69*
X250468Y10316D03*
G54D79*
X308460Y6560D03*
Y26639D03*
X328539Y6560D03*
Y26639D03*
G54D88*
X327425Y176019D03*
Y181019D03*
Y186019D03*
Y191019D03*
X327325Y254219D03*
Y259219D03*
Y264219D03*
Y269219D03*
X327225Y331319D03*
Y336319D03*
Y341319D03*
Y346319D03*
X348847Y176019D03*
Y186019D03*
Y181019D03*
Y191019D03*
X348747Y259219D03*
Y254219D03*
Y269219D03*
Y264219D03*
X348647Y331319D03*
Y341319D03*
Y336319D03*
Y346319D03*
G54D89*
X338136Y183519D03*
X338036Y261719D03*
X337936Y338819D03*
M02*
